<svg width="12" height="15" viewBox="0 0 12 15" fill="none" xmlns="http://www.w3.org/2000/svg">
<path d="M9.07975 13.6534C9.07911 13.9714 8.9525 14.2762 8.72764 14.5011C8.50278 14.7259 8.19798 14.8525 7.87998 14.8532L9.07975 13.6534ZM9.07975 13.6534V9.28046M9.07975 13.6534V9.28046M9.07975 9.28046C9.094 9.30374 9.11145 9.32502 9.13167 9.34362M9.07975 9.28046L2.14399 13.6461L2.09207 13.6459C2.09207 13.6459 2.09207 13.646 2.09207 13.646C2.09142 13.8107 2.12319 13.9738 2.18559 14.1262C2.248 14.2786 2.33981 14.4172 2.4558 14.5342C2.57178 14.6511 2.70966 14.744 2.86156 14.8077C3.01347 14.8713 3.17641 14.9044 3.34111 14.9051H3.34132H7.87998H7.88009C8.21182 14.9044 8.52978 14.7723 8.76435 14.5378C8.99892 14.3032 9.131 13.9852 9.13167 13.6535V13.6534V9.34362M9.13167 9.34362V9.26507M9.13167 9.34362C9.13825 9.34968 9.14513 9.35546 9.15229 9.36094C9.20379 9.40031 9.26681 9.42163 9.33163 9.42163C9.39645 9.42163 9.45947 9.40031 9.51097 9.36094C9.56246 9.32157 9.59957 9.26635 9.61657 9.2038L9.6166 9.2037C9.69507 8.91276 9.84851 8.6475 10.0616 8.43442C10.2746 8.2214 10.5398 8.06799 10.8306 7.9895M9.13167 9.26507L2.14399 5.7442L2.09207 5.74452C2.09207 5.74447 2.09207 5.74441 2.09207 5.74435C2.0863 4.81267 2.41979 3.91094 3.02993 3.20735M9.13167 9.26507C9.14601 9.28574 9.16357 9.3042 9.18382 9.31969C9.22626 9.35214 9.2782 9.36972 9.33163 9.36972C9.38505 9.36972 9.43699 9.35214 9.47943 9.31969C9.52188 9.28724 9.55246 9.24173 9.56647 9.19018C9.64731 8.89047 9.80538 8.61721 10.0249 8.39771C10.2444 8.17821 10.5176 8.02015 10.8173 7.93931M9.13167 9.26507L8.14038 3.22542M10.8306 7.9895C10.8955 7.97271 10.9527 7.93439 10.9928 7.88081C11.0328 7.82758 11.0535 7.76243 11.0518 7.69595C11.0535 7.62946 11.0328 7.56432 10.9928 7.51109C10.9527 7.45751 10.8955 7.41918 10.8306 7.4024M10.8306 7.9895C10.8305 7.98953 10.8304 7.98955 10.8303 7.98958L10.8173 7.93931M10.8306 7.9895C10.8307 7.98948 10.8308 7.98945 10.8309 7.98943L10.8173 7.93931M10.8306 7.4024C10.5395 7.3237 10.2742 7.16993 10.0611 6.95648C9.84801 6.74296 9.69473 6.47722 9.61662 6.18584L9.61657 6.18567C9.59957 6.12312 9.56246 6.0679 9.51097 6.02853C9.45947 5.98916 9.39645 5.96783 9.33163 5.96783C9.26681 5.96783 9.20379 5.98916 9.15229 6.02853C9.14513 6.034 9.13825 6.03978 9.13167 6.04584M10.8306 7.4024C10.8307 7.40242 10.8308 7.40245 10.8309 7.40247L10.8173 7.45259M10.8306 7.4024C10.8305 7.40237 10.8304 7.40234 10.8303 7.40231L10.8173 7.45259M9.13167 6.04584L9.13167 5.7421L9.07975 5.74177M9.13167 6.04584C9.11145 6.06445 9.094 6.08572 9.07975 6.10901V5.74177M9.13167 6.04584V6.1244C9.14601 6.10372 9.16357 6.08526 9.18382 6.06977C9.22626 6.03732 9.2782 6.01974 9.33163 6.01974C9.38505 6.01974 9.43699 6.03732 9.47943 6.06977C9.52188 6.10222 9.55246 6.14773 9.56647 6.19928C9.64694 6.49944 9.80484 6.7732 10.0244 6.99315C10.2439 7.21311 10.5173 7.37154 10.8173 7.45259M9.07975 5.74177H9.13167V5.74196C9.13768 4.80952 8.80301 3.90719 8.19089 3.20431M9.07975 5.74177C9.08575 4.81618 8.75145 3.92065 8.14038 3.22542M8.19089 3.20431C8.08403 1.79877 6.98457 0.686364 5.61187 0.686344L5.61042 0.686385C4.93894 0.705165 4.29947 0.977459 3.82058 1.44852C3.34603 1.91532 3.06403 2.543 3.02993 3.20735M8.19089 3.20431C8.19134 3.21013 8.19176 3.21596 8.19217 3.22179L8.14038 3.22542M8.19089 3.20431C8.18706 3.19992 8.18323 3.19553 8.17938 3.19115L8.14038 3.22542M3.02993 3.20735C3.03389 3.20278 3.03787 3.19821 3.04186 3.19366L3.08092 3.22786L3.02906 3.22555C3.02933 3.21948 3.02962 3.21341 3.02993 3.20735ZM2.09207 8.91744C2.00875 9.19864 1.85498 9.45395 1.64529 9.65912C1.4339 9.86596 1.1728 10.0149 0.887152 10.0915C0.822313 10.1083 0.765101 10.1466 0.724912 10.2002C0.684987 10.2534 0.664223 10.3186 0.665957 10.3851M2.09207 8.91744L0.900415 10.6284L0.887463 10.6787C0.822496 10.662 0.765165 10.6236 0.724912 10.5699C0.684987 10.5167 0.664223 10.4516 0.665957 10.3851M2.09207 8.91744V8.92492H2.14399L2.09415 8.91038C2.09346 8.91274 2.09277 8.91509 2.09207 8.91744ZM0.665957 10.3851C0.665971 10.3845 0.665987 10.384 0.666004 10.3834L0.717895 10.3851L0.666004 10.3867C0.665987 10.3862 0.665971 10.3856 0.665957 10.3851ZM10.8173 7.45259C10.8709 7.46638 10.9181 7.498 10.9513 7.54224C10.9845 7.58647 11.0016 7.64068 10.9999 7.69595C11.0016 7.75121 10.9845 7.80543 10.9513 7.84966C10.9181 7.89389 10.8709 7.92551 10.8173 7.93931M8.53625 5.74177V5.74158C8.53808 5.23293 8.42159 4.73179 8.19716 4.27741V6.01676C8.19716 7.50272 7.04022 8.74564 5.607 8.74564C4.17411 8.74564 3.0144 7.52498 3.0144 6.01676V4.28032C2.79378 4.7347 2.67986 5.23453 2.68262 5.74148L2.68262 5.74177L2.68262 8.92478C2.76552 9.2058 2.91887 9.46103 3.12815 9.66621C3.33917 9.8731 3.59995 10.0221 3.88533 10.0989L3.87184 10.149M8.53625 5.74177L3.34132 14.3664L3.34149 14.3145M8.53625 5.74177V13.651C8.53626 13.8258 8.46727 13.9936 8.34429 14.1178C8.22138 14.242 8.05444 14.3127 7.87973 14.3145M8.53625 5.74177L7.87973 14.3145M3.87184 10.149L3.8848 10.0987C3.94976 10.1155 4.00709 10.1538 4.04735 10.2075C4.08727 10.2607 4.10804 10.3259 4.1063 10.3924M3.87184 10.149C3.92539 10.1628 3.97264 10.1944 4.00581 10.2387C4.03899 10.2829 4.05611 10.3371 4.05436 10.3924M3.87184 10.149C3.57785 10.0699 3.3092 9.91641 3.0918 9.70328C2.87441 9.49015 2.7156 9.22459 2.63071 8.93222L4.05436 10.3924M4.1063 10.3924C4.10804 10.4589 4.08727 10.524 4.04735 10.5772C4.00716 10.6308 3.94995 10.6692 3.88511 10.6859C3.59982 10.7627 3.33912 10.9117 3.12815 11.1186C2.91887 11.3237 2.76552 11.579 2.68262 11.86V13.6534C2.68262 13.8284 2.75197 13.9962 2.87546 14.1201C2.99892 14.244 3.16643 14.3139 3.34132 14.3145C3.34138 14.3145 3.34144 14.3145 3.34149 14.3145M4.1063 10.3924C4.10629 10.3929 4.10627 10.3935 4.10625 10.394L4.05436 10.3924M4.1063 10.3924C4.10629 10.3918 4.10627 10.3913 4.10625 10.3907L4.05436 10.3924M3.34149 14.3145L7.87973 14.3145M3.34149 14.3145L7.87973 14.3145M5.59969 6.61948C4.9923 6.61929 4.39006 6.72934 3.82221 6.94416C3.68413 6.65337 3.60997 6.33616 3.60496 6.01393V3.41524C3.60496 2.23618 4.50949 1.27692 5.61187 1.27692C6.71158 1.27692 7.61148 2.23837 7.61148 3.41524V6.0139C7.60647 6.33619 7.53229 6.65345 7.39417 6.94428C6.82052 6.72906 6.21264 6.61899 5.59969 6.61948ZM5.59969 6.61948C5.5997 6.61948 5.59971 6.61948 5.59972 6.61948L5.5997 6.6714L5.59966 6.61948C5.59967 6.61948 5.59968 6.61948 5.59969 6.61948ZM2.09207 11.8527C2.09277 11.8551 2.09346 11.8574 2.09415 11.8598L2.14399 11.8452H2.09207V11.8527ZM2.38705 11.0866C2.20577 10.8052 1.96585 10.5663 1.68371 10.3861C1.96574 10.2049 2.20563 9.96523 2.38715 9.6834C2.56701 9.96493 2.80561 10.2043 3.0866 10.385C2.80518 10.5652 2.56644 10.8046 2.38705 11.0866ZM9.1341 7.26519C9.20608 7.18195 9.27226 7.09391 9.33217 7.00166C9.50971 7.28285 9.74619 7.52217 10.0252 7.70307C9.74419 7.88373 9.50551 8.12303 9.32559 8.40455C9.26743 8.31303 9.20348 8.22529 9.1341 8.14189V7.26519ZM4.13726 7.45594C5.09349 7.13126 6.13025 7.13126 7.08648 7.45594C6.91659 7.66644 6.7034 7.83836 6.46109 7.95983C6.1975 8.09197 5.90672 8.16077 5.61187 8.16077C5.31702 8.16077 5.02623 8.09197 4.76265 7.95983C4.52033 7.83836 4.30715 7.66644 4.13726 7.45594Z" fill="#EC897E" stroke="#EC897E" stroke-width="0.103834"/>
<path d="M10.2457 10.4043C10.0979 10.4043 9.95344 10.4481 9.83058 10.5302C9.70771 10.6123 9.61195 10.729 9.55541 10.8655C9.49886 11.002 9.48406 11.1522 9.51289 11.2972C9.54172 11.4421 9.61287 11.5752 9.71736 11.6797C9.82185 11.7842 9.95497 11.8553 10.0999 11.8842C10.2448 11.913 10.395 11.8982 10.5316 11.8417C10.6681 11.7851 10.7848 11.6894 10.8669 11.5665C10.9489 11.4436 10.9928 11.2992 10.9928 11.1514C10.9921 10.9535 10.9132 10.7638 10.7732 10.6238C10.6333 10.4839 10.4436 10.4049 10.2457 10.4043ZM10.2457 11.4118C10.1941 11.4118 10.1438 11.3965 10.101 11.3679C10.0582 11.3393 10.0248 11.2986 10.0051 11.2511C9.98537 11.2035 9.98021 11.1511 9.99026 11.1006C10.0003 11.0501 10.0251 11.0037 10.0615 10.9673C10.0979 10.9309 10.1443 10.9061 10.1948 10.896C10.2454 10.886 10.2977 10.8911 10.3453 10.9108C10.3929 10.9305 10.4335 10.9639 10.4622 11.0067C10.4908 11.0496 10.506 11.0999 10.506 11.1514C10.506 11.2205 10.4786 11.2867 10.4298 11.3355C10.3809 11.3844 10.3147 11.4118 10.2457 11.4118Z" fill="#EC897E"/>
<path d="M0.990476 4.25244C1.18637 4.25244 1.37787 4.19435 1.54075 4.08551C1.70364 3.97668 1.83059 3.82199 1.90556 3.641C1.98052 3.46001 2.00014 3.26086 1.96192 3.06873C1.9237 2.87659 1.82937 2.70011 1.69085 2.56159C1.55233 2.42307 1.37584 2.32873 1.18371 2.29052C0.991575 2.2523 0.792423 2.27191 0.611437 2.34688C0.430451 2.42185 0.27576 2.5488 0.166925 2.71168C0.0580904 2.87456 0 3.06606 0 3.26196C0 3.52465 0.104353 3.77658 0.290104 3.96233C0.475854 4.14808 0.727785 4.25244 0.990476 4.25244ZM0.990476 2.75821C1.09011 2.75821 1.18751 2.78775 1.27035 2.8431C1.35319 2.89846 1.41776 2.97713 1.45589 3.06918C1.49401 3.16123 1.50399 3.26252 1.48455 3.36024C1.46511 3.45796 1.41714 3.54772 1.34668 3.61817C1.27623 3.68862 1.18647 3.7366 1.08875 3.75604C0.991035 3.77547 0.889746 3.7655 0.797697 3.72737C0.705648 3.68924 0.626972 3.62467 0.571618 3.54183C0.516265 3.45899 0.48672 3.36159 0.48672 3.26196C0.48672 3.12836 0.539794 3.00022 0.634267 2.90575C0.728739 2.81128 0.856872 2.75821 0.990476 2.75821Z" fill="#EC897E"/>
</svg>
