<svg width="14" height="15" viewBox="0 0 14 15" fill="none" xmlns="http://www.w3.org/2000/svg">
<g clip-path="url(#clip0_2664_4793)">
<path d="M11.4148 8.67377C11.3794 8.39241 11.2218 8.27213 11.0958 8.22078C10.9032 8.14228 10.5453 8.10476 9.64943 8.63392C9.73091 8.29632 9.69882 7.93291 9.54193 7.60663C9.85076 7.22111 10.203 6.69112 10.1538 6.29764C10.1182 6.01288 9.95917 5.8915 9.83196 5.83981C9.10631 5.54477 7.45809 6.86894 6.84496 7.35908C6.86506 7.14694 6.83692 6.92938 6.75688 6.72394C7.05801 6.35547 7.42547 5.82322 7.37642 5.43072C7.34031 5.1418 7.166 5.03002 7.06529 4.98907C6.65501 4.82226 5.98974 5.18927 5.52509 5.47983C4.82473 5.91775 4.84285 5.93633 0.0123994 9.81239C-0.313228 10.0737 -0.5 10.4631 -0.5 10.8806C-0.5 11.3389 -0.5 13.4419 -0.5 13.9074C-0.5 14.3717 -0.122292 14.7494 0.341963 14.7494H0.79707C0.914401 14.7494 1.00947 14.6543 1.00947 14.537C1.00947 14.4197 0.914401 14.3246 0.79707 14.3246H0.341963C0.111974 14.3246 -0.075167 14.1375 -0.075167 13.9075V13.4569L5.85202 8.70081C6.03423 9.72459 7.17962 9.77291 7.83521 9.29231C8.24659 8.99036 8.8448 8.3994 9.22814 7.97372C9.34462 8.39323 9.20619 8.85734 8.85196 9.14156C8.84814 9.14462 7.96704 9.85158 2.39111 14.3246H1.78834C1.67101 14.3246 1.57594 14.4197 1.57594 14.537C1.57594 14.6543 1.67101 14.7494 1.78834 14.7494C2.77091 14.7494 5.30691 14.7494 6.28943 14.7494C6.68234 14.7494 7.06753 14.614 7.37398 14.368L8.86425 13.1722C8.95573 13.0987 8.9704 12.9651 8.89696 12.8735C8.82353 12.7821 8.68986 12.7674 8.59832 12.8408L7.10808 14.0367C6.87673 14.2223 6.58597 14.3246 6.2894 14.3246H3.07162L7.15082 11.0513C7.18817 11.2541 7.25659 11.4073 7.33317 11.516C7.65265 11.9707 8.40073 12.0289 8.93981 11.7394C9.26521 11.5644 9.87815 10.9716 10.1342 10.7122C10.254 11.1459 10.1099 11.628 9.74609 11.9199L9.37147 12.2205C9.27999 12.2939 9.26535 12.4276 9.33876 12.5191C9.41217 12.6106 9.54584 12.6252 9.6374 12.5518L10.012 12.2512C10.575 11.7994 10.7533 11.0145 10.4599 10.3689C10.7168 10.0864 11.4858 9.23876 11.4148 8.67377ZM5.75329 5.8382C6.60602 5.30549 6.8626 5.36522 6.90534 5.38267C6.91698 5.38739 6.94422 5.39847 6.95484 5.48346C7.02272 6.02593 5.34429 7.65455 4.88584 7.95786C4.49378 8.21104 3.98699 8.14585 3.82281 7.92291C3.70307 7.76044 3.70095 7.52003 3.6909 7.40539C4.58585 6.68868 5.08304 6.25688 5.75329 5.8382ZM5.90637 8.11226C5.55061 8.39722 0.263374 12.632 -0.075167 12.9031V10.8806C-0.075167 10.5926 0.0536621 10.324 0.278299 10.1438L3.29631 7.72204C3.37518 8.13506 3.57963 8.35137 3.88027 8.46791C4.1605 8.57652 4.50839 8.58425 4.83883 8.45757C5.29674 8.28193 6.0915 7.4686 6.41976 7.11035C6.50027 7.77024 5.95281 8.05531 5.90637 8.11226ZM7.58712 8.9474C7.15566 9.26532 6.5442 9.20775 6.36532 8.905C6.27997 8.76063 6.25037 8.54939 6.24884 8.38238C7.16257 7.64713 7.7309 7.15996 8.43976 6.71712C9.34867 6.1493 9.62567 6.21457 9.67203 6.23338C9.68764 6.23972 9.72009 6.25295 9.73227 6.35031C9.80556 6.93663 8.07429 8.58935 7.58712 8.9474ZM8.81475 11.32C8.46253 11.5465 7.8635 11.5718 7.66443 11.2465C7.57378 11.0971 7.54914 10.8756 7.54673 10.7336C8.69291 9.81791 9.03907 9.51063 9.71616 9.09011C10.6162 8.53106 10.8898 8.59552 10.9355 8.61418C10.9504 8.62027 10.9816 8.63296 10.9933 8.72676C11.0668 9.31166 9.26244 11.03 8.81475 11.32Z" fill="#EC897E"/>
<path d="M13.7877 1.39561C13.9051 1.39561 14.0001 1.30054 14.0001 1.18321V0.820796C14.0001 0.506072 13.7441 0.25 13.4293 0.25H11.4578C11.143 0.25 10.887 0.506072 10.887 0.820796V2.17003C10.887 2.45479 11.0782 2.70817 11.3521 2.78625L11.7981 2.91344V4.67171C11.7981 4.80071 11.8381 4.92053 11.9062 5.01957C11.8771 5.51803 11.7233 6.57163 10.967 7.20286C10.7609 7.37482 10.7635 7.69348 10.9715 7.86485C11.3369 8.13404 11.4536 8.35097 11.7572 8.35097C11.9628 8.35097 12.1525 8.2376 12.2468 8.04975C12.4739 7.59737 12.8547 6.61346 12.887 5.06485C12.9758 4.95814 13.0293 4.82104 13.0293 4.67171V3.26453C13.128 3.27166 13.4469 3.47356 13.7668 3.23219C13.9151 3.12029 14.0002 2.94952 14.0002 2.76374V2.17448C14.0002 2.05718 13.9051 1.96208 13.7878 1.96208C13.6704 1.96208 13.5754 2.05715 13.5754 2.17448V2.76374C13.5754 2.81506 13.5519 2.86221 13.5109 2.89308C13.4029 2.97467 13.3271 2.88911 12.8752 2.77878C12.5998 2.70025 11.7503 2.45799 11.4686 2.37768C11.3763 2.35137 11.3119 2.26598 11.3119 2.17003V0.820796C11.3119 0.741669 11.3787 0.674833 11.4578 0.674833H13.4294C13.5085 0.674833 13.5754 0.741669 13.5754 0.820796V1.18321C13.5753 1.30054 13.6704 1.39561 13.7877 1.39561ZM11.8671 7.85916C11.832 7.92897 11.7406 7.94806 11.6796 7.89779L11.2415 7.53693C11.2375 7.53364 11.239 7.52914 11.2392 7.529C11.8968 6.98018 12.2179 6.13023 12.3107 5.27884C12.358 5.28674 12.4082 5.28909 12.455 5.28595C12.3947 6.61791 12.0668 7.46134 11.8671 7.85916ZM12.2229 3.03459L12.6045 3.1434V4.67171C12.6045 4.72914 12.5788 4.78063 12.5385 4.8156C12.412 4.92331 12.2229 4.83262 12.2229 4.67171V3.03459Z" fill="#EC897E"/>
</g>
<defs>
<clipPath id="clip0_2664_4793">
<rect width="14.5" height="14.5" fill="white" transform="translate(-0.5 0.25)"/>
</clipPath>
</defs>
</svg>
