<svg width="15" height="15" viewBox="0 0 15 15" fill="none" xmlns="http://www.w3.org/2000/svg">
<g clip-path="url(#clip0_2664_4752)">
<path d="M14.2048 6.99999H14.1805C14.117 6.60096 13.9231 6.23871 13.633 5.97729C13.343 5.71587 12.9756 5.57211 12.5957 5.57142H11.2547C11.1125 5.57125 10.9762 5.51099 10.8756 5.40386C10.7751 5.29673 10.7185 5.15149 10.7184 4.99999C10.7164 4.47019 10.518 3.96268 10.1663 3.58806C9.8147 3.21343 9.33833 3.00206 8.84103 3C8.80581 2.99999 8.77093 3.00737 8.73839 3.02172C8.70585 3.03608 8.67628 3.05712 8.65138 3.08365C8.62647 3.11019 8.60672 3.14169 8.59325 3.17635C8.57977 3.21102 8.57285 3.24818 8.57286 3.2857C8.57255 3.58871 8.45944 3.87921 8.25832 4.09347C8.05721 4.30772 7.78453 4.42824 7.50011 4.42856H5.89098C5.59391 4.4288 5.30011 4.49463 5.02812 4.62189C4.75612 4.74915 4.51184 4.93508 4.31067 5.16796C4.13918 5.37888 3.9281 5.54918 3.69106 5.66788C3.45401 5.78658 3.19624 5.85105 2.93438 5.85713H2.13636C1.82738 5.85756 1.52798 5.97147 1.28863 6.17965C1.04928 6.38783 0.884623 6.67755 0.822404 6.99999H0.795428C0.583633 7.00257 0.381334 7.09401 0.232421 7.25448C0.083509 7.41495 -4.58338e-06 7.6315 1.88664e-10 7.85715C4.58376e-06 8.08281 0.083527 8.29936 0.232446 8.45982C0.381365 8.62028 0.583668 8.71171 0.795463 8.71428H0.857662L1.71785 12.1515C1.7789 12.3948 1.91357 12.6098 2.10099 12.7632C2.28842 12.9166 2.51811 12.9998 2.75446 13H12.2458C12.4821 12.9999 12.7117 12.9166 12.8991 12.7632C13.0865 12.6099 13.2211 12.3949 13.2821 12.1516L14.1427 8.71428H14.2048C14.4165 8.71164 14.6188 8.62017 14.7677 8.45971C14.9165 8.29925 15 8.08274 15 7.85713C15 7.63152 14.9165 7.415 14.7676 7.25455C14.6188 7.09409 14.4165 7.00263 14.2048 6.99999ZM14.2048 8.14285C14.0153 8.14329 13.7342 8.09837 13.6776 8.35492L12.7638 12.0045C12.7333 12.1261 12.666 12.2335 12.5724 12.3102C12.4787 12.3869 12.3639 12.4285 12.2458 12.4286H2.75445C2.63627 12.4285 2.52143 12.3868 2.42772 12.3101C2.33401 12.2334 2.26667 12.1259 2.23614 12.0043L1.4126 8.71428H12.8638C12.934 8.71277 13.0009 8.682 13.05 8.62858C13.0991 8.57516 13.1267 8.50335 13.1267 8.42856C13.1266 8.35377 13.0991 8.28196 13.05 8.22854C13.0009 8.17513 12.934 8.14436 12.8638 8.14285H0.795428C0.724447 8.14261 0.65645 8.1124 0.606338 8.05885C0.556226 8.00529 0.528087 7.93276 0.528087 7.85714C0.528087 7.78152 0.556226 7.70898 0.606338 7.65542C0.65645 7.60187 0.724447 7.57166 0.795428 7.57142H1.06362C1.09884 7.57143 1.13371 7.56404 1.16626 7.54969C1.1988 7.53533 1.22836 7.51429 1.25327 7.48776C1.27817 7.46122 1.29793 7.42972 1.3114 7.39506C1.32488 7.36039 1.33181 7.32323 1.3318 7.28571C1.33204 7.05846 1.41688 6.84058 1.56771 6.67989C1.71855 6.5192 1.92305 6.42881 2.13636 6.42856H2.93438C3.27058 6.42293 3.60194 6.34222 3.90704 6.19165C4.21213 6.04107 4.48419 5.82398 4.70562 5.5544C4.85652 5.37976 5.03977 5.24033 5.24379 5.14491C5.4478 5.04949 5.66817 5.00014 5.89098 4.99999H7.5001C7.87651 4.99948 8.24087 4.85864 8.53 4.60188C8.81913 4.34512 9.01479 3.98865 9.08304 3.59429C9.39106 3.65592 9.66929 3.82998 9.86986 4.08654C10.0704 4.3431 10.1808 4.66612 10.182 5C10.1823 5.30301 10.2954 5.59352 10.4965 5.80777C10.6976 6.02203 10.9703 6.14254 11.2547 6.14286H12.5957C12.8329 6.14361 13.0631 6.22816 13.2503 6.38327C13.4376 6.53838 13.5712 6.75529 13.6303 7.00001H2.13636C2.06594 7.00115 1.99876 7.03175 1.94934 7.08521C1.89992 7.13867 1.87222 7.21069 1.87222 7.28573C1.87222 7.36076 1.89993 7.43279 1.94935 7.48624C1.99878 7.5397 2.06596 7.5703 2.13638 7.57144H14.2048C14.2751 7.57273 14.3421 7.6034 14.3914 7.65684C14.4407 7.71028 14.4684 7.78221 14.4684 7.85714C14.4684 7.93207 14.4407 8.004 14.3914 8.05744C14.3421 8.11088 14.2751 8.14155 14.2048 8.14285Z" fill="#EC897E"/>
</g>
<defs>
<clipPath id="clip0_2664_4752">
<rect width="15" height="15" fill="white"/>
</clipPath>
</defs>
</svg>
