<svg width="35" height="35" viewBox="0 0 35 35" fill="none" xmlns="http://www.w3.org/2000/svg">
<path d="M11.721 1.57146C9.93074 1.84309 8.24539 2.50365 6.73908 3.50991C3.88078 5.42368 2.00406 8.41779 1.49784 11.8564C1.34351 12.9244 1.40524 14.9431 1.62131 15.9741C1.84355 17.0112 2.15222 17.9063 2.6214 18.8756C2.83747 19.3201 3.0165 19.7152 3.0165 19.746C3.0165 19.7769 2.65845 21.1042 2.21396 22.6907C1.77565 24.2773 1.42376 25.5861 1.42993 25.5984C1.44228 25.6046 2.75105 25.2527 4.34379 24.8144C5.93653 24.3699 7.25765 24.0119 7.28851 24.0119C7.31321 24.0119 7.70831 24.1909 8.15279 24.407C9.01707 24.8267 9.81344 25.1107 10.6469 25.3144C11.2272 25.4503 12.3199 25.6169 12.6779 25.6169H12.9248L13.0854 26.1293C13.8756 28.6172 15.9251 30.9384 18.3513 32.0929C19.0983 32.4509 19.9255 32.7349 20.7651 32.9139C21.296 33.0312 21.5738 33.0497 22.8023 33.0497C24.0494 33.0559 24.3025 33.0374 24.8519 32.9139C25.7717 32.7164 26.5372 32.4509 27.3336 32.062L28.0436 31.7163L30.5129 32.4015C31.8711 32.7719 32.9885 33.0744 33.0008 33.0683C33.007 33.0559 32.7045 31.9385 32.3341 30.5804L31.6488 28.111L31.9946 27.4011C32.3897 26.58 32.6489 25.8454 32.8465 24.9379C32.97 24.3699 32.9885 24.1168 32.9885 22.8698C32.9885 21.6289 32.97 21.3696 32.8465 20.8202C32.3897 18.7459 31.513 17.1347 30.0252 15.6407C28.8461 14.4554 27.5312 13.6282 26.0989 13.1651L25.568 12.9923L25.5248 12.4367C25.1667 7.79427 21.8022 3.54696 17.308 2.06533C16.0054 1.63937 15.3201 1.53442 13.7274 1.50973C12.7026 1.49121 12.147 1.50973 11.721 1.57146ZM15.5053 3.57782C17.5364 3.99761 19.302 4.97301 20.7713 6.4855C22.1541 7.91774 22.9628 9.41171 23.4258 11.3872C23.5925 12.0848 23.6049 12.2083 23.6049 13.5479C23.6049 14.8875 23.5925 15.011 23.4258 15.7086C22.9628 17.6841 22.1541 19.1781 20.7713 20.6103C18.6353 22.8142 15.8325 23.8884 12.7396 23.6908C11.1531 23.5921 9.48008 23.0426 8.09106 22.1845L7.64657 21.9067L5.94271 22.3759C5.00435 22.6352 4.22649 22.8327 4.20797 22.8204C4.19563 22.8019 4.39318 22.024 4.65246 21.0857L5.12781 19.3818L4.84384 18.9373C4.25119 17.9804 3.76349 16.7643 3.49803 15.5728C3.37456 15.0419 3.36222 14.7888 3.36222 13.5479C3.36222 11.986 3.43012 11.523 3.82522 10.3501C4.3191 8.86227 5.05991 7.65845 6.18964 6.4855C7.65892 4.97301 9.41834 3.99761 11.4556 3.57165C12.6409 3.32471 14.3015 3.32471 15.5053 3.57782ZM26.457 15.4061C28.4695 16.3753 30.1178 18.3014 30.7599 20.4374C31.013 21.2894 31.1056 21.9252 31.1056 22.8327C31.1056 24.5242 30.6858 25.975 29.7968 27.3887L29.5561 27.7715L29.9018 29.0123C30.0931 29.6976 30.2351 30.2717 30.2228 30.2902C30.2043 30.3026 29.6301 30.1606 28.9449 29.9692L27.704 29.6235L27.3213 29.8643C25.9076 30.7594 24.4321 31.1854 22.7715 31.1792C20.6478 31.1792 18.66 30.3828 17.0919 28.9074C16.4067 28.2653 15.7399 27.3579 15.3387 26.5244C14.8633 25.5429 14.8633 25.5737 15.2214 25.5243C16.8758 25.2898 18.6847 24.6045 20.1231 23.6538C23.0307 21.74 24.926 18.7521 25.4569 15.2579C25.5063 14.9369 25.4878 14.9369 26.457 15.4061Z" fill="#EF8B7F"/>
<path d="M12.517 7.12198C11.023 7.54795 9.92411 8.83819 9.76978 10.3445L9.72656 10.7396H10.6958C11.5848 10.7396 11.6588 10.7334 11.6588 10.6285C11.6588 10.0791 12.2021 9.31972 12.7762 9.07896C13.48 8.77029 14.264 8.95549 14.8073 9.54814C15.2641 10.0482 15.4061 10.6285 15.2147 11.2582C15.0913 11.6718 14.9369 11.8446 13.6652 13.0238L12.5231 14.0856V15.2215V16.3574H13.48H14.4369V15.6537V14.9499L15.1653 14.2893C16.4371 13.1164 16.6902 12.8015 16.9989 11.9743C17.1532 11.5668 17.1779 11.4249 17.1779 10.7705C17.1841 10.1963 17.1594 9.94941 17.0668 9.69012C16.6593 8.48013 15.8383 7.62203 14.7085 7.20841C14.2579 7.04173 12.9738 6.99234 12.517 7.12198Z" fill="#EF8B7F"/>
<path d="M12.5254 19.1345V20.0605H13.4823H14.4392V19.1345V18.2085H13.4823H12.5254V19.1345Z" fill="#EF8B7F"/>
</svg>
