<svg width="20" height="20" viewBox="0 0 20 20" fill="none" xmlns="http://www.w3.org/2000/svg">
<path d="M19.5669 14.4761C19.3997 15.7464 18.7759 16.9125 17.8118 17.7564C16.8477 18.6004 15.6094 19.0646 14.3281 19.0623C6.88438 19.0623 0.828133 13.0061 0.828133 5.56231C0.825837 4.28102 1.29003 3.04271 2.13401 2.07865C2.97799 1.11459 4.14404 0.490723 5.41438 0.32356C5.73562 0.284336 6.06093 0.350056 6.34175 0.510909C6.62256 0.671762 6.84383 0.919121 6.97251 1.21606L8.95251 5.63637V5.64762C9.05103 5.87492 9.09172 6.12309 9.07094 6.36994C9.05016 6.6168 8.96857 6.85467 8.83345 7.06231C8.81657 7.08762 8.79876 7.11106 8.78001 7.1345L6.82813 9.44825C7.53032 10.8751 9.02282 12.3545 10.4684 13.0586L12.7503 11.117C12.7727 11.0982 12.7962 11.0806 12.8206 11.0645C13.0281 10.9261 13.2668 10.8417 13.5151 10.8187C13.7634 10.7958 14.0135 10.8352 14.2428 10.9332L14.255 10.9389L18.6716 12.9179C18.969 13.0462 19.217 13.2672 19.3784 13.5481C19.5398 13.8289 19.6059 14.1545 19.5669 14.4761Z" fill="#F172AD"/>
</svg>
