<svg width="20" height="21" viewBox="0 0 20 21" fill="none" xmlns="http://www.w3.org/2000/svg">
<path d="M17.875 0H1.625C1.19402 0 0.780698 0.171205 0.475951 0.475951C0.171205 0.780698 0 1.19402 0 1.625V7.59383C0 16.6948 7.70047 19.7143 9.24219 20.2272C9.57147 20.3392 9.92853 20.3392 10.2578 20.2272C11.8016 19.7143 19.5 16.6948 19.5 7.59383V1.625C19.5 1.19402 19.3288 0.780698 19.024 0.475951C18.7193 0.171205 18.306 0 17.875 0ZM14.3873 7.07484L8.69984 12.7623C8.62438 12.8379 8.53477 12.8978 8.43614 12.9387C8.3375 12.9796 8.23178 13.0006 8.125 13.0006C8.01822 13.0006 7.9125 12.9796 7.81386 12.9387C7.71523 12.8978 7.62562 12.8379 7.55016 12.7623L5.11266 10.3248C4.9602 10.1724 4.87455 9.96561 4.87455 9.75C4.87455 9.53439 4.9602 9.32761 5.11266 9.17516C5.26511 9.0227 5.47189 8.93705 5.6875 8.93705C5.90311 8.93705 6.10989 9.0227 6.26234 9.17516L8.125 11.0378L13.2377 5.92516C13.3131 5.84967 13.4028 5.78978 13.5014 5.74893C13.6 5.70808 13.7057 5.68705 13.8125 5.68705C13.9193 5.68705 14.025 5.70808 14.1236 5.74893C14.2222 5.78978 14.3119 5.84967 14.3873 5.92516C14.4628 6.00065 14.5227 6.09026 14.5636 6.1889C14.6044 6.28753 14.6255 6.39324 14.6255 6.5C14.6255 6.60676 14.6044 6.71247 14.5636 6.8111C14.5227 6.90974 14.4628 6.99935 14.3873 7.07484Z" fill="#818C65"/>
</svg>
