<svg width="15" height="13" viewBox="0 0 15 13" fill="none" xmlns="http://www.w3.org/2000/svg">
<path d="M4.39135 0.907122C3.95776 0.948137 3.42749 1.15322 3.0935 1.4081C2.32593 1.99403 1.94214 2.86122 2.02417 3.81923C2.07983 4.4579 2.323 4.98231 2.78296 5.45399L3.00561 5.67958L2.78003 5.81141C1.85132 6.34754 1.1687 7.33485 0.984131 8.40125C0.916748 8.7909 0.916748 9.9657 0.984131 10.1942C1.11011 10.6278 1.47632 10.9969 1.90698 11.1317C2.06518 11.1815 2.18237 11.1874 2.90307 11.1874H3.72045V11.2841C3.72045 11.4276 3.79956 11.7059 3.89038 11.8729C4.0603 12.1893 4.41772 12.4647 4.77514 12.5614C4.87475 12.5878 5.56908 12.5936 7.57299 12.5878L10.239 12.579L10.4675 12.4706C10.7224 12.3475 10.9538 12.1395 11.0886 11.9081C11.1824 11.7499 11.279 11.4305 11.279 11.2841V11.1874H12.0964C12.8171 11.1874 12.9343 11.1815 13.0925 11.1317C13.5232 10.9969 13.8894 10.6278 14.0154 10.1942C14.0798 9.97156 14.0827 8.78797 14.0183 8.4159C13.8279 7.33192 13.1511 6.35047 12.2195 5.80848L11.9939 5.67958L12.2165 5.45106C12.6765 4.98231 12.9197 4.4579 12.9753 3.81923C13.0427 3.02528 12.7937 2.29286 12.2634 1.72743C11.4226 0.833879 10.0544 0.634662 8.96459 1.24697C8.66576 1.41689 8.21166 1.84755 8.0476 2.12587L7.93627 2.30751L7.52611 2.30458C7.30053 2.30458 7.10717 2.31337 7.09838 2.32216C7.08666 2.33095 7.02807 2.25185 6.96361 2.14052C6.79662 1.8622 6.34252 1.42275 6.05248 1.25868C5.53393 0.965715 4.99194 0.851458 4.39135 0.907122ZM5.21459 1.94716C5.33471 1.98524 5.51635 2.07021 5.61596 2.13466C5.80053 2.25478 6.12279 2.5829 6.12279 2.64735C6.12279 2.66786 6.05248 2.72938 5.96459 2.78798C5.75365 2.9286 5.44604 3.24208 5.2849 3.48524C5.00073 3.91591 4.86596 4.34071 4.84252 4.90907C4.82202 5.33094 4.83373 5.31922 4.49389 5.27235C3.84057 5.18153 3.33667 4.78602 3.0935 4.17958C2.84448 3.55263 3.0144 2.79677 3.50952 2.33095C3.9812 1.8915 4.59643 1.7538 5.21459 1.94716ZM10.8542 1.95595C11.5603 2.19325 12.0144 2.82899 12.0144 3.5702C12.0144 4.43739 11.3904 5.14637 10.5115 5.26942C10.1951 5.31629 10.1951 5.31629 10.1951 4.98231C10.1921 4.12684 9.80247 3.33876 9.13158 2.83485C8.99974 2.73524 8.88841 2.64442 8.88256 2.63563C8.86791 2.59462 9.20482 2.25478 9.36595 2.14638C9.81712 1.84755 10.3386 1.78017 10.8542 1.95595ZM7.79857 3.28895C8.31713 3.3827 8.78002 3.71669 9.0349 4.18837C9.14037 4.3788 9.22826 4.73915 9.22826 4.97645C9.22826 5.89637 8.46068 6.6786 7.54369 6.68739C6.85521 6.69325 6.25463 6.30653 5.96166 5.66786C5.48998 4.65126 6.16088 3.44423 7.29174 3.28016C7.52611 3.24501 7.54662 3.24501 7.79857 3.28895ZM5.13256 6.28895C5.15893 6.30067 5.23803 6.39442 5.30541 6.49696C5.3728 6.5995 5.51928 6.77235 5.62768 6.88075L5.82397 7.0741L5.65111 7.17078C5.39623 7.31141 5.03002 7.58973 4.8103 7.81238C4.20971 8.42176 3.84643 9.19519 3.7351 10.0946L3.7146 10.2499H3.05249C2.68628 10.2499 2.33471 10.2352 2.27319 10.2206C2.12964 10.1884 2.02417 10.1122 1.948 9.98328C1.89526 9.89246 1.8894 9.83387 1.89233 9.32703C1.89526 9.01941 1.91284 8.69129 1.93042 8.59461C2.16479 7.41981 3.02612 6.53797 4.15991 6.30946C4.35913 6.26844 5.0476 6.25379 5.13256 6.28895ZM10.9685 6.33582C12.0818 6.64637 12.8435 7.46375 13.0691 8.59461C13.0866 8.69129 13.1042 9.01941 13.1072 9.32703C13.1101 9.83387 13.1042 9.89246 13.0515 9.98328C12.9753 10.1122 12.8699 10.1884 12.7263 10.2206C12.6648 10.2352 12.3132 10.2499 11.947 10.2499H11.2849L11.2644 10.0946C11.1531 9.19519 10.7898 8.42176 10.1892 7.81238C9.97826 7.59852 9.57982 7.29383 9.39232 7.19715C9.18724 7.09461 9.18724 7.10047 9.40111 6.8866C9.50951 6.77821 9.65599 6.60243 9.7263 6.49989C9.79662 6.39442 9.86693 6.29774 9.88451 6.28602C9.94017 6.245 10.781 6.28309 10.9685 6.33582ZM8.23217 7.75965C8.74486 7.90613 9.15795 8.15809 9.52123 8.53895C9.88451 8.9198 10.0896 9.28602 10.2302 9.79871C10.28 9.99207 10.2947 10.1356 10.3064 10.6483C10.321 11.3602 10.3035 11.4276 10.0984 11.5624L9.97826 11.6415H7.49974H5.02123L4.90112 11.5624C4.69604 11.4276 4.67846 11.3602 4.69311 10.6483C4.70483 10.1415 4.71948 9.98914 4.76928 9.80457C4.91284 9.28016 5.12963 8.89344 5.48705 8.52723C5.90014 8.10242 6.36303 7.84461 6.94311 7.7157C7.23314 7.65125 7.94506 7.67469 8.23217 7.75965Z" fill="#EC897E"/>
</svg>
