<svg width="10" height="19" viewBox="0 0 10 19" fill="none" xmlns="http://www.w3.org/2000/svg">
<path d="M9.48022 9.61295C9.03988 9.07293 8.38753 8.76342 7.69076 8.76342H6.79155V7.66919H7.51949C7.60898 7.66919 7.69353 7.63062 7.75216 7.56304C7.81079 7.49546 7.83733 7.40628 7.82499 7.31802L6.93288 0.93006C6.91159 0.777621 6.78136 0.664062 6.62738 0.664062H3.37307C3.21909 0.664062 3.08887 0.777621 3.06758 0.93006L2.17546 7.31802C2.16312 7.40659 2.18966 7.49577 2.24829 7.56304C2.30692 7.63031 2.39178 7.66919 2.48096 7.66919H3.20891V8.76342H2.3097C1.61292 8.76342 0.960576 9.07293 0.520229 9.61295C0.0798822 10.153 -0.0923069 10.8538 0.0474809 11.5363L1.35217 17.8993C1.47035 18.476 1.98322 18.8945 2.57199 18.8945H7.42784C8.01631 18.8945 8.52948 18.476 8.64767 17.8993L9.95236 11.5367C10.0925 10.8541 9.92026 10.153 9.47961 9.61326L9.48022 9.61295ZM3.64185 1.28092H6.35922L6.9551 5.5483H3.04598L3.64185 1.28092ZM2.95988 6.16547H7.04119L7.16493 7.05172H2.83614L2.95988 6.16547ZM3.82669 7.66888H6.17438V8.76311H3.82669V7.66888ZM9.34846 11.4123L8.04377 17.7753C7.98422 18.0659 7.72532 18.277 7.42846 18.277H2.57261C2.27575 18.277 2.01716 18.0659 1.9573 17.7753L0.652611 11.4123C0.549853 10.9124 0.676372 10.3986 0.999149 10.003C1.32193 9.6074 1.79992 9.38028 2.31031 9.38028H7.69076C8.20115 9.38028 8.67914 9.60709 9.00192 10.003C9.3247 10.3986 9.45091 10.9124 9.34846 11.4123Z" fill="#EC897E"/>
<path d="M7.69094 9.99805C7.5206 9.99805 7.38235 10.1363 7.38235 10.3066C7.38235 10.477 7.5206 10.6152 7.69094 10.6152C7.87053 10.6152 7.98285 10.7069 8.0455 10.7837C8.10814 10.8605 8.1751 10.9889 8.139 11.1651L7.09815 16.241C7.0639 16.4079 7.17159 16.5708 7.33853 16.6051C7.35921 16.6094 7.38019 16.6116 7.40087 16.6116C7.54436 16.6116 7.67304 16.511 7.70297 16.365L8.74382 11.2892C8.83331 10.8537 8.64445 10.5412 8.52411 10.394C8.40376 10.2461 8.13529 9.99836 7.69124 9.99836L7.69094 9.99805Z" fill="#EC897E"/>
</svg>
