<svg width="22" height="20" viewBox="0 0 22 20" fill="none" xmlns="http://www.w3.org/2000/svg">
<path d="M19.5741 0.568359H2.12534C1.70464 0.568359 1.30117 0.735482 1.00369 1.03296C0.706213 1.33044 0.539091 1.73391 0.539091 2.15461V18.0171C0.537262 18.3196 0.622832 18.6162 0.785515 18.8712C0.948199 19.1262 1.18107 19.3288 1.45614 19.4546C1.66575 19.5522 1.89412 19.603 2.12534 19.6034C2.49772 19.6025 2.85774 19.4697 3.14153 19.2286C3.14626 19.2255 3.15059 19.2219 3.15442 19.2177L6.33882 16.4309H19.5741C19.9948 16.4309 20.3983 16.2637 20.6957 15.9663C20.9932 15.6688 21.1603 15.2653 21.1603 14.8446V2.15461C21.1603 1.73391 20.9932 1.33044 20.6957 1.03296C20.3983 0.735482 19.9948 0.568359 19.5741 0.568359ZM6.48753 9.6893C6.25223 9.6893 6.02222 9.61952 5.82657 9.4888C5.63093 9.35807 5.47844 9.17227 5.3884 8.95488C5.29836 8.7375 5.2748 8.49829 5.3207 8.26751C5.3666 8.03674 5.47991 7.82475 5.64629 7.65837C5.81267 7.49199 6.02465 7.37869 6.25543 7.33278C6.48621 7.28688 6.72541 7.31044 6.9428 7.40048C7.16019 7.49053 7.34599 7.64301 7.47672 7.83865C7.60744 8.0343 7.67722 8.26431 7.67722 8.49961C7.67722 8.81513 7.55187 9.11773 7.32876 9.34084C7.10565 9.56395 6.80305 9.6893 6.48753 9.6893ZM10.8497 9.6893C10.6144 9.6893 10.3844 9.61952 10.1888 9.4888C9.99312 9.35807 9.84063 9.17227 9.75059 8.95488C9.66054 8.7375 9.63698 8.49829 9.68289 8.26751C9.72879 8.03674 9.8421 7.82475 10.0085 7.65837C10.1749 7.49199 10.3868 7.37869 10.6176 7.33278C10.8484 7.28688 11.0876 7.31044 11.305 7.40048C11.5224 7.49053 11.7082 7.64301 11.8389 7.83865C11.9696 8.0343 12.0394 8.26431 12.0394 8.49961C12.0394 8.81513 11.9141 9.11773 11.691 9.34084C11.4678 9.56395 11.1652 9.6893 10.8497 9.6893ZM15.2119 9.6893C14.9766 9.6893 14.7466 9.61952 14.5509 9.4888C14.3553 9.35807 14.2028 9.17227 14.1128 8.95488C14.0227 8.7375 13.9992 8.49829 14.0451 8.26751C14.091 8.03674 14.2043 7.82475 14.3707 7.65837C14.537 7.49199 14.749 7.37869 14.9798 7.33278C15.2106 7.28688 15.4498 7.31044 15.6672 7.40048C15.8846 7.49053 16.0704 7.64301 16.2011 7.83865C16.3318 8.0343 16.4016 8.26431 16.4016 8.49961C16.4016 8.81513 16.2762 9.11773 16.0531 9.34084C15.83 9.56395 15.5274 9.6893 15.2119 9.6893Z" fill="#F172AD"/>
</svg>
