<svg width="10" height="15" viewBox="0 0 10 15" fill="none" xmlns="http://www.w3.org/2000/svg">
<path d="M8.40568 3.04125C8.24936 3.04125 8.09939 3.06864 7.96002 3.11859V2.62148C7.96002 1.89117 7.36585 1.29694 6.63548 1.29686C6.47915 1.29686 6.32915 1.32428 6.18979 1.37423V1.3246C6.18967 0.594287 5.59547 8.78906e-05 4.86516 0C4.20393 0 3.65435 0.487031 3.5562 1.12119C3.41247 1.06761 3.25708 1.03816 3.09492 1.03813C2.36452 1.03813 1.77032 1.63236 1.77032 2.36276L1.77026 6.70178L1.156 6.70222C0.518584 6.70269 3.5061e-09 7.22162 3.5061e-09 7.85903V9.73626C-2.92934e-05 10.4996 0.183545 11.2617 0.530889 11.9402C0.832559 12.5295 1.25848 13.0591 1.77018 13.4833V15H7.95999V13.4832C8.47169 13.059 8.89761 12.5293 9.19925 11.9401C9.54656 11.2616 9.73014 10.4996 9.73011 9.73632L9.7302 4.36582C9.73025 3.63545 9.13606 3.04125 8.40568 3.04125ZM8.85123 9.73632C8.85126 10.9947 8.2698 12.1551 7.2559 12.9199L7.08108 13.0517V14.1211H2.64911V13.0518L2.4743 12.9199C1.46036 12.1551 0.878877 10.9947 0.878936 9.73629V7.85906C0.878936 7.70593 1.00351 7.58127 1.15664 7.58115L1.77026 7.58071L1.77029 9.26358H2.6492L2.64923 2.36279C2.64923 2.11702 2.84918 1.91707 3.09486 1.91707C3.34063 1.9171 3.54056 2.11705 3.54056 2.36279V7.93942H4.41946V1.32463C4.41946 1.07886 4.61941 0.878906 4.8651 0.878906C5.11087 0.878936 5.31082 1.07892 5.31085 1.32463L5.31079 7.93939H5.31085H6.1897H6.18976V2.62148C6.18976 2.37571 6.38971 2.17576 6.63539 2.17576C6.88116 2.17579 7.08108 2.37574 7.08108 2.62148V7.93939H7.95999V4.36579C7.95999 4.12005 8.15991 3.92016 8.40565 3.92016C8.6514 3.92016 8.85132 4.12008 8.85132 4.36582L8.85123 9.73632Z" fill="#EC897E"/>
</svg>
