<svg width="33" height="33" viewBox="0 0 33 33" fill="none" xmlns="http://www.w3.org/2000/svg">
<path d="M14.3323 3.4616C13.4993 3.75666 13.1463 4.12692 12.2843 5.6369C11.9372 6.25015 11.619 6.75926 11.5843 6.77083C11.5554 6.78819 10.9421 6.64356 10.2305 6.44685C9.10816 6.14602 8.86517 6.09973 8.4197 6.09973C7.58082 6.09973 6.89815 6.40057 6.34275 7.01961C5.94935 7.45351 5.81628 7.78906 5.40552 9.32797L5.04105 10.6991L4.23688 10.7338C3.69305 10.757 3.34593 10.7975 3.17237 10.8669C2.37978 11.1677 1.70289 11.8909 1.47147 12.6893C1.39048 12.9728 1.37891 13.7827 1.37891 19.9904C1.37891 26.6841 1.38469 26.9907 1.48883 27.3263C1.75496 28.1767 2.48391 28.8999 3.34015 29.1486C3.62363 29.2296 4.91955 29.2412 16.1895 29.2412C27.4594 29.2412 28.7553 29.2296 29.0388 29.1486C29.895 28.8999 30.624 28.1767 30.8901 27.3263C30.9942 26.9907 31 26.6841 31 19.9846C31 13.2852 30.9942 12.9785 30.8901 12.643C30.676 11.9487 30.0975 11.2892 29.4495 10.9884C29.2702 10.9016 29.0561 10.7975 28.9751 10.757C28.8941 10.7165 26.0535 9.0792 22.6575 7.11796C19.1168 5.07572 16.3399 3.50789 16.1374 3.43846C15.6341 3.27069 14.8472 3.27647 14.3323 3.4616ZM19.7359 7.656C22.0153 8.97506 23.8782 10.0627 23.8609 10.0743C23.8435 10.0916 13.8232 7.43037 13.6034 7.34937C13.5629 7.33202 13.7191 7.00225 14.0315 6.46421C14.5927 5.48648 14.5985 5.4807 14.8299 5.33606C14.9514 5.26085 15.0844 5.23193 15.2927 5.2435C15.5588 5.26085 15.9523 5.47491 19.7359 7.656ZM11.4454 8.761C12.9901 9.17176 15.2522 9.77923 16.4729 10.1032L18.6887 10.6991L12.886 10.7165C9.69827 10.7222 7.0775 10.7165 7.06014 10.6991C7.01386 10.6528 7.58082 8.59901 7.69653 8.41388C7.84116 8.17668 8.13043 8.0089 8.40813 8.0089C8.53541 8.0089 9.90076 8.34446 11.4454 8.761ZM28.3619 12.6372C28.6454 12.7008 28.8536 12.8513 29.004 13.1058C29.1198 13.2967 29.1198 13.4067 29.1198 19.9846C29.1198 26.5626 29.1198 26.6725 29.004 26.8634C28.8536 27.118 28.6454 27.2684 28.3619 27.332C28.061 27.4072 4.31787 27.4072 4.01703 27.332C3.73355 27.2684 3.52528 27.118 3.37486 26.8634C3.25915 26.6725 3.25915 26.5626 3.25915 19.9846C3.25915 13.4067 3.25915 13.2967 3.37486 13.1058C3.51949 12.8628 3.73355 12.6951 3.98811 12.6372C4.26581 12.5736 28.0842 12.5678 28.3619 12.6372Z" fill="#EF8B7F"/>
<path d="M15.177 16.3916C13.9274 16.7503 12.8976 17.7974 12.5794 19.0355C12.4579 19.5041 12.4579 20.4645 12.5794 20.9331C12.9092 22.2059 14.0142 23.3051 15.2696 23.6002C15.744 23.7101 16.6349 23.7101 17.1093 23.6002C18.0697 23.3745 19.0127 22.634 19.4698 21.7489C19.788 21.1298 19.8921 20.7017 19.8921 19.9843C19.8921 19.2669 19.788 18.8388 19.4698 18.2198C19.0185 17.3462 18.1044 16.623 17.1383 16.3742C16.6523 16.247 15.6399 16.2585 15.177 16.3916ZM16.9879 18.3586C17.3003 18.5206 17.6532 18.8677 17.8209 19.1859C17.9309 19.3942 17.954 19.5215 17.954 19.9843C17.954 20.6149 17.8557 20.8637 17.4623 21.2571C17.0688 21.6505 16.8201 21.7489 16.1895 21.7489C15.7266 21.7489 15.5994 21.7257 15.3911 21.6158C15.0729 21.4422 14.7258 21.0951 14.5638 20.7827C14.4076 20.4819 14.3555 19.8339 14.4481 19.481C14.5869 18.9603 15.1192 18.4049 15.6341 18.2487C15.9465 18.1504 16.7102 18.214 16.9879 18.3586Z" fill="#EF8B7F"/>
<path d="M6.6442 19.065C6.26815 19.146 6.00781 19.5278 6.00781 20.0022C6.00781 20.3725 6.15823 20.6386 6.47064 20.818C6.66156 20.9337 6.75991 20.9395 8.36246 20.9395C9.98236 20.9395 10.0576 20.9337 10.2138 20.818C10.3006 20.7543 10.4394 20.6097 10.5088 20.4998C10.6245 20.3378 10.6419 20.2452 10.6245 19.9559C10.6014 19.5394 10.4741 19.3427 10.1444 19.1807C9.93608 19.0766 9.7683 19.065 8.36824 19.0476C7.51779 19.0361 6.74255 19.0476 6.6442 19.065Z" fill="#EF8B7F"/>
<path d="M22.1607 19.1749C21.8772 19.3485 21.7441 19.6088 21.7441 19.9907C21.7441 20.3725 21.8888 20.6328 22.207 20.818C22.3979 20.9337 22.4962 20.9395 24.0988 20.9395C25.7187 20.9395 25.7939 20.9337 25.9501 20.818C26.0369 20.7543 26.1757 20.6097 26.2452 20.4998C26.3609 20.3378 26.3782 20.2452 26.3609 19.9559C26.3377 19.5394 26.2104 19.3427 25.8749 19.1749C25.6551 19.065 25.5278 19.0592 23.9946 19.0592C22.4557 19.0592 22.34 19.065 22.1607 19.1749Z" fill="#EF8B7F"/>
</svg>
