<svg width="21" height="19" viewBox="0 0 21 19" fill="none" xmlns="http://www.w3.org/2000/svg">
<path d="M20.227 18.4459C20.1612 18.5599 20.0665 18.6546 19.9525 18.7205C19.8384 18.7863 19.709 18.8209 19.5774 18.8209H1.57736C1.44577 18.8208 1.31653 18.786 1.20263 18.7201C1.08872 18.6543 0.994149 18.5596 0.928414 18.4456C0.862678 18.3316 0.828091 18.2023 0.828125 18.0707C0.828159 17.9391 0.862812 17.8099 0.928606 17.6959C2.35642 15.2275 4.55673 13.4575 7.12454 12.6184C5.85439 11.8623 4.86756 10.7101 4.31559 9.33884C3.76363 7.96758 3.67706 6.45304 4.06918 5.02781C4.46129 3.60258 5.31041 2.34547 6.48613 1.44953C7.66185 0.553587 9.09917 0.0683594 10.5774 0.0683594C12.0555 0.0683594 13.4929 0.553587 14.6686 1.44953C15.8443 2.34547 16.6934 3.60258 17.0855 5.02781C17.4777 6.45304 17.3911 7.96758 16.8391 9.33884C16.2872 10.7101 15.3003 11.8623 14.0302 12.6184C16.598 13.4575 18.7983 15.2275 20.2261 17.6959C20.2921 17.8098 20.3269 17.9391 20.3271 18.0708C20.3272 18.2024 20.2927 18.3318 20.227 18.4459Z" fill="#F172AD"/>
</svg>
