<svg width="36" height="38" viewBox="0 0 36 38" fill="none" xmlns="http://www.w3.org/2000/svg">
<path d="M33 0H3C2.20435 0 1.44129 0.320284 0.87868 0.890393C0.31607 1.4605 0 2.23374 0 3.03999V13.68C0 23.6967 4.785 29.7672 8.79938 33.096C13.1231 36.6794 17.4244 37.8954 17.6119 37.9467C17.8697 38.0178 18.1416 38.0178 18.3994 37.9467C18.5869 37.8954 22.8825 36.6794 27.2119 33.096C31.215 29.7672 36 23.6967 36 13.68V3.03999C36 2.23374 35.6839 1.4605 35.1213 0.890393C34.5587 0.320284 33.7957 0 33 0ZM26.565 13.2354L16.065 23.8753C15.9257 24.0167 15.7603 24.1288 15.5782 24.2053C15.3961 24.2818 15.2009 24.3211 15.0037 24.3211C14.8066 24.3211 14.6114 24.2818 14.4293 24.2053C14.2472 24.1288 14.0818 24.0167 13.9425 23.8753L9.4425 19.3153C9.16104 19.0301 9.00292 18.6433 9.00292 18.24C9.00292 17.8366 9.16104 17.4498 9.4425 17.1646C9.72396 16.8793 10.1057 16.7191 10.5037 16.7191C10.9018 16.7191 11.2835 16.8793 11.565 17.1646L15 20.651L24.4387 11.0846C24.5781 10.9433 24.7436 10.8313 24.9257 10.7549C25.1077 10.6785 25.3029 10.6391 25.5 10.6391C25.6971 10.6391 25.8923 10.6785 26.0743 10.7549C26.2564 10.8313 26.4219 10.9433 26.5613 11.0846C26.7006 11.2258 26.8112 11.3934 26.8866 11.578C26.962 11.7625 27.0008 11.9602 27.0008 12.16C27.0008 12.3597 26.962 12.5575 26.8866 12.742C26.8112 12.9265 26.7006 13.0941 26.5613 13.2354H26.565Z" fill="#F172AD"/>
</svg>
