<svg width="35" height="35" viewBox="0 0 35 35" fill="none" xmlns="http://www.w3.org/2000/svg">
<path d="M16.8496 2.11455C16.2453 2.28057 15.9398 2.51299 14.6781 3.75478L13.4695 4.9501L11.8957 4.69775C10.0496 4.40557 9.61133 4.40557 8.96719 4.69775C8.46914 4.91689 7.94453 5.4415 7.71875 5.93955C7.6125 6.18525 7.48633 6.76963 7.31367 7.85205C7.18086 8.70869 7.04141 9.479 7.01484 9.55869C6.975 9.6583 6.53672 9.91728 5.48086 10.4485C3.83398 11.2853 3.49531 11.5376 3.15 12.2017C2.95078 12.5802 2.9375 12.6399 2.9375 13.3372V14.081L3.73438 15.6813L4.52461 17.2817L3.73438 18.8821L2.9375 20.4825V21.2263C2.9375 21.9368 2.94414 21.9767 3.16328 22.3751C3.52852 23.0524 3.83398 23.2849 5.48086 24.1149C6.53672 24.6462 6.975 24.9052 7.01484 25.0048C7.04141 25.0845 7.18086 25.8548 7.31367 26.7114C7.48633 27.7938 7.6125 28.3782 7.71875 28.6239C7.94453 29.122 8.46914 29.6466 8.96719 29.8657C9.61133 30.1579 10.0496 30.1579 11.8957 29.8657L13.4695 29.6134L14.7113 30.8419C16.0527 32.17 16.3316 32.356 17.102 32.5021C17.4141 32.5618 17.6133 32.5618 17.9254 32.5021C18.6957 32.356 18.9746 32.17 20.316 30.8419L21.5578 29.6134L23.1383 29.8657C24.9844 30.1579 25.416 30.1579 26.0602 29.8657C26.5582 29.6466 27.0828 29.122 27.3086 28.6239C27.4148 28.3782 27.541 27.7938 27.7137 26.7114C27.8465 25.8548 27.9859 25.0845 28.0125 25.0048C28.0523 24.9052 28.4906 24.6462 29.5465 24.1149C31.1934 23.2849 31.4988 23.0524 31.8641 22.3751C32.0832 21.9767 32.0898 21.9368 32.0898 21.2263V20.4825L31.293 18.8821L30.5027 17.2817L31.293 15.6813L32.0898 14.081V13.3372C32.0898 12.6399 32.0766 12.5802 31.8773 12.2017C31.532 11.5376 31.1934 11.2853 29.5465 10.4485C28.4906 9.91728 28.0523 9.6583 28.0125 9.55869C27.9859 9.479 27.8465 8.70869 27.7137 7.85205C27.541 6.76963 27.4148 6.18525 27.3086 5.93955C27.0828 5.4415 26.5582 4.91689 26.0602 4.69775C25.416 4.40557 24.9844 4.40557 23.1383 4.69775L21.5578 4.9501L20.316 3.72158C19.041 2.45986 18.7953 2.28057 18.1313 2.10791C17.6664 1.98838 17.3277 1.98838 16.8496 2.11455ZM18.8352 5.41494C20.7078 7.26103 20.834 7.30088 23.3309 6.8958C24.1344 6.76299 24.8715 6.65674 24.9645 6.65674C25.2699 6.65674 25.323 6.80947 25.582 8.44971C25.8477 10.1431 25.9605 10.5349 26.3191 10.9997C26.6246 11.4048 26.9035 11.5841 28.2648 12.2614C29.7855 13.0251 29.9316 13.1181 29.9316 13.3438C29.9316 13.4368 29.6195 14.1208 29.241 14.8579C28.484 16.3188 28.3379 16.7173 28.3379 17.2817C28.3379 17.8462 28.484 18.2446 29.241 19.7056C29.6195 20.4427 29.9316 21.1267 29.9316 21.2196C29.9316 21.4454 29.7855 21.5384 28.2648 22.3021C26.9035 22.9794 26.6246 23.1587 26.3191 23.5638C25.9605 24.0286 25.8477 24.4204 25.582 26.1138C25.323 27.754 25.2699 27.9067 24.9645 27.9067C24.8715 27.9067 24.1344 27.8005 23.3309 27.6677C20.834 27.2626 20.7078 27.3024 18.8352 29.1485C18.1578 29.8192 17.5602 30.3638 17.5137 30.3638C17.4672 30.3638 16.8695 29.8192 16.1922 29.1485C14.3195 27.3024 14.1934 27.2626 11.6965 27.6677C10.893 27.8005 10.1559 27.9067 10.0629 27.9067C9.75742 27.9067 9.7043 27.754 9.44531 26.1138C9.17969 24.4204 9.0668 24.0286 8.7082 23.5638C8.40273 23.1653 8.13711 22.986 6.72266 22.2755C5.15547 21.4786 5.0957 21.4454 5.0957 21.2263C5.0957 21.1267 5.40781 20.4427 5.78633 19.7122C6.53672 18.2579 6.68945 17.8528 6.68945 17.2817C6.68945 16.7106 6.53672 16.3056 5.78633 14.8513C5.40781 14.1208 5.0957 13.4368 5.0957 13.3372C5.0957 13.1181 5.15547 13.0849 6.72266 12.288C8.13711 11.5774 8.40273 11.3981 8.7082 10.9997C9.0668 10.5349 9.17969 10.1431 9.44531 8.44971C9.7043 6.80947 9.75742 6.65674 10.0629 6.65674C10.1559 6.65674 10.893 6.76299 11.6965 6.8958C14.1934 7.30088 14.3262 7.25439 16.1855 5.41494C16.8629 4.75088 17.4539 4.19971 17.507 4.19971C17.5602 4.19971 18.1578 4.74424 18.8352 5.41494Z" fill="#F38D81"/>
<path d="M21.998 12.9725C21.9249 13.0124 20.5105 14.3936 18.8636 16.0471L15.8554 19.0421L14.514 17.7007C13.7703 16.9702 13.0996 16.3327 13.0199 16.2929C12.7742 16.1667 12.2097 16.2065 11.9574 16.3593C11.5124 16.6382 11.3464 17.3022 11.5988 17.8003C11.7648 18.119 15.1648 21.4991 15.4105 21.5921C15.6695 21.6917 16.0878 21.685 16.3402 21.5721C16.6124 21.4526 23.3925 14.6593 23.4855 14.4069C23.6781 13.8956 23.4722 13.2913 23.0273 13.0389C22.755 12.8862 22.2238 12.853 21.998 12.9725Z" fill="#F38D81"/>
</svg>
