<svg width="35" height="35" viewBox="0 0 35 35" fill="none" xmlns="http://www.w3.org/2000/svg">
<path d="M15.7593 6.19268C11.2901 7.9126 8.66708 8.96182 8.56083 9.05478C8.03622 9.53955 8.13583 10.4626 8.74012 10.7813C8.95926 10.9009 9.3245 10.9075 17.6054 10.9075C22.546 10.9075 26.3511 10.9341 26.4972 10.9739C26.8225 11.047 27.0616 11.2196 27.2276 11.5052C27.3339 11.6778 27.3671 11.9036 27.3936 12.6009C27.4401 13.5638 27.4999 13.7298 27.885 13.9622C28.1772 14.1415 28.755 14.1415 29.0472 13.9622C29.4655 13.7032 29.5253 13.5173 29.5253 12.3817C29.5253 11.5317 29.5054 11.2993 29.3858 10.954C28.9608 9.67236 27.7722 8.78252 26.4905 8.78252H26.0389L25.1093 6.45166C24.5979 5.17002 24.1265 4.03447 24.0667 3.92822C23.8807 3.62275 23.5686 3.47002 23.1503 3.47666C22.8382 3.4833 21.8155 3.85518 15.7593 6.19268ZM23.0972 7.37471C23.3893 8.11846 23.6151 8.73603 23.6018 8.75596C23.5819 8.76924 21.7026 8.77588 19.4116 8.76924L15.2612 8.74932L18.8206 7.37471C20.7796 6.61767 22.4265 6.00674 22.4796 6.01338C22.5327 6.02002 22.7917 6.58447 23.0972 7.37471Z" fill="#F38D81"/>
<path d="M8.00977 4.67154C6.11719 5.16294 4.64297 6.65044 4.1582 8.54302C4.02539 9.06099 4.02539 9.25356 4.02539 17.8133C4.02539 26.3731 4.02539 26.5657 4.1582 27.0836C4.64961 28.9961 6.13711 30.477 8.04961 30.9618C8.56758 31.0946 8.73359 31.0946 17.8777 31.0813L27.1813 31.0614L27.7457 30.7825C28.609 30.3508 29.1469 29.7067 29.4324 28.777C29.4988 28.5579 29.5254 27.9934 29.5254 26.5989V24.7196H30.2426C31.0461 24.7196 31.2785 24.6333 31.5176 24.2415C31.6438 24.029 31.6504 23.8961 31.6504 20.4696C31.6504 17.043 31.6438 16.9102 31.5176 16.6977C31.4445 16.5782 31.2918 16.4254 31.1723 16.3524C30.9598 16.2262 30.827 16.2196 26.7363 16.2196C22.1277 16.2196 22.068 16.2262 21.3043 16.6114C20.1688 17.1825 19.3055 18.225 19.0066 19.3872C18.8738 19.8985 18.8672 20.9676 19 21.5188C19.2723 22.6676 20.1488 23.75 21.2711 24.3145C22.0215 24.693 22.2672 24.7196 24.9633 24.7196H27.407L27.3871 26.4262C27.3672 28.0133 27.3539 28.1594 27.2277 28.3719C27.0418 28.6907 26.7297 28.8899 26.318 28.9364C26.1254 28.9563 22.1211 28.9696 17.4062 28.9563C8.84648 28.9364 8.83984 28.9364 8.42812 28.7969C7.39883 28.4383 6.61523 27.6415 6.30313 26.6122C6.19023 26.2336 6.18359 25.7622 6.18359 17.8133C6.18359 9.8645 6.19023 9.39302 6.30313 9.0145C6.62188 7.97857 7.41211 7.16841 8.42812 6.84302C8.77344 6.73013 9.07891 6.70357 10.3473 6.67036C11.6621 6.6438 11.8813 6.62388 12.0605 6.51763C12.366 6.32505 12.5254 6.01958 12.5254 5.59458C12.5254 5.16294 12.366 4.86411 12.0473 4.66489C11.8414 4.53872 11.7086 4.53208 10.168 4.53872C8.74023 4.53872 8.44141 4.55865 8.00977 4.67154ZM29.5254 20.4696V22.5946H26.4242C23.2102 22.5946 22.6723 22.5614 22.2074 22.3223C21.8754 22.1497 21.4703 21.7446 21.2777 21.386C21.1516 21.1469 21.125 21.0008 21.125 20.4696C21.125 19.9383 21.1516 19.7922 21.2777 19.5532C21.5965 18.9489 22.1809 18.5305 22.8316 18.4176C23.0242 18.3844 24.6113 18.3579 26.3578 18.3512L29.5254 18.3446V20.4696Z" fill="#F38D81"/>
</svg>
