<svg width="29" height="35" viewBox="0 0 29 35" fill="none" xmlns="http://www.w3.org/2000/svg">
<g clip-path="url(#clip0_2489_7974)">
<path d="M6.90705 2.35624C6.53423 2.59825 5.37653 3.67092 4.8402 4.26612C2.60328 6.75158 1.19704 9.70797 0.660701 13.0437C0.569131 13.6324 0.542969 14.1556 0.542969 15.6142C0.542969 17.6156 0.621457 18.2501 1.03352 19.8722C1.61564 22.1156 2.84529 24.5161 4.35619 26.3148C4.97101 27.0473 6.39688 28.4339 6.8351 28.7217C7.55458 29.1992 8.42449 28.761 8.42449 27.9303C8.42449 27.4855 8.30676 27.3024 7.71809 26.8118C4.98409 24.5291 3.10692 21.0757 2.63599 17.4587C2.52479 16.5626 2.50517 14.8097 2.60982 13.894C3.00881 10.2508 4.79441 6.89547 7.67231 4.37731C8.346 3.78211 8.42449 3.66438 8.42449 3.22615C8.42449 2.82717 8.26751 2.5263 7.9601 2.34316C7.71809 2.19926 7.13597 2.2058 6.90705 2.35624Z" fill="#F38D81"/>
<path d="M26.5372 2.34348C26.2429 2.53316 26.0859 2.83403 26.0859 3.22647C26.0859 3.66469 26.1644 3.78243 26.8381 4.37763C29.3497 6.5753 31.0176 9.37471 31.6717 12.4881C32.1034 14.5615 32.0772 16.9292 31.5997 18.9503C30.8803 21.9917 29.1208 24.863 26.7923 26.8122C26.2037 27.2962 26.0859 27.4859 26.0859 27.911C26.0859 28.5912 26.6157 29.0229 27.296 28.8986C27.7276 28.8136 29.4217 27.2438 30.4028 26.0142C31.7894 24.2678 32.9275 21.9917 33.4769 19.8725C33.889 18.2504 33.9675 17.616 33.9675 15.6145C33.9675 14.1559 33.9413 13.6327 33.8497 13.044C33.3134 9.70828 31.9071 6.75844 29.6702 4.26644C29.1339 3.67124 27.9827 2.6051 27.6034 2.35656C27.3745 2.20612 26.7727 2.19958 26.5372 2.34348Z" fill="#F38D81"/>
<path d="M10.4202 6.34035C10.1193 6.41884 8.93542 7.50459 8.25519 8.32217C7.21522 9.57798 6.31915 11.4813 5.93979 13.2604C5.73703 14.2088 5.6847 16.256 5.84168 17.2502C6.24066 19.7945 7.28063 21.8745 9.04661 23.6666C10.0212 24.6543 10.2436 24.8047 10.7079 24.8047C11.3424 24.8047 11.6956 24.4515 11.6956 23.8236C11.6956 23.3854 11.6171 23.2545 10.9957 22.7051C8.90926 20.8541 7.77118 18.336 7.77118 15.5823C7.77118 14.2219 7.99356 13.0707 8.48411 11.9195C9.02045 10.6637 9.63527 9.78075 10.7145 8.71461C11.1723 8.26331 11.5779 7.83162 11.6236 7.75314C11.7283 7.55037 11.7152 7.0402 11.5975 6.81782C11.4078 6.45154 10.8453 6.22262 10.4202 6.34035Z" fill="#F38D81"/>
<path d="M23.4993 6.34035C23.2834 6.39921 23.0153 6.6216 22.9106 6.81782C22.7929 7.0402 22.7798 7.55037 22.8844 7.75313C22.9302 7.83162 23.3358 8.26331 23.7936 8.71461C24.8794 9.78729 25.4942 10.6703 26.024 11.9195C26.5145 13.0707 26.7369 14.2219 26.7369 15.5823C26.7369 18.336 25.5988 20.8541 23.5124 22.7051C22.891 23.2545 22.8125 23.3854 22.8125 23.8236C22.8125 24.4515 23.1657 24.8047 23.8001 24.8047C24.2645 24.8047 24.4869 24.6543 25.4615 23.6666C27.2275 21.8745 28.2674 19.7945 28.6664 17.2502C28.8234 16.256 28.7711 14.2088 28.5683 13.2604C28.1889 11.4813 27.2929 9.57798 26.2529 8.32217C25.867 7.85778 24.9055 6.89631 24.5392 6.61506C24.2057 6.35997 23.8132 6.25532 23.4993 6.34035Z" fill="#F38D81"/>
<path d="M16.0139 10.8073C15.7457 10.8793 15.2748 11.0624 14.9673 11.2129C14.516 11.4352 14.2937 11.6053 13.79 12.1155C13.2799 12.6191 13.1098 12.8415 12.8874 13.2928C12.4623 14.1496 12.3315 14.771 12.3642 15.7717C12.4165 17.1714 12.8089 18.0675 13.79 19.0486C14.431 19.6896 14.9739 20.0297 15.7391 20.2652L16.2755 20.4352V26.0733C16.2755 31.4824 16.282 31.7113 16.3998 31.8945C16.6025 32.1954 16.8511 32.3262 17.2566 32.3262C17.6621 32.3262 17.9107 32.1954 18.1134 31.8945C18.2311 31.7113 18.2377 31.4824 18.2377 26.0733V20.4352L18.7806 20.2652C19.5393 20.0297 20.0822 19.6896 20.7231 19.0486C21.7042 18.0675 22.0967 17.1714 22.149 15.7717C22.1817 14.771 22.0509 14.1496 21.6258 13.2928C21.4034 12.8415 21.2333 12.6191 20.7231 12.1155C20.2195 11.6053 19.9971 11.4352 19.5458 11.2129C19.2384 11.0624 18.7544 10.8793 18.4732 10.8073C17.7798 10.6307 16.6941 10.6373 16.0139 10.8073ZM18.3227 12.8938C19.0291 13.1751 19.6636 13.803 19.9513 14.5224C20.1672 15.0588 20.1672 16.1053 19.9513 16.6482C19.6636 17.3611 19.0357 17.989 18.3162 18.2768C17.7798 18.4926 16.7333 18.4926 16.197 18.2768C15.4775 17.989 14.8496 17.3546 14.5684 16.6482C14.3656 16.1314 14.3264 15.2615 14.4768 14.7841C14.7973 13.8226 15.3729 13.2078 16.2886 12.8611C16.838 12.6518 17.7471 12.6649 18.3227 12.8938Z" fill="#F38D81"/>
</g>
<defs>
<clipPath id="clip0_2489_7974">
<rect width="33.4883" height="33.4883" fill="white" transform="translate(0.511719 0.538086)"/>
</clipPath>
</defs>
</svg>
