<svg width="14" height="15" viewBox="0 0 14 15" fill="none" xmlns="http://www.w3.org/2000/svg">
<path fill-rule="evenodd" clip-rule="evenodd" d="M9.04673 14.519H5.13325C4.53772 14.519 4.08398 14.0652 4.08398 13.4697V6.57856C4.08398 5.98303 4.53772 5.5293 5.13325 5.5293H9.04673C9.64226 5.5293 10.096 5.98303 10.096 6.57856V13.4697C10.096 14.0652 9.64226 14.519 9.04673 14.519ZM5.13325 5.92632C4.73623 5.92632 4.481 6.2099 4.481 6.57856V13.4697C4.481 13.8383 4.73623 14.1219 5.13325 14.1219H9.04673C9.44375 14.1219 9.69897 13.8383 9.69897 13.4697V6.57856C9.69897 6.2099 9.44375 5.92632 9.07509 5.92632H5.13325Z" fill="#EC897E"/>
<path fill-rule="evenodd" clip-rule="evenodd" d="M8.7345 5.92752H5.44491C5.18968 5.92752 5.01953 5.72901 5.01953 5.47378V4.3678C5.01953 4.11257 5.18968 3.91406 5.44491 3.91406H8.7345C8.98973 3.91406 9.15988 4.11257 9.15988 4.3678V5.47378C9.15988 5.72901 8.98973 5.92752 8.7345 5.92752ZM5.44491 4.31108C5.41655 4.31108 5.38819 4.33944 5.38819 4.3678V5.47378C5.38819 5.50214 5.41655 5.5305 5.44491 5.5305H8.7345C8.76286 5.5305 8.76286 5.50214 8.76286 5.47378V4.3678C8.76286 4.33944 8.76286 4.31108 8.7345 4.31108H5.44491Z" fill="#EC897E"/>
<path fill-rule="evenodd" clip-rule="evenodd" d="M7.88361 4.31064H6.32389C6.04031 4.31064 5.8418 4.11213 5.8418 3.8569V2.55241C5.8418 2.29718 6.04031 2.07031 6.32389 2.07031H7.88361C8.13884 2.07031 8.33735 2.29718 8.33735 2.55241V3.8569C8.33735 4.11213 8.13884 4.31064 7.88361 4.31064ZM6.32389 2.46733C6.26717 2.46733 6.23882 2.49569 6.23882 2.55241V3.8569C6.23882 3.88526 6.26717 3.91362 6.32389 3.91362H7.88361C7.91197 3.91362 7.96869 3.88526 7.96869 3.8569V2.55241C7.96869 2.49569 7.91197 2.46733 7.88361 2.46733H6.32389Z" fill="#EC897E"/>
<path fill-rule="evenodd" clip-rule="evenodd" d="M7.99739 12.5625H6.18244C5.84214 12.5625 5.58691 12.3073 5.58691 11.967V8.79084C5.58691 8.45054 5.84214 8.19531 6.18244 8.19531H7.99739C8.33769 8.19531 8.59292 8.45054 8.59292 8.79084V11.967C8.59292 12.3073 8.33769 12.5625 7.99739 12.5625ZM6.18244 8.59233C6.04065 8.59233 5.98393 8.67741 5.98393 8.79084V11.967C5.98393 12.0804 6.04065 12.1655 6.18244 12.1655H7.99739C8.13918 12.1655 8.22426 12.0804 8.22426 11.967V8.79084C8.22426 8.67741 8.13918 8.59233 7.99739 8.59233H6.18244Z" fill="#EC897E"/>
<path fill-rule="evenodd" clip-rule="evenodd" d="M7.45838 2.46719C7.34495 2.46719 7.23151 2.38212 7.23151 2.26868V0.397019H5.16134C4.96283 0.397019 4.79268 0.510454 4.7076 0.680605H6.77778C6.86285 0.680605 6.97629 0.76568 6.97629 0.879114V2.26868C6.97629 2.38212 6.86285 2.46719 6.77778 2.46719C6.66434 2.46719 6.55091 2.38212 6.55091 2.26868V1.07762H4.48074C4.3673 1.07762 4.28223 0.992549 4.28223 0.879114C4.28223 0.397019 4.67925 0 5.16134 0H7.45838C7.54346 0 7.65689 0.0850756 7.65689 0.19851V2.26868C7.62853 2.38212 7.54346 2.46719 7.45838 2.46719Z" fill="#EC897E"/>
<path d="M4.14023 1.90035C3.79993 2.49588 3.74321 2.92126 3.82829 3.17648C3.88501 3.31828 4.0268 3.40335 4.14023 3.40335C4.22531 3.40335 4.3671 3.31828 4.42382 3.17648C4.50889 2.92126 4.45218 2.49588 4.14023 1.90035ZM3.45963 3.28992C3.31783 2.92126 3.40291 2.29737 3.97008 1.41826C3.97008 1.3899 3.99844 1.3899 4.0268 1.36154C4.11187 1.30482 4.22531 1.33318 4.28203 1.41826C4.8492 2.29737 4.93427 2.92126 4.79248 3.28992C4.65069 3.63022 4.39546 3.80037 4.14023 3.80037C3.85665 3.80037 3.60142 3.63022 3.45963 3.28992Z" fill="#EC897E"/>
<path d="M2.94931 4.16988C2.60901 4.76541 2.55229 5.19079 2.63737 5.44602C2.69409 5.58781 2.83588 5.67288 2.94931 5.67288C3.03439 5.67288 3.17618 5.58781 3.2329 5.44602C3.31798 5.19079 3.26126 4.76541 2.94931 4.16988ZM2.26871 5.55945C2.12692 5.19079 2.21199 4.5669 2.77916 3.68779C2.77916 3.65943 2.80752 3.65943 2.83588 3.63107C2.92096 3.57435 3.03439 3.60271 3.09111 3.68779C3.65828 4.5669 3.74335 5.19079 3.60156 5.55945C3.45977 5.89975 3.20454 6.0699 2.94931 6.0699C2.66573 6.0699 2.4105 5.89975 2.26871 5.55945Z" fill="#EC897E"/>
<path fill-rule="evenodd" clip-rule="evenodd" d="M11.3436 4.50997C11.1451 4.50997 10.9183 4.42489 10.7481 4.2831C10.663 4.31146 10.578 4.31146 10.4929 4.31146C9.98244 4.31146 9.5287 3.88608 9.5287 3.37562C9.5287 3.29055 9.55706 3.20547 9.58542 3.09204C9.38691 2.92189 9.24512 2.66666 9.24512 2.41143C9.24512 2.01442 9.5287 1.67411 9.89736 1.53232C9.95408 1.07858 10.3511 0.738281 10.8332 0.738281C11.0884 0.738281 11.3436 0.851715 11.5422 1.07858C11.6556 0.993508 11.8257 0.965149 11.9959 0.965149C12.478 0.965149 12.9034 1.36217 12.9034 1.87262C12.9034 1.98606 12.875 2.09949 12.8467 2.18457C13.0168 2.35472 13.1302 2.60994 13.1302 2.86517C13.1302 3.34727 12.7616 3.74429 12.2795 3.77264C12.1944 4.19802 11.8257 4.50997 11.3436 4.50997ZM10.7765 3.82936C10.8332 3.82936 10.9183 3.85772 10.9466 3.91444C11.0601 4.02787 11.2019 4.11295 11.3436 4.11295C11.6556 4.11295 11.8825 3.88608 11.8825 3.57413C11.8825 3.4607 11.9959 3.37562 12.1093 3.37562H12.1944C12.5063 3.37562 12.7049 3.14876 12.7049 2.86517C12.7049 2.66666 12.6481 2.49651 12.478 2.41143C12.4213 2.35472 12.3929 2.24128 12.4213 2.15621C12.478 2.07113 12.478 1.98606 12.478 1.87262C12.478 1.58904 12.2795 1.36217 11.9675 1.36217C11.8257 1.36217 11.7123 1.41889 11.5989 1.50396C11.5422 1.53232 11.4854 1.53232 11.4287 1.53232C11.372 1.50396 11.3153 1.4756 11.2869 1.41889C11.2019 1.24873 11.0033 1.1353 10.8048 1.1353C10.5496 1.1353 10.3227 1.33381 10.2944 1.58904V1.67411C10.3227 1.75919 10.2377 1.87262 10.1526 1.87262C9.869 1.90098 9.64214 2.15621 9.64214 2.41143C9.64214 2.60994 9.78393 2.7801 9.92572 2.86517C10.0108 2.92189 10.0392 3.03532 10.0108 3.1204C9.95408 3.20547 9.92572 3.29055 9.92572 3.37562C9.92572 3.65921 10.1809 3.91444 10.4929 3.91444C10.5496 3.91444 10.6347 3.88608 10.6914 3.85772C10.7198 3.82936 10.7481 3.82936 10.7765 3.82936Z" fill="#EC897E"/>
<path fill-rule="evenodd" clip-rule="evenodd" d="M2.09853 10.465C1.87166 10.465 1.64479 10.38 1.47464 10.2098C1.38957 10.2382 1.30449 10.2665 1.21942 10.2665C0.680605 10.2665 0.283585 9.84116 0.283585 9.3307C0.283585 9.24563 0.283585 9.16055 0.311944 9.04712C0.113434 8.87697 0 8.62174 0 8.36651C0 7.96949 0.255227 7.60083 0.623888 7.4874C0.680605 7.06202 1.07762 6.69336 1.55972 6.69336C1.81495 6.69336 2.09853 6.83515 2.26868 7.03366C2.41048 6.94859 2.55227 6.92023 2.69406 6.92023C3.20451 6.92023 3.60153 7.34561 3.60153 7.85606C3.60153 7.94113 3.60153 8.05457 3.57317 8.168C3.74333 8.3098 3.8284 8.56502 3.8284 8.82025C3.8284 9.30234 3.45974 9.72772 3.006 9.75608C2.92093 10.1531 2.52391 10.465 2.09853 10.465ZM1.53136 9.78444C1.58808 9.78444 1.64479 9.8128 1.67315 9.86951C1.78659 9.98295 1.92838 10.068 2.09853 10.068C2.38212 10.068 2.63734 9.84116 2.63734 9.55757V9.52921C2.63734 9.41578 2.72242 9.3307 2.83585 9.3307C2.86421 9.3307 2.92093 9.35906 2.94929 9.35906C3.23287 9.35906 3.45974 9.10383 3.45974 8.82025C3.45974 8.62174 3.37467 8.47995 3.23287 8.39487C3.1478 8.33815 3.11944 8.22472 3.1478 8.13964C3.20451 8.05457 3.23287 7.94113 3.23287 7.85606C3.23287 7.54412 3.006 7.31725 2.72242 7.31725C2.58063 7.31725 2.46719 7.37396 2.3254 7.4874C2.26868 7.51576 2.21197 7.51576 2.15525 7.51576C2.09853 7.4874 2.04181 7.45904 2.01346 7.40232C1.92838 7.20381 1.75823 7.09038 1.55972 7.09038C1.24778 7.09038 0.992549 7.34561 0.992549 7.62919V7.65755C0.992549 7.77098 0.935832 7.85606 0.822397 7.85606C0.595529 7.88442 0.397019 8.11129 0.397019 8.36651C0.397019 8.59338 0.510454 8.73517 0.652246 8.82025C0.737322 8.87697 0.76568 8.9904 0.737322 9.07548C0.680605 9.16055 0.680605 9.24563 0.680605 9.3307C0.680605 9.64265 0.907473 9.86951 1.21942 9.86951C1.27613 9.86951 1.36121 9.84116 1.41793 9.8128C1.44629 9.78444 1.47464 9.78444 1.53136 9.78444Z" fill="#EC897E"/>
</svg>
