<svg width="44" height="45" viewBox="0 0 44 45" fill="none" xmlns="http://www.w3.org/2000/svg">
<path d="M7.64923 4.07431C7.59154 4.09595 7.46173 4.18248 7.3752 4.26902C6.97858 4.62959 7.00021 3.56952 7.00021 20.1916C7.00021 35.4148 7.00021 35.5734 7.14444 35.8114C7.22376 35.9412 7.38962 36.107 7.51942 36.1864C7.7574 36.3306 7.8872 36.3306 19.7426 36.3162C31.663 36.2945 31.7279 36.2945 31.9226 36.1503C32.0307 36.071 32.175 35.8907 32.2471 35.7537C32.3769 35.5157 32.3841 34.9532 32.3841 20.1772C32.3841 5.73292 32.3769 4.83871 32.2543 4.60074C32.1894 4.46372 32.0235 4.27623 31.8865 4.18969L31.6413 4.02383L19.6994 4.03104C13.1298 4.03104 7.70692 4.05268 7.64923 4.07431ZM16.7211 8.27852C17.1682 8.55255 17.3485 9.07177 17.161 9.55493C17.1177 9.6631 16.512 10.3337 15.8125 11.0332C14.3774 12.4827 14.1538 12.627 13.613 12.4611C13.3967 12.3962 13.1371 12.2015 12.7044 11.7832C12.0121 11.1126 11.6876 10.651 11.6876 10.3337C11.6876 9.80732 12.1996 9.28811 12.7116 9.28811C13.0577 9.28811 13.3101 9.4107 13.6346 9.74963L13.8798 10.0092L14.7163 9.19436C15.1706 8.74005 15.625 8.31458 15.7259 8.24967C15.9639 8.09103 16.4326 8.10545 16.7211 8.27852ZM27.1198 10.002C27.4587 10.1823 27.7328 10.7015 27.6679 11.0477C27.6102 11.365 27.3073 11.7255 26.9972 11.8553C26.6511 11.9996 20.8027 11.9996 20.4638 11.8553C19.9806 11.6534 19.7282 11.1054 19.8652 10.5645C19.9085 10.3698 20.233 10.0237 20.4493 9.92991C20.5287 9.90107 22.007 9.87222 23.7305 9.87222C26.6655 9.86501 26.8891 9.87222 27.1198 10.002ZM16.6922 14.6461C17.1754 14.9202 17.3773 15.5259 17.1393 15.9802C17.0167 16.211 14.5288 18.6845 14.3053 18.7999C14.0962 18.908 13.75 18.9008 13.4688 18.7782C13.339 18.7277 12.9063 18.3383 12.5025 17.9273C11.5794 16.9754 11.4784 16.6292 11.9472 16.0668C12.4376 15.4898 12.9568 15.4971 13.6274 16.1028L13.8942 16.348L14.6154 15.6197C15.7403 14.4803 16.1081 14.3072 16.6922 14.6461ZM26.9972 16.3119C27.3073 16.4417 27.6102 16.8023 27.6679 17.1196C27.7328 17.4658 27.4587 17.985 27.1198 18.1653C26.8891 18.2951 26.6583 18.3023 23.7449 18.3023C21.019 18.3023 20.5864 18.2878 20.37 18.1869C19.5912 17.8191 19.6921 16.5283 20.5215 16.2903C20.6368 16.2542 22.0935 16.2182 23.7521 16.2182C26.1463 16.211 26.8097 16.2326 26.9972 16.3119ZM16.7355 21.0354C17.1826 21.3527 17.3557 21.9079 17.1393 22.3262C17.0816 22.4344 16.4326 23.1194 15.7043 23.8406C14.2909 25.2468 14.1683 25.3333 13.6418 25.2179C13.4616 25.1747 13.1947 24.9583 12.6467 24.4175C12.2284 24.0064 11.8462 23.5882 11.7885 23.48C11.3991 22.7372 12.214 21.8142 13.0217 22.0882C13.1731 22.1459 13.4111 22.3046 13.5553 22.4416C13.6995 22.5858 13.851 22.7012 13.8942 22.7012C13.9303 22.7012 14.3197 22.3406 14.7524 21.9007C15.8052 20.8334 16.2019 20.6604 16.7355 21.0354ZM27.1198 22.7372C27.841 23.1122 27.8265 24.1579 27.0982 24.5617C26.8891 24.6699 26.5718 24.6843 23.7305 24.6843C20.846 24.6843 20.5719 24.6771 20.3556 24.5545C19.6921 24.1939 19.6561 23.1555 20.2907 22.7733C20.507 22.6363 20.6729 22.6291 23.7161 22.6291C26.3987 22.6291 26.9467 22.6435 27.1198 22.7372ZM16.7211 27.3885C17.1898 27.677 17.3629 28.2251 17.1321 28.7226C17.0672 28.8452 16.4254 29.5375 15.7043 30.2514C14.3125 31.636 14.1971 31.7081 13.6491 31.6072C13.2596 31.5351 11.7957 30.0712 11.7236 29.6817C11.6515 29.2995 11.7381 28.9967 12.0121 28.7226C12.4664 28.2755 12.9928 28.2972 13.5481 28.7948L13.9015 29.112L14.7163 28.29C15.1706 27.8356 15.6394 27.4174 15.762 27.3525C16.0648 27.2083 16.4398 27.2155 16.7211 27.3885ZM27.127 29.1337C27.4876 29.3356 27.7328 29.8043 27.6679 30.1649C27.6102 30.475 27.3073 30.8428 26.9972 30.9654C26.6511 31.1096 20.8027 31.1096 20.4638 30.9654C20.0599 30.7923 19.8869 30.5399 19.8508 30.0712C19.822 29.6096 19.9518 29.3717 20.37 29.112C20.5791 28.9822 20.7883 28.975 23.7233 28.975C26.8025 28.975 26.853 28.975 27.127 29.1337Z" fill="#F172AD"/>
<path d="M34.4771 22.1093C34.4771 36.6546 34.4915 35.9479 34.1093 36.7051C33.9074 37.0945 33.2944 37.7363 32.905 37.967C32.7392 38.068 32.4002 38.2122 32.1623 38.2843C31.744 38.4141 31.3185 38.4213 21.6698 38.4213H11.6172V39.2651C11.6172 40.2386 11.7037 40.5126 12.1148 40.7795L12.36 40.9453L24.3885 40.9309L36.4097 40.9093L36.6044 40.729C37.0299 40.3323 37.0011 41.5006 37.0011 24.7775C37.0011 9.5544 37.0011 9.39575 36.8568 9.15778C36.59 8.71788 36.352 8.63856 35.3641 8.63856H34.4771V22.1093Z" fill="#F172AD"/>
</svg>
