<svg width="15" height="15" viewBox="0 0 15 15" fill="none" xmlns="http://www.w3.org/2000/svg">
<path d="M14.6875 5.93749C14.5147 5.93749 14.375 6.07718 14.375 6.24999V11.5625C14.375 11.735 14.235 11.875 14.0625 11.875H0.9375C0.765 11.875 0.625 11.735 0.625 11.5625V2.8125C0.625 2.64 0.765 2.5 0.9375 2.5H5.625C5.79781 2.5 5.9375 2.36031 5.9375 2.1875C5.9375 2.01469 5.79781 1.875 5.625 1.875H0.9375C0.420625 1.875 0 2.29562 0 2.8125V11.5625C0 12.0794 0.420625 12.5 0.9375 12.5H14.0625C14.5794 12.5 15 12.0794 15 11.5625V6.24999C15 6.07718 14.8603 5.93749 14.6875 5.93749Z" fill="#EC897E"/>
<path d="M10 14.375H9.375V13.4375C9.375 13.2647 9.23531 13.125 9.0625 13.125C8.88969 13.125 8.75 13.2647 8.75 13.4375V14.375H6.25V13.4375C6.25 13.2647 6.11031 13.125 5.9375 13.125C5.76469 13.125 5.625 13.2647 5.625 13.4375V14.375H5C4.82719 14.375 4.6875 14.5147 4.6875 14.6875C4.6875 14.8603 4.82719 15 5 15H10C10.1728 15 10.3125 14.8603 10.3125 14.6875C10.3125 14.5147 10.1728 14.375 10 14.375Z" fill="#EC897E"/>
<path d="M4.6875 9.6875C4.51469 9.6875 4.375 9.82719 4.375 10C4.375 10.1728 4.51469 10.3125 4.6875 10.3125H12.8125C12.9853 10.3125 13.125 10.1728 13.125 10C13.125 9.82719 12.9853 9.6875 12.8125 9.6875H4.6875Z" fill="#EC897E"/>
<path d="M2.1875 9.6875C2.01469 9.6875 1.875 9.82719 1.875 10C1.875 10.1728 2.01469 10.3125 2.1875 10.3125H3.125C3.29781 10.3125 3.4375 10.1728 3.4375 10C3.4375 9.82719 3.29781 9.6875 3.125 9.6875H2.1875Z" fill="#EC897E"/>
<path d="M6.76344 5.07312L7.26219 5.17281C7.29469 5.26187 7.33062 5.34906 7.37031 5.43406L7.08844 5.85687C6.92 6.10937 6.95344 6.44843 7.16812 6.6628L7.7125 7.20687C7.92656 7.42124 8.265 7.45562 8.51812 7.28687L8.94312 7.00374C9.02875 7.04405 9.11531 7.0803 9.20187 7.11249L9.30156 7.61186C9.36094 7.90936 9.62438 8.12499 9.92781 8.12499H10.6975C11.0009 8.12499 11.2641 7.90936 11.3237 7.61155L11.4234 7.11249C11.5125 7.07999 11.5997 7.04405 11.6847 7.00468L12.1078 7.28687C12.36 7.45437 12.6991 7.42093 12.9131 7.20655L13.4575 6.66249C13.6722 6.4478 13.7056 6.10905 13.5372 5.85655L13.2541 5.43187C13.2947 5.34624 13.3309 5.25937 13.3631 5.17312L13.8622 5.07312C14.1594 5.01374 14.375 4.75062 14.375 4.44718V3.67718C14.375 3.37406 14.1594 3.11093 13.8616 3.05125L13.3628 2.95156C13.3303 2.86218 13.2944 2.77531 13.255 2.69031L13.5366 2.2675C13.705 2.015 13.6716 1.67594 13.4569 1.46156L12.9125 0.917499C12.6984 0.703436 12.36 0.668749 12.1069 0.837499L11.6819 1.12062C11.5962 1.08031 11.5097 1.04406 11.4231 1.01187L11.3234 0.512499C11.2641 0.215625 11.0006 0 10.6972 0H9.9275C9.62406 0 9.36094 0.215625 9.30125 0.513124L9.20156 1.01219C9.11437 1.04437 9.02719 1.08062 8.94187 1.12094L8.5175 0.837499C8.265 0.669687 7.92594 0.703436 7.71219 0.917811L7.16781 1.46187C6.95312 1.67656 6.91969 2.01531 7.08812 2.26781L7.37156 2.6925C7.33156 2.77781 7.29531 2.86437 7.26344 2.95125L6.76313 3.05125C6.46563 3.11093 6.25 3.37437 6.25 3.6775V4.44749C6.25 4.75031 6.46562 5.01374 6.76344 5.07312ZM6.88594 3.66437L7.56375 3.52875C7.67687 3.50625 7.76875 3.4225 7.80187 3.31187C7.85156 3.14531 7.92094 2.97968 8.00719 2.81906C8.06219 2.7175 8.05625 2.59343 7.99219 2.4975L7.60938 1.90406L8.17094 1.35812L8.74656 1.74219C8.84281 1.80656 8.96687 1.81281 9.06875 1.75687C9.22875 1.67031 9.39469 1.60094 9.56156 1.55125C9.6725 1.51844 9.75625 1.42687 9.77875 1.31312L9.92781 0.624999L10.7109 0.635624L10.8459 1.3125C10.8684 1.42594 10.9522 1.5175 11.0628 1.55062C11.2262 1.59937 11.3925 1.66906 11.5556 1.75687C11.6572 1.81187 11.7816 1.80594 11.8772 1.74187L12.4706 1.35937L13.0166 1.92094L12.6341 2.49468C12.5697 2.59125 12.5641 2.715 12.6194 2.81687C12.7025 2.97031 12.7712 3.13687 12.8234 3.31187C12.8566 3.4225 12.9481 3.50593 13.0616 3.52843L13.7384 3.66406L13.75 3.6775L13.7391 4.46062L13.0625 4.59593C12.9491 4.61843 12.8575 4.70218 12.8244 4.81281C12.7756 4.97593 12.7062 5.14187 12.6178 5.30531C12.5628 5.40718 12.5687 5.53124 12.6328 5.62718L13.0156 6.22062L12.4541 6.76655L11.8803 6.38374C11.7844 6.31968 11.6603 6.31405 11.5584 6.36874C11.4044 6.45218 11.2378 6.52093 11.0631 6.57312C10.9525 6.60624 10.8691 6.6978 10.8466 6.81124L10.6972 7.49999L9.91406 7.48905L9.77875 6.81218C9.75625 6.69874 9.6725 6.60718 9.56187 6.57405C9.39844 6.5253 9.23219 6.45562 9.06906 6.3678C9.02281 6.3428 8.97156 6.3303 8.92062 6.3303C8.86 6.3303 8.79937 6.34812 8.74719 6.3828L8.15375 6.7653L7.60781 6.20374L7.99062 5.62999C8.055 5.53343 8.06062 5.40968 8.00531 5.30781C7.92156 5.15343 7.85312 4.98718 7.80094 4.81281C7.76781 4.70218 7.67625 4.61874 7.56281 4.59624L6.875 4.44718L6.88594 3.66437Z" fill="#EC897E"/>
<path d="M10.3125 5.9375C11.3466 5.9375 12.1875 5.09656 12.1875 4.0625C12.1875 3.93625 12.175 3.81 12.1503 3.68781C12.1163 3.51875 11.9516 3.40937 11.7819 3.44344C11.6128 3.47781 11.5031 3.64281 11.5375 3.81187C11.5544 3.89344 11.5625 3.97781 11.5625 4.0625C11.5625 4.75187 11.0019 5.3125 10.3125 5.3125C9.62312 5.3125 9.0625 4.75187 9.0625 4.0625C9.0625 3.37312 9.62312 2.8125 10.3125 2.8125C10.3972 2.8125 10.4812 2.82062 10.5631 2.8375C10.7316 2.87187 10.8969 2.76219 10.9316 2.59312C10.9656 2.42406 10.8563 2.25938 10.6872 2.22469C10.5647 2.2 10.4384 2.1875 10.3125 2.1875C9.27844 2.1875 8.4375 3.02844 8.4375 4.0625C8.4375 5.09656 9.27844 5.9375 10.3125 5.9375Z" fill="#EC897E"/>
</svg>
