<svg width="9" height="17" viewBox="0 0 9 17" fill="none" xmlns="http://www.w3.org/2000/svg">
<path d="M5.78037 7.01785V6.38687C5.7801 6.22688 5.72783 6.07131 5.63143 5.94362C5.53502 5.81593 5.39972 5.72304 5.24592 5.67897V0.856199C5.24566 0.629196 5.15537 0.411566 4.99485 0.251054C4.83434 0.0905412 4.61672 0.000254264 4.38972 0H3.09448C2.86749 0.000254281 2.64987 0.0905423 2.48936 0.251056C2.32885 0.411569 2.23857 0.629199 2.23831 0.856199V5.67897C2.08451 5.72304 1.94921 5.81593 1.85281 5.94362C1.75641 6.07131 1.70413 6.22688 1.70387 6.38687V7.01785C1.24864 7.16292 0.851485 7.44928 0.570037 7.83538C0.288589 8.22147 0.137494 8.68721 0.138679 9.16501V15.7174C0.138933 15.9409 0.227806 16.1551 0.385799 16.3131C0.543792 16.4711 0.758003 16.5599 0.981435 16.5602H6.5028C6.72623 16.5599 6.94044 16.4711 7.09843 16.3131C7.25641 16.1551 7.34528 15.9409 7.34552 15.7174V9.16501C7.34673 8.68721 7.19564 8.22147 6.9142 7.83537C6.63276 7.44927 6.2356 7.16291 5.78037 7.01785ZM4.8342 3.58853H2.65003V2.47342H4.8342V3.58853ZM2.65003 4.00026H4.8342V5.65004H2.65003V4.00026ZM3.09448 0.411733H4.38972C4.50756 0.41186 4.62054 0.458727 4.70387 0.542052C4.78719 0.625377 4.83407 0.738355 4.8342 0.856199V2.06151H2.65003V0.856199C2.65016 0.738358 2.69703 0.62538 2.78035 0.542054C2.86367 0.458729 2.97665 0.41186 3.09448 0.411733ZM2.44067 6.06177H5.04353C5.12972 6.06187 5.21235 6.09616 5.2733 6.1571C5.33425 6.21805 5.36854 6.30068 5.36865 6.38687V6.927C5.27636 6.9156 5.18346 6.90987 5.09047 6.90984H2.3937C2.30071 6.90987 2.20781 6.9156 2.11552 6.927V6.38687C2.11562 6.30067 2.14991 6.21803 2.21087 6.15708C2.27183 6.09613 2.35447 6.06186 2.44067 6.06177ZM3.48987 11.491V7.32157H3.99423V11.491H3.48987ZM6.5028 16.1484H0.981435C0.867162 16.1483 0.757605 16.1029 0.676799 16.0221C0.595992 15.9413 0.550535 15.8317 0.550399 15.7174V14.7093L0.573901 14.7138C0.752107 14.7469 1.00432 14.7764 1.32354 14.8015C1.97042 14.8524 2.82937 14.8804 3.74212 14.8804C4.65487 14.8804 5.51378 14.8524 6.1607 14.8015C6.47978 14.7764 6.7321 14.7469 6.91034 14.7138L6.9338 14.7093V15.7174C6.93367 15.8317 6.88822 15.9413 6.80742 16.0221C6.72662 16.1029 6.61707 16.1483 6.5028 16.1484ZM1.59226 14.4073C2.14149 14.3715 2.87185 14.346 3.74212 14.346C4.61239 14.346 5.34271 14.3715 5.89198 14.4073C5.34271 14.4432 4.61222 14.4687 3.74212 14.4687C2.87202 14.4687 2.14149 14.4432 1.59226 14.4073ZM6.9338 14.1054L6.91034 14.101C6.7321 14.0679 6.47992 14.0383 6.1607 14.0132C5.51378 13.9623 4.65483 13.9343 3.74212 13.9343C2.8294 13.9343 1.97042 13.9623 1.32354 14.0132C1.00446 14.0383 0.752107 14.0679 0.573901 14.101L0.550399 14.1054V9.16501C0.5502 8.92287 0.597745 8.68307 0.690313 8.45932C0.78288 8.23558 0.918655 8.03228 1.08987 7.86106C1.26108 7.68984 1.46437 7.55406 1.68811 7.46149C1.91185 7.36892 2.15164 7.32138 2.39377 7.32157H3.07815V11.6688L2.62763 13.2831C2.62008 13.3092 2.61778 13.3366 2.62087 13.3636C2.62396 13.3906 2.63236 13.4167 2.64561 13.4405C2.65885 13.4642 2.67667 13.4851 2.69803 13.502C2.7194 13.5188 2.74388 13.5312 2.77007 13.5385C2.79626 13.5458 2.82364 13.5479 2.85063 13.5445C2.87762 13.5412 2.90368 13.5326 2.9273 13.5191C2.95093 13.5056 2.97166 13.4876 2.98828 13.4661C3.00491 13.4446 3.01711 13.42 3.02418 13.3937L3.44029 11.9027H3.53636V13.3384C3.53636 13.393 3.55805 13.4454 3.59666 13.484C3.63526 13.5226 3.68762 13.5443 3.74222 13.5443C3.79682 13.5443 3.84918 13.5226 3.88779 13.484C3.92639 13.4454 3.94808 13.393 3.94808 13.3384V11.9027H4.04415L4.46026 13.3937C4.46733 13.42 4.47953 13.4446 4.49616 13.4661C4.51279 13.4876 4.53351 13.5056 4.55714 13.5191C4.58077 13.5326 4.60682 13.5412 4.63381 13.5445C4.6608 13.5479 4.68818 13.5458 4.71437 13.5385C4.74056 13.5312 4.76505 13.5188 4.78641 13.502C4.80777 13.4851 4.82559 13.4642 4.83883 13.4405C4.85208 13.4167 4.86049 13.3906 4.86357 13.3636C4.86666 13.3366 4.86436 13.3092 4.85682 13.2831L4.40605 11.6687V7.32144H5.09047C5.3326 7.32123 5.57239 7.36878 5.79613 7.46135C6.01987 7.55392 6.22316 7.6897 6.39437 7.86092C6.56558 8.03213 6.70135 8.23543 6.79391 8.45918C6.88647 8.68293 6.93401 8.92273 6.9338 9.16487V14.1054Z" fill="#EC897E"/>
<path d="M7.74406 1.23739C7.72475 1.21386 7.70046 1.1949 7.67294 1.18188C7.64542 1.16886 7.61536 1.16211 7.58492 1.16211C7.55447 1.16211 7.52441 1.16886 7.49689 1.18188C7.46937 1.1949 7.44508 1.21386 7.42577 1.23739C7.29807 1.39306 6.17822 2.77903 6.17822 3.49523C6.17822 3.86833 6.32643 4.22614 6.59024 4.48996C6.85405 4.75378 7.21185 4.90199 7.58493 4.90199C7.95801 4.90199 8.31582 4.75378 8.57962 4.48996C8.84343 4.22614 8.99164 3.86833 8.99164 3.49523C8.99164 2.77903 7.87176 1.39306 7.74406 1.23739ZM7.58493 4.49026C7.32114 4.48996 7.06823 4.38503 6.8817 4.19849C6.69517 4.01195 6.59024 3.75904 6.58994 3.49523C6.58994 3.11438 7.14755 2.26549 7.58493 1.69881C8.02232 2.26529 8.57992 3.11404 8.57992 3.49523C8.57961 3.75904 8.47468 4.01194 8.28815 4.19848C8.10162 4.38502 7.84872 4.48995 7.58493 4.49026Z" fill="#EC897E"/>
</svg>
