<svg width="33" height="33" viewBox="0 0 33 33" fill="none" xmlns="http://www.w3.org/2000/svg">
<path d="M9.69688 4.35123C8.77187 4.43873 7.64062 4.87623 6.92812 5.41998C5.29063 6.66998 4.47187 8.51998 4.64688 10.5637C4.76562 11.9262 5.28437 13.045 6.26562 14.0512L6.74062 14.5325L6.25938 14.8137C4.27813 15.9575 2.82188 18.0637 2.42813 20.3387C2.28438 21.17 2.28438 23.6762 2.42813 24.1637C2.69688 25.0887 3.47812 25.8762 4.39688 26.1637C4.73438 26.27 4.98438 26.2825 6.52187 26.2825H8.26562V26.4887C8.26562 26.795 8.43438 27.3887 8.62813 27.745C8.99062 28.42 9.75313 29.0075 10.5156 29.2137C10.7281 29.27 12.2094 29.2825 16.4844 29.27L22.1719 29.2512L22.6594 29.02C23.2031 28.7575 23.6969 28.3137 23.9844 27.82C24.1844 27.4825 24.3906 26.8012 24.3906 26.4887V26.2825H26.1344C27.6719 26.2825 27.9219 26.27 28.2594 26.1637C29.1781 25.8762 29.9594 25.0887 30.2281 24.1637C30.3656 23.6887 30.3719 21.1637 30.2344 20.37C29.8281 18.0575 28.3844 15.9637 26.3969 14.8075L25.9156 14.5325L26.3906 14.045C27.3719 13.045 27.8906 11.9262 28.0094 10.5637C28.1531 8.86998 27.6219 7.30748 26.4906 6.10123C24.6969 4.19498 21.7781 3.76998 19.4531 5.07623C18.8156 5.43873 17.8469 6.35748 17.4969 6.95123L17.2594 7.33873L16.3844 7.33248C15.9031 7.33248 15.4906 7.35123 15.4719 7.36998C15.4469 7.38873 15.3219 7.21998 15.1844 6.98248C14.8281 6.38873 13.8594 5.45123 13.2406 5.10123C12.1344 4.47623 10.9781 4.23248 9.69688 4.35123ZM11.4531 6.56998C11.7094 6.65123 12.0969 6.83248 12.3094 6.96998C12.7031 7.22623 13.3906 7.92623 13.3906 8.06373C13.3906 8.10748 13.2406 8.23873 13.0531 8.36373C12.6031 8.66373 11.9469 9.33248 11.6031 9.85123C10.9969 10.77 10.7094 11.6762 10.6594 12.8887C10.6156 13.7887 10.6406 13.7637 9.91563 13.6637C8.52187 13.47 7.44688 12.6262 6.92812 11.3325C6.39687 9.99498 6.75938 8.38248 7.81563 7.38873C8.82188 6.45123 10.1344 6.15748 11.4531 6.56998ZM23.4844 6.58873C24.9906 7.09498 25.9594 8.45123 25.9594 10.0325C25.9594 11.8825 24.6281 13.395 22.7531 13.6575C22.0781 13.7575 22.0781 13.7575 22.0781 13.045C22.0719 11.22 21.2406 9.53873 19.8094 8.46373C19.5281 8.25123 19.2906 8.05748 19.2781 8.03873C19.2469 7.95123 19.9656 7.22623 20.3094 6.99498C21.2719 6.35748 22.3844 6.21373 23.4844 6.58873ZM16.9656 9.43248C18.0719 9.63248 19.0594 10.345 19.6031 11.3512C19.8281 11.7575 20.0156 12.5262 20.0156 13.0325C20.0156 14.995 18.3781 16.6637 16.4219 16.6825C14.9531 16.695 13.6719 15.87 13.0469 14.5075C12.0406 12.3387 13.4719 9.76373 15.8844 9.41373C16.3844 9.33873 16.4281 9.33873 16.9656 9.43248ZM11.2781 15.8325C11.3344 15.8575 11.5031 16.0575 11.6469 16.2762C11.7906 16.495 12.1031 16.8637 12.3344 17.095L12.7531 17.5075L12.3844 17.7137C11.8406 18.0137 11.0594 18.6075 10.5906 19.0825C9.30938 20.3825 8.53438 22.0325 8.29688 23.9512L8.25313 24.2825H6.84063C6.05938 24.2825 5.30938 24.2512 5.17813 24.22C4.87188 24.1512 4.64688 23.9887 4.48438 23.7137C4.37188 23.52 4.35938 23.395 4.36563 22.3137C4.37188 21.6575 4.40937 20.9575 4.44688 20.7512C4.94688 18.245 6.78438 16.3637 9.20312 15.8762C9.62813 15.7887 11.0969 15.7575 11.2781 15.8325ZM23.7281 15.9325C26.1031 16.595 27.7281 18.3387 28.2094 20.7512C28.2469 20.9575 28.2844 21.6575 28.2906 22.3137C28.2969 23.395 28.2844 23.52 28.1719 23.7137C28.0094 23.9887 27.7844 24.1512 27.4781 24.22C27.3469 24.2512 26.5969 24.2825 25.8156 24.2825H24.4031L24.3594 23.9512C24.1219 22.0325 23.3469 20.3825 22.0656 19.0825C21.6156 18.6262 20.7656 17.9762 20.3656 17.77C19.9281 17.5512 19.9281 17.5637 20.3844 17.1075C20.6156 16.8762 20.9281 16.5012 21.0781 16.2825C21.2281 16.0575 21.3781 15.8512 21.4156 15.8262C21.5344 15.7387 23.3281 15.82 23.7281 15.9325ZM17.8906 18.97C18.9844 19.2825 19.8656 19.82 20.6406 20.6325C21.4156 21.445 21.8531 22.2262 22.1531 23.32C22.2594 23.7325 22.2906 24.0387 22.3156 25.1325C22.3469 26.6512 22.3094 26.795 21.8719 27.0825L21.6156 27.2512H16.3281H11.0406L10.7844 27.0825C10.3469 26.795 10.3094 26.6512 10.3406 25.1325C10.3656 24.0512 10.3969 23.7262 10.5031 23.3325C10.8094 22.2137 11.2719 21.3887 12.0344 20.6075C12.9156 19.7012 13.9031 19.1512 15.1406 18.8762C15.7594 18.7387 17.2781 18.7887 17.8906 18.97Z" fill="#EC897E"/>
</svg>
