<svg width="9" height="15" viewBox="0 0 9 15" fill="none" xmlns="http://www.w3.org/2000/svg">
<path d="M4.39396 0.00195312C1.97113 0.00195312 0 1.97308 0 4.39591V14.7071C0 14.8688 0.131174 15 0.292931 15H8.49499C8.65674 15 8.78792 14.8688 8.78792 14.7071V4.39591C8.78792 1.97308 6.81679 0.00195312 4.39396 0.00195312ZM8.20206 14.4141H0.585861V4.39591C0.585861 2.2961 2.29414 0.587814 4.39396 0.587814C6.49377 0.587814 8.20206 2.2961 8.20206 4.39591V14.4141Z" fill="#EC897E"/>
<path d="M6.44463 3.22504C6.44463 3.08396 6.49569 2.94751 6.58843 2.84092C6.68498 2.72989 6.68422 2.56445 6.58662 2.45436C6.2293 2.05129 5.76984 1.75485 5.25794 1.59704C5.12337 1.55559 4.97834 1.61573 4.91261 1.74026C4.81067 1.93336 4.612 2.05331 4.39412 2.05331C4.17624 2.05331 3.97757 1.93336 3.87566 1.74023C3.80996 1.6157 3.66493 1.55554 3.53033 1.59702C3.03987 1.74817 2.59529 2.02824 2.2446 2.40688C2.15484 2.50384 2.14104 2.6489 2.211 2.76097C2.30822 2.91681 2.35307 3.06674 2.34419 3.20649C2.30974 3.75093 1.74231 4.07418 1.62891 4.13344C1.61389 4.14129 1.60507 4.14671 1.60223 4.1485C1.51675 4.20205 1.46484 4.29584 1.46484 4.39673V6.74017C1.46484 8.35542 2.7789 9.66948 4.39415 9.66948C6.0094 9.66948 7.32346 8.35542 7.32346 6.74017V4.39673C7.32346 4.28919 7.31736 4.17964 7.30535 4.07114C7.28912 3.92479 7.1668 3.81321 7.01957 3.81055C6.70253 3.80475 6.44463 3.54207 6.44463 3.22504ZM6.73757 6.7402C6.73757 8.03238 5.6863 9.08365 4.39412 9.08365C3.10194 9.08365 2.05068 8.03238 2.05068 6.7402V4.56587C2.35667 4.37291 2.88471 3.94146 2.92888 3.24355C2.94113 3.04978 2.90445 2.85471 2.81965 2.66123C3.02115 2.47833 3.25272 2.33177 3.50314 2.22863C3.96987 2.77591 4.81834 2.77591 5.28507 2.2286C5.54563 2.33579 5.78504 2.48963 5.99197 2.6827C5.90509 2.84897 5.85877 3.03486 5.85877 3.22504C5.85877 3.76573 6.23375 4.22736 6.73724 4.35894C6.73745 4.3716 6.73757 4.38419 6.73757 4.39676V6.7402Z" fill="#EC897E"/>
<path d="M6.84405 10.119C5.49308 11.4699 3.2949 11.4699 1.94393 10.119C1.82951 10.0046 1.64409 10.0046 1.52964 10.119C1.41525 10.2334 1.41525 10.4188 1.52964 10.5332C3.10898 12.1125 5.67886 12.1127 7.25831 10.5332C7.3727 10.4188 7.3727 10.2334 7.25831 10.119C7.14395 10.0046 6.95852 10.0046 6.84405 10.119Z" fill="#EC897E"/>
<path d="M6.84405 11.8768C5.49308 13.2278 3.2949 13.2278 1.94393 11.8768C1.82951 11.7624 1.64409 11.7624 1.52964 11.8768C1.41525 11.9912 1.41525 12.1767 1.52964 12.291C3.10898 13.8703 5.67886 13.8705 7.25831 12.291C7.3727 12.1767 7.3727 11.9912 7.25831 11.8768C7.14395 11.7625 6.95852 11.7624 6.84405 11.8768Z" fill="#EC897E"/>
</svg>
