<svg width="34" height="35" viewBox="0 0 34 35" fill="none" xmlns="http://www.w3.org/2000/svg">
<g clip-path="url(#clip0_2655_2444)">
<path d="M6.39533 2.35624C6.02251 2.59825 4.86481 3.67092 4.32848 4.26612C2.09156 6.75158 0.685318 9.70797 0.148982 13.0437C0.0574127 13.6324 0.03125 14.1556 0.03125 15.6142C0.03125 17.6156 0.109738 18.2501 0.521801 19.8722C1.10392 22.1156 2.33357 24.5161 3.84447 26.3148C4.45929 27.0473 5.88516 28.4339 6.32338 28.7217C7.04286 29.1992 7.91277 28.761 7.91277 27.9303C7.91277 27.4855 7.79504 27.3024 7.20638 26.8118C4.47237 24.5291 2.5952 21.0757 2.12427 17.4587C2.01308 16.5626 1.99345 14.8097 2.0981 13.894C2.49709 10.2508 4.28269 6.89547 7.16059 4.37731C7.83428 3.78211 7.91277 3.66438 7.91277 3.22615C7.91277 2.82717 7.75579 2.5263 7.44838 2.34316C7.20638 2.19927 6.62426 2.20581 6.39533 2.35624Z" fill="#F38D81"/>
<path d="M26.0255 2.34348C25.7312 2.53316 25.5742 2.83403 25.5742 3.22647C25.5742 3.66469 25.6527 3.78243 26.3264 4.37763C28.838 6.5753 30.5059 9.37471 31.16 12.4881C31.5916 14.5615 31.5655 16.9292 31.088 18.9503C30.3685 21.9917 28.6091 24.863 26.2806 26.8122C25.692 27.2962 25.5742 27.4859 25.5742 27.911C25.5742 28.5912 26.104 29.0229 26.7842 28.8986C27.2159 28.8136 28.91 27.2438 29.8911 26.0142C31.2777 24.2678 32.4158 21.9917 32.9652 19.8725C33.3772 18.2504 33.4557 17.616 33.4557 15.6145C33.4557 14.1559 33.4296 13.6327 33.338 13.044C32.8017 9.70828 31.3954 6.75844 29.1585 4.26644C28.6222 3.67124 27.471 2.6051 27.0917 2.35656C26.8627 2.20612 26.261 2.19958 26.0255 2.34348Z" fill="#F38D81"/>
<path d="M9.90844 6.34035C9.60756 6.41884 8.4237 7.50459 7.74347 8.32217C6.7035 9.57798 5.80743 11.4813 5.42807 13.2604C5.22531 14.2088 5.17298 16.256 5.32996 17.2502C5.72894 19.7945 6.76891 21.8745 8.53489 23.6666C9.50945 24.6543 9.73184 24.8047 10.1962 24.8047C10.8307 24.8047 11.1839 24.4515 11.1839 23.8236C11.1839 23.3854 11.1054 23.2545 10.484 22.7051C8.39754 20.8541 7.25946 18.336 7.25946 15.5823C7.25946 14.2219 7.48184 13.0707 7.97239 11.9195C8.50873 10.6637 9.12355 9.78075 10.2028 8.71462C10.6606 8.26331 11.0661 7.83162 11.1119 7.75314C11.2166 7.55037 11.2035 7.0402 11.0858 6.81782C10.8961 6.45154 10.3336 6.22262 9.90844 6.34035Z" fill="#F38D81"/>
<path d="M22.9876 6.34035C22.7717 6.39921 22.5035 6.6216 22.3989 6.81782C22.2812 7.0402 22.2681 7.55037 22.3727 7.75313C22.4185 7.83162 22.824 8.26331 23.2819 8.71461C24.3676 9.78729 24.9825 10.6703 25.5123 11.9195C26.0028 13.0707 26.2252 14.2219 26.2252 15.5823C26.2252 18.336 25.0871 20.8541 23.0006 22.7051C22.3793 23.2545 22.3008 23.3854 22.3008 23.8236C22.3008 24.4515 22.654 24.8047 23.2884 24.8047C23.7528 24.8047 23.9752 24.6543 24.9498 23.6666C26.7157 21.8745 27.7557 19.7945 28.1547 17.2502C28.3117 16.256 28.2593 14.2088 28.0566 13.2604C27.6772 11.4813 26.7811 9.57798 25.7412 8.32217C25.3553 7.85778 24.3938 6.8963 24.0275 6.61506C23.6939 6.35997 23.3015 6.25532 22.9876 6.34035Z" fill="#F38D81"/>
<path d="M15.5021 10.8073C15.234 10.8793 14.763 11.0624 14.4556 11.2129C14.0043 11.4352 13.7819 11.6053 13.2783 12.1155C12.7681 12.6191 12.5981 12.8415 12.3757 13.2928C11.9505 14.1496 11.8197 14.771 11.8524 15.7717C11.9048 17.1714 12.2972 18.0675 13.2783 19.0486C13.9193 19.6896 14.4622 20.0297 15.2274 20.2652L15.7638 20.4352V26.0733C15.7638 31.4824 15.7703 31.7113 15.888 31.8945C16.0908 32.1954 16.3393 32.3262 16.7449 32.3262C17.1504 32.3262 17.3989 32.1954 17.6017 31.8945C17.7194 31.7113 17.726 31.4824 17.726 26.0733V20.4352L18.2688 20.2652C19.0276 20.0297 19.5704 19.6896 20.2114 19.0486C21.1925 18.0675 21.585 17.1714 21.6373 15.7717C21.67 14.771 21.5392 14.1496 21.114 13.2928C20.8917 12.8415 20.7216 12.6191 20.2114 12.1155C19.7078 11.6053 19.4854 11.4352 19.0341 11.2129C18.7267 11.0624 18.2427 10.8793 17.9614 10.8073C17.2681 10.6307 16.1824 10.6373 15.5021 10.8073ZM17.811 12.8938C18.5174 13.1751 19.1518 13.803 19.4396 14.5224C19.6555 15.0588 19.6555 16.1053 19.4396 16.6482C19.1518 17.3611 18.5239 17.989 17.8045 18.2768C17.2681 18.4926 16.2216 18.4926 15.6853 18.2768C14.9658 17.989 14.3379 17.3546 14.0566 16.6482C13.8539 16.1314 13.8146 15.2615 13.9651 14.7841C14.2856 13.8226 14.8612 13.2078 15.7768 12.8611C16.3263 12.6518 17.2354 12.6649 17.811 12.8938Z" fill="#F38D81"/>
</g>
<defs>
<clipPath id="clip0_2655_2444">
<rect width="33.4883" height="33.4883" fill="white" transform="translate(0 0.538086)"/>
</clipPath>
</defs>
</svg>
