<svg width="177" height="177" viewBox="0 0 177 177" fill="none" xmlns="http://www.w3.org/2000/svg">
<g id="icon-hurry">
<circle id="Ellipse 59" cx="88.3992" cy="88.3992" r="88.3992" fill="#F172AD"/>
<path id="Powerfull analytics" d="M28.7567 100.808V70.0528H34.328V83.0725H48.5792V70.0528H54.1655V100.808H48.5792V87.7428H34.328V100.808H28.7567ZM73.4176 91.1066V77.7415H78.8537V100.808H73.5828V96.708H73.3425C72.8219 97.9994 71.9659 99.0556 70.7746 99.8766C69.5932 100.697 68.1366 101.108 66.4046 101.108C64.8929 101.108 63.5564 100.773 62.3951 100.102C61.2438 99.421 60.3428 98.4349 59.692 97.1435C59.0413 95.842 58.7159 94.2702 58.7159 92.4281V77.7415H64.1521V91.5872C64.1521 93.0488 64.5525 94.2101 65.3534 95.0711C66.1543 95.9321 67.2055 96.3626 68.507 96.3626C69.3079 96.3626 70.0838 96.1674 70.8346 95.7769C71.5855 95.3865 72.2012 94.8058 72.6817 94.035C73.1723 93.2541 73.4176 92.278 73.4176 91.1066ZM83.1752 100.808V77.7415H88.4461V81.5859H88.6864C89.1069 80.2544 89.8277 79.2282 90.8488 78.5074C91.88 77.7765 93.0563 77.4111 94.3778 77.4111C94.6782 77.4111 95.0136 77.4262 95.384 77.4562C95.7644 77.4762 96.0798 77.5112 96.3301 77.5613V82.562C96.0998 82.4819 95.7344 82.4118 95.2338 82.3517C94.7433 82.2816 94.2677 82.2466 93.8072 82.2466C92.8161 82.2466 91.9251 82.4619 91.1342 82.8923C90.3533 83.3128 89.7376 83.8985 89.2871 84.6493C88.8366 85.4002 88.6113 86.2662 88.6113 87.2473V100.808H83.1752ZM98.673 100.808V77.7415H103.944V81.5859H104.184C104.605 80.2544 105.326 79.2282 106.347 78.5074C107.378 77.7765 108.554 77.4111 109.876 77.4111C110.176 77.4111 110.511 77.4262 110.882 77.4562C111.262 77.4762 111.578 77.5112 111.828 77.5613V82.562C111.598 82.4819 111.232 82.4118 110.732 82.3517C110.241 82.2816 109.766 82.2466 109.305 82.2466C108.314 82.2466 107.423 82.4619 106.632 82.8923C105.851 83.3128 105.235 83.8985 104.785 84.6493C104.334 85.4002 104.109 86.2662 104.109 87.2473V100.808H98.673ZM118.252 109.457C117.511 109.457 116.825 109.397 116.194 109.277C115.574 109.167 115.078 109.037 114.708 108.887L115.969 104.652C116.76 104.882 117.466 104.992 118.087 104.982C118.707 104.972 119.253 104.777 119.723 104.397C120.204 104.026 120.609 103.406 120.94 102.535L121.405 101.288L113.041 77.7415H118.807L124.123 95.1612H124.364L129.695 77.7415H135.476L126.241 103.601C125.81 104.822 125.24 105.868 124.529 106.739C123.818 107.62 122.947 108.291 121.916 108.752C120.895 109.222 119.673 109.457 118.252 109.457ZM144.622 70.0528L144.126 91.7674H139.291L138.81 70.0528H144.622ZM141.709 101.138C140.798 101.138 140.017 100.818 139.366 100.177C138.725 99.5362 138.405 98.7553 138.405 97.8343C138.405 96.9332 138.725 96.1624 139.366 95.5216C140.017 94.8809 140.798 94.5605 141.709 94.5605C142.6 94.5605 143.37 94.8809 144.021 95.5216C144.682 96.1624 145.012 96.9332 145.012 97.8343C145.012 98.4449 144.857 99.0006 144.547 99.5011C144.246 100.002 143.846 100.402 143.345 100.702C142.855 100.993 142.309 101.138 141.709 101.138Z" fill="white"/>
<circle id="Ellipse 60" cx="87.9991" cy="88.399" r="75.7902" stroke="white" stroke-width="2.332" stroke-dasharray="4.66 4.66"/>
</g>
</svg>
