<svg width="21" height="16" viewBox="0 0 21 16" fill="none" xmlns="http://www.w3.org/2000/svg">
<path d="M19.5781 0.689453H1.57812C1.37921 0.689453 1.18845 0.768471 1.04779 0.909123C0.907143 1.04978 0.828125 1.24054 0.828125 1.43945V14.1895C0.828125 14.5873 0.98616 14.9688 1.26746 15.2501C1.54877 15.5314 1.9303 15.6895 2.32812 15.6895H18.8281C19.226 15.6895 19.6075 15.5314 19.8888 15.2501C20.1701 14.9688 20.3281 14.5873 20.3281 14.1895V1.43945C20.3281 1.24054 20.2491 1.04978 20.1085 0.909123C19.9678 0.768471 19.777 0.689453 19.5781 0.689453ZM7.83219 8.18945L2.32812 13.2341V3.14477L7.83219 8.18945ZM8.94219 9.20664L10.0672 10.2426C10.2056 10.3696 10.3865 10.4401 10.5744 10.4401C10.7622 10.4401 10.9432 10.3696 11.0816 10.2426L12.2066 9.20664L17.6441 14.1895H3.50656L8.94219 9.20664ZM13.3241 8.18945L18.8281 3.14383V13.2351L13.3241 8.18945Z" fill="#F172AD"/>
</svg>
