<svg width="27" height="26" viewBox="0 0 27 26" fill="none" xmlns="http://www.w3.org/2000/svg">
<path d="M13.0723 2.74707C16.5457 2.74707 16.957 2.76172 18.323 2.82031C19.5926 2.87402 20.2781 3.0791 20.7352 3.25C21.3395 3.47461 21.7762 3.74805 22.2281 4.18262C22.6852 4.62207 22.9645 5.03711 23.198 5.61816C23.3758 6.05762 23.5891 6.72168 23.6449 7.9375C23.7059 9.25586 23.7211 9.65137 23.7211 12.9863C23.7211 16.3262 23.7059 16.7217 23.6449 18.0352C23.5891 19.2559 23.3758 19.915 23.198 20.3545C22.9645 20.9355 22.6801 21.3555 22.2281 21.79C21.7711 22.2295 21.3395 22.498 20.7352 22.7227C20.2781 22.8936 19.5875 23.0986 18.323 23.1523C16.952 23.2109 16.5406 23.2256 13.0723 23.2256C9.59883 23.2256 9.1875 23.2109 7.82148 23.1523C6.55195 23.0986 5.86641 22.8936 5.40937 22.7227C4.80508 22.498 4.36836 22.2246 3.91641 21.79C3.45937 21.3506 3.18008 20.9355 2.94648 20.3545C2.76875 19.915 2.55547 19.251 2.49961 18.0352C2.43867 16.7168 2.42344 16.3213 2.42344 12.9863C2.42344 9.64648 2.43867 9.25098 2.49961 7.9375C2.55547 6.7168 2.76875 6.05762 2.94648 5.61816C3.18008 5.03711 3.46445 4.61719 3.91641 4.18262C4.37344 3.74316 4.80508 3.47461 5.40937 3.25C5.86641 3.0791 6.55703 2.87402 7.82148 2.82031C9.1875 2.76172 9.59883 2.74707 13.0723 2.74707ZM13.0723 0.496094C9.54297 0.496094 9.10117 0.510742 7.71484 0.569336C6.33359 0.62793 5.38398 0.842773 4.56133 1.15039C3.70312 1.47266 2.97695 1.89746 2.25586 2.5957C1.52969 3.28906 1.08789 3.9873 0.752734 4.80762C0.432812 5.60352 0.209375 6.51172 0.148438 7.83984C0.0875 9.17773 0.0722656 9.60254 0.0722656 12.9961C0.0722656 16.3896 0.0875 16.8145 0.148438 18.1475C0.209375 19.4756 0.432812 20.3887 0.752734 21.1797C1.08789 22.0049 1.52969 22.7031 2.25586 23.3965C2.97695 24.0898 3.70313 24.5195 4.55625 24.8369C5.38398 25.1445 6.32852 25.3594 7.70977 25.418C9.09609 25.4766 9.53789 25.4912 13.0672 25.4912C16.5965 25.4912 17.0383 25.4766 18.4246 25.418C19.8059 25.3594 20.7555 25.1445 21.5781 24.8369C22.4312 24.5195 23.1574 24.0898 23.8785 23.3965C24.5996 22.7031 25.0465 22.0049 25.3766 21.1846C25.6965 20.3887 25.9199 19.4805 25.9809 18.1523C26.0418 16.8193 26.057 16.3945 26.057 13.001C26.057 9.60742 26.0418 9.18262 25.9809 7.84961C25.9199 6.52148 25.6965 5.6084 25.3766 4.81738C25.0566 3.9873 24.6148 3.28906 23.8887 2.5957C23.1676 1.90234 22.4414 1.47266 21.5883 1.15527C20.7605 0.847656 19.816 0.632812 18.4348 0.574219C17.0434 0.510742 16.6016 0.496094 13.0723 0.496094Z" fill="#FF5A5F"/>
<path d="M13.0723 6.5752C9.38555 6.5752 6.39453 9.45117 6.39453 12.9961C6.39453 16.541 9.38555 19.417 13.0723 19.417C16.759 19.417 19.75 16.541 19.75 12.9961C19.75 9.45117 16.759 6.5752 13.0723 6.5752ZM13.0723 17.1611C10.6805 17.1611 8.74062 15.2959 8.74062 12.9961C8.74062 10.6963 10.6805 8.83105 13.0723 8.83105C15.4641 8.83105 17.4039 10.6963 17.4039 12.9961C17.4039 15.2959 15.4641 17.1611 13.0723 17.1611Z" fill="#FF5A5F"/>
<path d="M21.573 6.32129C21.573 7.15137 20.8723 7.82032 20.0141 7.82032C19.1508 7.82032 18.4551 7.14649 18.4551 6.32129C18.4551 5.49121 19.1559 4.82227 20.0141 4.82227C20.8723 4.82227 21.573 5.49609 21.573 6.32129Z" fill="#FF5A5F"/>
</svg>
