<svg width="36" height="36" viewBox="0 0 36 36" fill="none" xmlns="http://www.w3.org/2000/svg">
<path d="M18.0005 2.99805C9.72049 2.99805 3.00049 9.71805 3.00049 17.998C3.00049 26.278 9.72049 32.998 18.0005 32.998C26.2805 32.998 33.0005 26.278 33.0005 17.998C33.0005 9.71805 26.2805 2.99805 18.0005 2.99805ZM24.0455 15.2981L17.0405 22.288C16.8305 22.513 16.5455 22.6181 16.2455 22.6181C15.9605 22.6181 15.6755 22.513 15.4505 22.288L11.9555 18.7931C11.5205 18.3581 11.5205 17.638 11.9555 17.203C12.3905 16.768 13.1105 16.768 13.5455 17.203L16.2455 19.9031L22.4555 13.7081C22.8905 13.2581 23.6105 13.2581 24.0455 13.7081C24.4805 14.1431 24.4805 14.8481 24.0455 15.2981Z" fill="#F172AD"/>
</svg>
