<svg width="14" height="17" viewBox="0 0 14 17" fill="none" xmlns="http://www.w3.org/2000/svg">
<path d="M5.17898 14.4459H7.9514C8.10762 14.4459 8.2339 14.3193 8.2339 14.1634C8.2339 14.0074 8.10762 13.8809 7.9514 13.8809H5.17898C5.02276 13.8809 4.89648 14.0074 4.89648 14.1634C4.89648 14.3193 5.02276 14.4459 5.17898 14.4459Z" fill="#EC897E"/>
<path d="M4.42578 15.3235C4.42578 15.4795 4.55206 15.606 4.70828 15.606H8.4217C8.57792 15.606 8.70419 15.4795 8.70419 15.3235C8.70419 15.1676 8.57792 15.041 8.4217 15.041H4.70828C4.55206 15.041 4.42578 15.1676 4.42578 15.3235Z" fill="#EC897E"/>
<path d="M0.21264 2.305L5.53488 3.65986C4.60264 4.06072 3.94753 4.98759 3.94753 6.06503V6.34697C3.38253 6.98456 3.07009 7.79872 3.07009 8.65722V16.6674C3.07009 16.8234 3.19637 16.9499 3.35259 16.9499H9.77713C9.93335 16.9499 10.0596 16.8234 10.0596 16.6674V8.65722C10.0596 7.799 9.7469 6.98456 9.18219 6.34697V6.06503C9.18219 5.46897 8.98331 4.90454 8.61946 4.44492L12.3326 5.39015C12.356 5.39608 12.3795 5.39891 12.4027 5.39891C12.5286 5.39891 12.6436 5.31388 12.6761 5.18619L13.1213 3.43782C13.1397 3.36521 13.1287 3.28837 13.0905 3.22397C13.0524 3.15956 12.9902 3.11294 12.9176 3.09458L0.797408 0.008872C0.645425 -0.02983 0.492312 0.0616989 0.453892 0.213117L0.00867755 1.96149C-0.00968473 2.03409 0.00133269 2.11093 0.0394697 2.17534C0.0776068 2.23975 0.139756 2.28636 0.212358 2.30472L0.21264 2.305ZM4.5128 6.06532C4.5128 4.93364 5.43346 4.01298 6.56514 4.01298C7.11375 4.01298 7.62959 4.22626 8.01689 4.61357C8.40419 5.00087 8.61748 5.51643 8.61748 6.06532V9.48804C8.61748 10.0539 8.38753 10.5666 8.01604 10.9384C7.64428 11.3093 7.13126 11.5393 6.56542 11.5393C5.99958 11.5393 5.48657 11.3093 5.1148 10.9384C4.74332 10.5669 4.51337 10.0539 4.51337 9.48804V6.06532H4.5128ZM9.18332 7.34022C9.387 7.74419 9.49491 8.19365 9.49491 8.65751V16.3852H3.63509V8.65751C3.63509 8.19336 3.743 7.74419 3.94668 7.34022V9.48833C3.94668 10.2189 4.24895 10.8796 4.734 11.3548C5.20633 11.8184 5.85268 12.1054 6.56514 12.1054C7.2776 12.1054 7.92395 11.8184 8.39629 11.3548C8.88133 10.8796 9.1836 10.2189 9.1836 9.48833L9.18332 7.34022ZM0.931877 0.626127L12.5038 3.572L12.1978 4.77289L0.625933 1.82702L0.931877 0.626127Z" fill="#EC897E"/>
<path d="M1.66194 4.8477C1.55149 4.95815 1.55149 5.13669 1.66194 5.24715C1.71703 5.30223 1.78935 5.32992 1.86167 5.32992C1.93399 5.32992 2.00631 5.30223 2.06139 5.24715L2.58797 4.72057C2.69842 4.61012 2.69842 4.43158 2.58797 4.32112C2.47751 4.21067 2.29897 4.21067 2.18852 4.32112L1.66194 4.8477Z" fill="#EC897E"/>
<path d="M2.05088 3.42578H1.30593C1.14971 3.42578 1.02344 3.55234 1.02344 3.70828C1.02344 3.86422 1.14971 3.99077 1.30593 3.99077H2.05088C2.2071 3.99077 2.33337 3.86422 2.33337 3.70828C2.33337 3.55234 2.2071 3.42578 2.05088 3.42578Z" fill="#EC897E"/>
<path d="M3.48492 5.60333V4.85867C3.48492 4.70273 3.35864 4.57617 3.20242 4.57617C3.0462 4.57617 2.91992 4.70273 2.91992 4.85867V5.60333C2.91992 5.75927 3.0462 5.88583 3.20242 5.88583C3.35864 5.88583 3.48492 5.75927 3.48492 5.60333Z" fill="#EC897E"/>
<path d="M7.95144 6.53303C8.10766 6.53303 8.23394 6.40647 8.23394 6.25053V6.10476C8.23394 5.94882 8.10766 5.82227 7.95144 5.82227C7.79522 5.82227 7.66895 5.94882 7.66895 6.10476V6.25053C7.66895 6.40647 7.79522 6.53303 7.95144 6.53303Z" fill="#EC897E"/>
<path d="M7.95144 9.34007C8.10766 9.34007 8.23394 9.21351 8.23394 9.05757V7.08914C8.23394 6.9332 8.10766 6.80664 7.95144 6.80664C7.79522 6.80664 7.66895 6.9332 7.66895 7.08914V9.05757C7.66895 9.21351 7.79522 9.34007 7.95144 9.34007Z" fill="#EC897E"/>
</svg>
