<svg width="34" height="34" viewBox="0 0 34 34" fill="none" xmlns="http://www.w3.org/2000/svg">
<path d="M14.6093 0.0996084C12.8495 0.318749 11.2026 0.730468 10.8839 1.03594C10.6515 1.26172 10.5253 1.63359 10.585 1.93906C10.605 2.05859 11.2093 3.17422 11.9198 4.40937L13.2081 6.66055L12.8097 6.84648C12.2651 7.10547 11.9796 7.33789 11.6409 7.79609C11.2225 8.36055 11.0698 8.93164 11.103 9.75508C11.1229 10.3594 11.1495 10.4457 11.3886 10.9305C11.5347 11.2227 11.6608 11.4684 11.6741 11.4883C11.6807 11.5082 11.5214 11.6277 11.3089 11.7473C10.3593 12.3184 9.11083 13.3742 8.28075 14.3105C6.20223 16.6613 4.85419 19.3773 4.26981 22.3789C4.03739 23.5941 3.97762 25.7059 4.15028 26.8016C4.72802 30.4871 7.09872 32.6586 11.5081 33.5617C13.1882 33.907 14.0182 33.9668 16.9999 33.9668C19.9815 33.9668 20.8116 33.907 22.4917 33.5617C26.8944 32.6652 29.2718 30.4805 29.8495 26.8016C30.0222 25.7059 29.9624 23.5941 29.73 22.3789C28.953 18.368 26.6686 14.6492 23.5741 12.3516C23.2753 12.1324 22.8702 11.8602 22.671 11.7406C22.4718 11.6211 22.319 11.5082 22.3257 11.4883C22.339 11.4684 22.4651 11.2227 22.6112 10.9305C22.8503 10.4457 22.8768 10.3594 22.8968 9.75508C22.93 8.93164 22.7772 8.36055 22.3589 7.79609C22.0202 7.33789 21.7347 7.10547 21.1901 6.84648L20.7917 6.66055L22.0999 4.37617C23.3417 2.21797 23.4081 2.07851 23.4081 1.74648C23.4081 1.38125 23.2886 1.14883 22.9632 0.909765C22.7507 0.75039 21.23 0.371874 20.0546 0.192577C18.8792 0.00663967 15.7847 -0.0464853 14.6093 0.0996084ZM18.8261 2.13164C19.4968 2.19141 20.7319 2.38398 20.7784 2.43047C20.7917 2.44375 20.3268 3.28047 19.7491 4.28984L18.6932 6.1293H16.9999H15.3065L14.264 4.30976C13.6862 3.31367 13.2147 2.47695 13.2147 2.45039C13.2147 2.43047 13.3276 2.39062 13.4671 2.36406C15.4526 2.02539 17.0397 1.95234 18.8261 2.13164ZM18.5604 8.26758C19.3108 8.38711 20.2604 8.65273 20.4597 8.78555C21.0175 9.17734 20.971 10.0871 20.38 10.3926C20.1409 10.5187 20.028 10.5121 19.1249 10.2863C18.5604 10.1469 18.3413 10.1336 16.9999 10.1336C15.6585 10.1336 15.4393 10.1469 14.8749 10.2863C13.9718 10.5121 13.8589 10.5187 13.6198 10.3926C13.0089 10.0805 12.989 9.1043 13.5932 8.75898C13.819 8.62617 14.7288 8.38047 15.4061 8.26758C16.11 8.14805 17.83 8.14805 18.5604 8.26758ZM18.3944 12.2586C19.0917 12.3848 20.1608 12.7367 20.7718 13.0422C21.4425 13.3809 22.5315 14.1312 23.1557 14.6891C25.3472 16.6414 27.0272 19.5766 27.6647 22.5848C27.8905 23.6805 27.9636 25.6129 27.7975 26.5359C27.4655 28.4684 26.4561 29.8297 24.7362 30.6996C24.0854 31.025 23.262 31.3039 22.3722 31.5031C19.4503 32.1539 14.5495 32.1539 11.6276 31.5031C8.387 30.7793 6.66708 29.2055 6.20223 26.5359C6.03622 25.6129 6.10927 23.6805 6.33505 22.5848C6.81981 20.307 7.9952 17.8766 9.4495 16.1367C12.0194 13.0754 15.2003 11.6941 18.3944 12.2586Z" fill="#F38D81"/>
<path d="M16.4417 15.2C16.0698 15.4457 16.0034 15.6316 16.0034 16.4484V17.1922L15.6382 17.3582C15.1202 17.5906 14.5292 18.2016 14.2569 18.7727C14.0511 19.2043 14.0444 19.2574 14.0444 20.0543C14.0444 20.8512 14.0511 20.8977 14.2569 21.3227C14.7616 22.3586 15.5651 22.9098 16.7604 23.0492C17.046 23.0824 17.3714 23.1621 17.4776 23.2285C18.0819 23.5805 18.0753 24.55 17.471 24.8687C17.2253 24.9949 16.8003 24.9949 16.5147 24.8754C16.3952 24.8289 16.1163 24.623 15.9038 24.4238C15.4124 23.9723 15.2862 23.9059 14.9409 23.9059C14.403 23.9059 14.0112 24.2512 13.9581 24.7625C13.9448 24.9484 13.9514 25.1742 13.9714 25.2738C14.071 25.659 15.087 26.5422 15.7311 26.8012L16.0034 26.9074V27.6512C16.0034 28.4613 16.0698 28.6473 16.4417 28.893C16.7007 29.0656 17.2983 29.0656 17.5573 28.893C17.9292 28.6473 17.9956 28.4613 17.9956 27.6512V26.9074L18.3807 26.7215C18.8987 26.4691 19.4499 25.9047 19.7288 25.3336C19.9479 24.882 19.9546 24.8488 19.9546 24.0387C19.9546 23.2285 19.9479 23.1953 19.7288 22.7437C19.2573 21.7742 18.3807 21.1699 17.285 21.0437C16.4218 20.9441 16.0698 20.6586 16.0698 20.041C16.0698 19.4566 16.4882 19.0848 17.0991 19.1379C17.4245 19.1645 17.5175 19.2109 18.2014 19.709C18.4007 19.8551 18.7792 19.9148 19.0448 19.8418C19.6491 19.6758 19.9479 19.0383 19.6956 18.4406C19.5694 18.1352 18.9784 17.6371 18.4471 17.3781L17.9956 17.1656V16.4352C17.9956 15.8309 17.9757 15.6715 17.8694 15.5121C17.6636 15.2066 17.4112 15.0738 16.9995 15.0738C16.7538 15.0738 16.5745 15.1137 16.4417 15.2Z" fill="#F38D81"/>
</svg>
