<svg width="42" height="43" viewBox="0 0 42 43" fill="none" xmlns="http://www.w3.org/2000/svg">
<rect y="0.927734" width="42" height="42" rx="10" fill="#EF70A8"/>
<path d="M23.9782 25.6953L25.5182 24.1553C25.7256 23.9504 25.9881 23.8102 26.2736 23.7516C26.5592 23.693 26.8557 23.7186 27.127 23.8253L29.0038 24.5746C29.278 24.6859 29.5131 24.8759 29.6795 25.1206C29.8459 25.3653 29.9361 25.6537 29.9388 25.9496V29.3871C29.9372 29.5884 29.8949 29.7873 29.8145 29.9718C29.734 30.1563 29.617 30.3226 29.4705 30.4607C29.3241 30.5988 29.1512 30.7058 28.9623 30.7754C28.7734 30.8449 28.5724 30.8755 28.3713 30.8653C15.2195 30.0471 12.5657 18.9096 12.0638 14.6471C12.0405 14.4378 12.0618 14.2259 12.1263 14.0254C12.1908 13.8249 12.297 13.6404 12.4379 13.4838C12.5788 13.3273 12.7513 13.2024 12.944 13.1174C13.1366 13.0323 13.3451 12.989 13.5557 12.9903H16.8763C17.1727 12.9911 17.4619 13.0806 17.707 13.2473C17.952 13.4139 18.1416 13.65 18.2513 13.9253L19.0007 15.8021C19.1109 16.0724 19.139 16.3691 19.0815 16.6552C19.0241 16.9413 18.8836 17.2042 18.6776 17.4109L17.1376 18.9509C17.1376 18.9509 18.0245 24.9528 23.9782 25.6953Z" fill="white"/>
</svg>
