<svg width="206" height="39" viewBox="0 0 206 39" fill="none" xmlns="http://www.w3.org/2000/svg">
<g clip-path="url(#clip0_2489_7868)">
<path d="M10.0859 9.88797V25.3262H11.3284H12.5709H15.7868C16.8101 25.3262 17.6871 25.1424 18.4546 24.8116C19.1855 24.4808 19.7702 23.9662 20.1722 23.3413C20.5741 22.6797 20.7934 21.9078 20.7934 20.9888C20.7934 19.9596 20.5011 19.0774 19.9529 18.4158C19.5874 17.9747 19.0758 17.6071 18.4911 17.313C18.8931 17.019 19.2585 16.7249 19.5509 16.3573C20.026 15.7325 20.2818 14.9973 20.2818 14.1886C20.2818 13.2329 20.0625 12.4243 19.6605 11.7994C19.2585 11.1745 18.6373 10.6599 17.8699 10.3291C17.1024 9.99824 16.1888 9.81445 15.129 9.81445L12.5709 9.85121H10.0859V9.88797ZM18.2353 20.8418C18.2353 21.5034 18.016 22.0548 17.541 22.4591C17.0659 22.8635 16.4446 23.0473 15.6407 23.0473H12.6075V18.526L13.448 18.4893H15.2752C16.2254 18.4893 16.9197 18.6731 17.4679 19.0774C17.9795 19.5185 18.2353 20.1066 18.2353 20.8418ZM15.0194 11.9832C15.8599 11.9832 16.5177 12.1669 16.9928 12.5345C17.4679 12.9021 17.7237 13.4535 17.7237 14.1519C17.7237 14.8503 17.5044 15.3649 17.1024 15.7692C16.7004 16.1735 16.1157 16.3573 15.3849 16.3573H12.6075V11.9832H15.0194Z" fill="#F172AD"/>
<path d="M33.6212 12.2402V9.8877H26.7143H26.2027H24.1562V25.326H26.2027H26.7143H33.6943V22.9735H26.7143V18.636H32.8172V16.3203H26.7143V12.2402H33.6212Z" fill="#F172AD"/>
<path d="M42.4288 9.8877H42.2826L36.1797 25.326H38.884L40.3457 21.5399H46.9602L48.422 25.326H51.1263L44.9869 9.8877H44.8407H42.4288ZM46.0466 19.2609H41.1863L43.5982 13.0121L46.0466 19.2609Z" fill="#F172AD"/>
<path d="M53.5391 9.8877V19.6653C53.5391 20.8415 53.7949 21.9075 54.3065 22.7897C54.8181 23.6719 55.5125 24.3703 56.4261 24.8849C57.3397 25.3627 58.3995 25.62 59.6054 25.62C60.8479 25.62 61.9442 25.3627 62.8944 24.8849C63.808 24.407 64.5389 23.7086 65.0505 22.7897C65.5621 21.8707 65.8179 20.8415 65.8179 19.6653V9.8877H63.2598V19.6653C63.2598 20.4004 63.1137 21.0253 62.8213 21.5399C62.5289 22.0913 62.127 22.4956 61.5788 22.7897C61.0306 23.0837 60.4094 23.2308 59.6785 23.2308C58.9842 23.2308 58.3629 23.0837 57.8147 22.7897C57.2666 22.4956 56.8646 22.0545 56.5357 21.5399C56.2433 20.9885 56.0972 20.3637 56.0972 19.6653V9.8877H53.5391Z" fill="#F172AD"/>
<path d="M75.2411 25.326V12.2402H79.9553V9.8877H67.9688V12.2402H72.683V25.326H75.2411Z" fill="#F172AD"/>
<path d="M89.0579 25.326V18.8198L94.5395 9.8877H91.616L87.8154 16.2835L83.9782 9.8877H81.0547L86.5363 18.8198V25.326H89.0579Z" fill="#F172AD"/>
<path d="M110.219 22.7528C109.671 23.1571 108.904 23.3409 107.953 23.3409C107.149 23.3409 106.455 23.1203 105.907 22.716C105.359 22.3117 104.993 21.8338 104.774 21.2824L102.289 22.0544C102.435 22.4955 102.655 22.9365 102.983 23.3776C103.312 23.782 103.714 24.1863 104.226 24.5171C104.738 24.848 105.322 25.1053 105.98 25.3258C106.638 25.5096 107.369 25.6199 108.173 25.6199C109.342 25.6199 110.365 25.4361 111.169 25.0317C112.01 24.6642 112.631 24.1128 113.033 23.4512C113.472 22.7895 113.654 21.9808 113.654 21.0987C113.654 20.1062 113.289 19.1873 112.521 18.3786C111.754 17.5699 110.694 16.9818 109.306 16.651L107.405 16.1731C106.747 16.0261 106.272 15.7688 105.87 15.438C105.505 15.1071 105.322 14.666 105.322 14.1147C105.322 13.4163 105.542 12.8649 106.017 12.4606C106.492 12.0562 107.149 11.8725 107.99 11.8725C108.794 11.8725 109.452 12.0562 110 12.4606C110.548 12.8282 110.914 13.3428 111.133 13.9309L113.581 13.1222C113.362 12.4606 112.997 11.8725 112.521 11.3578C112.046 10.8432 111.425 10.4389 110.694 10.1081C109.963 9.81402 109.086 9.66699 108.136 9.66699C106.382 9.66699 105.066 10.0713 104.116 10.88C103.166 11.6887 102.728 12.7914 102.728 14.2617C102.728 15.0336 102.91 15.6953 103.239 16.2466C103.568 16.798 104.007 17.2759 104.591 17.6434C105.176 18.011 105.797 18.3051 106.528 18.4889L108.429 18.9667C109.232 19.1873 109.854 19.4446 110.329 19.8489C110.804 20.2165 111.023 20.6943 111.023 21.2824C111.06 21.8338 110.767 22.3852 110.219 22.7528Z" fill="#F172AD"/>
<path d="M121.218 12.6814C121.985 12.2036 122.825 11.9462 123.812 11.9462C124.433 11.9462 125.055 12.0565 125.603 12.3138C126.188 12.5344 126.663 12.9019 127.138 13.3063C127.576 13.7474 127.942 14.2252 128.197 14.7766L130.536 13.8209C130.171 12.9755 129.659 12.2403 128.965 11.6154C128.271 10.9905 127.503 10.4759 126.626 10.1451C125.749 9.77754 124.799 9.59375 123.812 9.59375C122.35 9.59375 121.035 9.92457 119.902 10.623C118.769 11.3214 117.855 12.2403 117.198 13.4533C116.54 14.6663 116.211 16.0264 116.211 17.5702C116.211 19.114 116.54 20.5108 117.198 21.6871C117.855 22.9001 118.732 23.819 119.902 24.5174C121.035 25.2158 122.35 25.5466 123.849 25.5466C124.872 25.5466 125.822 25.3628 126.699 24.9953C127.576 24.6277 128.38 24.1131 129.038 23.4514C129.696 22.7898 130.244 22.0179 130.609 21.1357L128.271 20.18C128.015 20.7681 127.649 21.3195 127.211 21.7606C126.772 22.2017 126.261 22.5692 125.712 22.8265C125.164 23.0839 124.543 23.1941 123.885 23.1941C122.899 23.1941 122.021 22.9368 121.254 22.459C120.487 21.9811 119.902 21.3195 119.463 20.4373C119.025 19.5919 118.806 18.5994 118.806 17.4967C118.806 16.3939 119.025 15.4382 119.463 14.556C119.865 13.8577 120.45 13.1593 121.218 12.6814Z" fill="#F172AD"/>
<path d="M146.47 25.326V9.8877H143.949V16.2468H136.201V9.8877H133.68V25.326H136.201V18.5625H143.949V25.326H146.47Z" fill="#F172AD"/>
<path d="M161.564 10.6591C160.395 9.9607 159.079 9.62988 157.544 9.62988C156.009 9.62988 154.694 9.9607 153.524 10.6591C152.355 11.3575 151.441 12.2764 150.784 13.4894C150.126 14.7025 149.797 16.0625 149.797 17.6431C149.797 19.1869 150.126 20.5469 150.784 21.7599C151.441 22.973 152.355 23.8919 153.524 24.5903C154.694 25.2519 156.046 25.6195 157.544 25.6195C159.043 25.6195 160.358 25.2887 161.528 24.5903C162.66 23.9287 163.574 22.973 164.232 21.7599C164.89 20.5469 165.219 19.1869 165.219 17.6063C165.219 16.0625 164.89 14.6657 164.232 13.4894C163.611 12.2764 162.697 11.3207 161.564 10.6591ZM162.003 20.5469C161.564 21.3924 160.979 22.054 160.212 22.5319C159.445 23.0097 158.568 23.267 157.581 23.267C156.558 23.267 155.68 23.0097 154.877 22.5319C154.109 22.054 153.488 21.3924 153.049 20.5469C152.611 19.7015 152.392 18.7091 152.392 17.6063C152.392 16.5036 152.611 15.5479 153.049 14.7025C153.488 13.857 154.109 13.1954 154.877 12.7175C155.644 12.2397 156.521 11.9824 157.544 11.9824C158.568 11.9824 159.445 12.2397 160.212 12.7175C160.979 13.1954 161.601 13.857 162.039 14.7025C162.478 15.5479 162.697 16.5403 162.697 17.6431C162.66 18.7091 162.441 19.7015 162.003 20.5469Z" fill="#F172AD"/>
<path d="M183.087 17.6063C183.087 16.0625 182.758 14.6657 182.1 13.4894C181.443 12.2764 180.529 11.3575 179.396 10.6591C178.227 9.9607 176.911 9.62988 175.376 9.62988C173.841 9.62988 172.526 9.9607 171.356 10.6591C170.187 11.3575 169.273 12.2764 168.616 13.4894C167.958 14.7025 167.629 16.0625 167.629 17.6431C167.629 19.1869 167.958 20.5469 168.616 21.7599C169.273 22.973 170.187 23.8919 171.356 24.5903C172.526 25.2519 173.878 25.6195 175.376 25.6195C176.875 25.6195 178.19 25.2887 179.36 24.5903C180.492 23.9287 181.406 22.973 182.064 21.7599C182.758 20.5469 183.087 19.1501 183.087 17.6063ZM179.835 20.5469C179.396 21.3924 178.811 22.054 178.044 22.5319C177.277 23.0097 176.4 23.267 175.413 23.267C174.39 23.267 173.513 23.0097 172.709 22.5319C171.941 22.054 171.32 21.3924 170.881 20.5469C170.443 19.7015 170.224 18.7091 170.224 17.6063C170.224 16.5036 170.443 15.5479 170.881 14.7025C171.32 13.857 171.941 13.1954 172.709 12.7175C173.476 12.2397 174.353 11.9824 175.376 11.9824C176.4 11.9824 177.277 12.2397 178.044 12.7175C178.811 13.1954 179.433 13.857 179.871 14.7025C180.31 15.5479 180.529 16.5403 180.529 17.6431C180.492 18.7091 180.273 19.7015 179.835 20.5469Z" fill="#F172AD"/>
<path d="M195.916 22.9735H188.972V9.8877H186.414V25.326H188.205H188.972H195.916V22.9735Z" fill="#F172AD"/>
<path d="M140.144 31.6484H139.304H139.267L136.344 38.853H137.257L138.061 36.7945H141.314L142.118 38.853H143.031L140.144 31.6484ZM138.39 36.0226L139.706 32.7144L141.021 36.0226H138.39Z" fill="#F172AD"/>
<path d="M149.502 36.2799C149.502 36.6475 149.429 36.9783 149.246 37.2724C149.1 37.5664 148.844 37.787 148.588 37.934C148.296 38.081 147.967 38.1913 147.602 38.1913C147.236 38.1913 146.907 38.1178 146.615 37.934C146.323 37.7502 146.103 37.5297 145.957 37.2724C145.811 36.9783 145.701 36.6475 145.701 36.2799V31.6484H144.824V36.2799C144.824 36.8313 144.934 37.2724 145.19 37.6767C145.409 38.081 145.738 38.4119 146.14 38.6324C146.542 38.853 147.017 38.9632 147.565 38.9632C148.113 38.9632 148.588 38.853 149.027 38.6324C149.465 38.4119 149.794 38.081 150.014 37.6767C150.233 37.2724 150.379 36.7945 150.379 36.2799V31.6484H149.502V36.2799Z" fill="#F172AD"/>
<path d="M155.567 34.883L154.763 34.6993C154.434 34.6257 154.142 34.4787 153.923 34.3317C153.703 34.1479 153.594 33.8906 153.594 33.5598C153.594 33.1922 153.74 32.8614 153.996 32.6408C154.252 32.4203 154.617 32.31 155.092 32.31C155.531 32.31 155.896 32.4203 156.225 32.6041C156.554 32.7878 156.737 33.0819 156.883 33.4127L157.687 33.1187C157.614 32.8614 157.431 32.6041 157.248 32.3468C157.066 32.0895 156.773 31.9057 156.408 31.7586C156.042 31.6116 155.677 31.5381 155.202 31.5381C154.398 31.5381 153.813 31.7219 153.375 32.0895C152.973 32.457 152.753 32.9716 152.753 33.6333C152.753 34.0009 152.826 34.2949 153.009 34.5522C153.155 34.8095 153.375 34.9933 153.667 35.1771C153.923 35.3241 154.215 35.4712 154.544 35.5447L155.348 35.7652C155.823 35.8755 156.188 36.0593 156.444 36.2431C156.7 36.4269 156.846 36.7209 156.846 37.0518C156.846 37.4193 156.7 37.7134 156.371 37.9339C156.042 38.1545 155.64 38.2648 155.056 38.2648C154.617 38.2648 154.215 38.1545 153.923 37.9339C153.63 37.7134 153.411 37.4561 153.301 37.162L152.461 37.4561C152.534 37.6766 152.644 37.8604 152.79 38.0442C152.936 38.228 153.119 38.4118 153.338 38.5588C153.557 38.7059 153.813 38.8161 154.142 38.9264C154.434 38.9999 154.8 39.0367 155.202 39.0367C155.75 39.0367 156.225 38.9632 156.59 38.7794C156.956 38.5956 157.248 38.3383 157.431 38.0442C157.614 37.7501 157.723 37.3826 157.723 37.015C157.723 36.5739 157.541 36.1696 157.175 35.802C156.81 35.3241 156.262 35.0301 155.567 34.883Z" fill="#F172AD"/>
<path d="M159.117 32.4204H161.419V38.853H162.26V32.4204H164.562V31.6484H159.117V32.4204Z" fill="#F172AD"/>
<path d="M169.858 35.7283C170.224 35.5445 170.516 35.2872 170.735 34.9564C170.955 34.6255 171.064 34.258 171.064 33.8169C171.064 33.3758 170.955 33.0082 170.772 32.6774C170.553 32.3466 170.297 32.0893 169.932 31.9055C169.566 31.7217 169.164 31.6114 168.689 31.6482H167.191H166.387V38.8527H167.264V36.0223H168.616C168.689 36.0223 168.726 36.0223 168.799 36.0223L170.443 38.8527H171.393L169.639 35.8385C169.712 35.8018 169.785 35.765 169.858 35.7283ZM168.835 35.2137H167.264V32.4201H168.689C169.128 32.4201 169.493 32.5671 169.785 32.8244C170.078 33.0817 170.224 33.4125 170.224 33.8169C170.224 34.0742 170.151 34.3315 170.041 34.5153C169.932 34.6991 169.749 34.8828 169.53 34.9931C169.31 35.1401 169.091 35.2137 168.835 35.2137Z" fill="#F172AD"/>
<path d="M176.512 31.6484H175.671H175.634L172.711 38.853H173.625L174.429 36.7945H177.681L178.485 38.853H179.399L176.512 31.6484ZM174.757 36.0226L176.073 32.7144L177.389 36.0226H174.757Z" fill="#F172AD"/>
<path d="M182.135 31.6484H181.258V38.853H181.989H182.135H185.497V38.0443H182.135V31.6484Z" fill="#F172AD"/>
<path d="M188.24 31.6484H187.363V38.853H188.24V31.6484Z" fill="#F172AD"/>
<path d="M193.832 31.6484H192.991H192.955L190.031 38.853H190.945L191.749 36.7945H195.001L195.805 38.853H196.719L193.832 31.6484ZM192.078 36.0226L193.393 32.7144L194.709 36.0226H192.078Z" fill="#F172AD"/>
<path d="M205.635 0H0.365443C0.146177 0 0 0.147031 0 0.367578V34.8831C0 35.1037 0.146177 35.2507 0.365443 35.2507H132.619C132.838 35.2507 132.985 35.1037 132.985 34.8831C132.985 34.6626 132.838 34.5155 132.619 34.5155H0.730885V0.735155H205.269V34.5155H200.738C200.518 34.5155 200.372 34.6626 200.372 34.8831C200.372 35.1037 200.518 35.2507 200.738 35.2507H205.635C205.854 35.2507 206 35.1037 206 34.8831V0.367578C206 0.147031 205.854 0 205.635 0Z" fill="#F172AD"/>
</g>
<defs>
<clipPath id="clip0_2489_7868">
<rect width="206" height="39" fill="white"/>
</clipPath>
</defs>
</svg>
