<svg width="106" height="21" viewBox="0 0 106 21" fill="none" xmlns="http://www.w3.org/2000/svg">
<path d="M10.6611 0.336914L12.9428 7.3594H20.3267L14.353 11.6995L16.6348 18.722L10.6611 14.3819L4.6874 18.722L6.96914 11.6995L0.995461 7.3594H8.37934L10.6611 0.336914Z" fill="#FFA800"/>
<path d="M31.956 0.336914L34.2377 7.3594H41.6216L35.6479 11.6995L37.9297 18.722L31.956 14.3819L25.9823 18.722L28.2641 11.6995L22.2904 7.3594H29.6743L31.956 0.336914Z" fill="#FFA800"/>
<path d="M53.249 0.336914L55.5307 7.3594H62.9146L56.9409 11.6995L59.2227 18.722L53.249 14.3819L47.2753 18.722L49.557 11.6995L43.5834 7.3594H50.9672L53.249 0.336914Z" fill="#FFA800"/>
<path d="M74.5439 0.336914L76.8256 7.3594H84.2095L78.2358 11.6995L80.5176 18.722L74.5439 14.3819L68.5702 18.722L70.852 11.6995L64.8783 7.3594H72.2621L74.5439 0.336914Z" fill="#FFA800"/>
<path d="M95.8369 0.336914L98.1186 7.3594H105.502L99.5288 11.6995L101.811 18.722L95.8369 14.3819L89.8632 18.722L92.1449 11.6995L86.1712 7.3594H93.5551L95.8369 0.336914Z" fill="#FFA800"/>
</svg>
