<svg width="44" height="45" viewBox="0 0 44 45" fill="none" xmlns="http://www.w3.org/2000/svg">
<path d="M34.3745 34.1265C34.3745 37.8518 32.301 39.9015 28.539 39.9015H15.46C11.698 39.9015 9.62451 37.85 9.62451 34.1265C9.62451 29.9318 12.0078 25.0332 18.727 25.0332H25.2703C31.9913 25.0314 34.3745 29.9318 34.3745 34.1265ZM22.0143 21.5901C25.5746 21.5901 28.4694 18.7063 28.4694 15.1625C28.4694 11.6168 25.5728 8.73486 22.0143 8.73486C18.4558 8.73486 15.5609 11.6187 15.5609 15.1625C15.5609 18.7063 18.454 21.5901 22.0143 21.5901ZM34.4479 16.8566H31.4963C31.2396 16.8566 31.0195 17.0399 30.9645 17.2783C30.5612 19.0199 29.6445 20.5782 28.3795 21.7698C28.0678 22.0632 28.2512 22.5765 28.6729 22.6865C31.9179 23.4565 34.1728 25.3632 35.5112 27.7832C35.6028 27.9849 35.7862 28.1131 36.0246 28.1131H36.7944C39.6727 28.1131 41.2495 26.5366 41.2495 23.6766C41.2495 20.5416 39.4713 16.8566 34.4479 16.8566ZM32.1012 5.0682C30.2715 5.0682 28.6746 6.07095 27.8368 7.55412C27.7689 7.67512 27.7726 7.809 27.7983 7.9245C27.8258 8.0455 27.8791 8.10981 27.9928 8.20514C29.7876 9.71764 30.9848 11.9084 31.181 14.3853C31.192 14.5246 31.2396 14.6107 31.324 14.7006C31.4083 14.7904 31.5347 14.8453 31.7015 14.8599C31.8317 14.8709 31.9655 14.8783 32.1012 14.8783C34.7962 14.8783 36.9963 12.6784 36.9963 9.96507C36.9963 7.26823 34.7962 5.0682 32.1012 5.0682ZM2.74951 23.6766C2.74951 26.5366 4.32628 28.1131 7.20461 28.1131H7.97447C8.2128 28.1131 8.39619 27.9849 8.48785 27.7832C9.82619 25.3632 12.0812 23.4565 15.3262 22.6865C15.7478 22.5765 15.9312 22.0632 15.6195 21.7698C14.3545 20.5782 13.4378 19.0199 13.0345 17.2783C12.9795 17.0399 12.7594 16.8566 12.5027 16.8566H9.55111C4.52777 16.8566 2.74951 20.5416 2.74951 23.6766ZM7.00275 9.96328C7.00275 12.6766 9.20283 14.8765 11.8978 14.8765C12.0335 14.8765 12.1674 14.8691 12.2975 14.8581C12.4662 14.8435 12.5907 14.7886 12.6751 14.6988C12.7594 14.609 12.8071 14.5228 12.8181 14.3835C13.0142 11.9066 14.2114 9.71562 16.0063 8.20312C16.1181 8.10779 16.1732 8.04371 16.2007 7.92271C16.2264 7.80721 16.2301 7.67516 16.1623 7.55233C15.3226 6.06916 13.7275 5.06641 11.8978 5.06641C9.20283 5.06824 7.00275 7.26828 7.00275 9.96328Z" fill="#F172AD"/>
</svg>
