<svg width="756" height="753" viewBox="0 0 756 753" fill="none" xmlns="http://www.w3.org/2000/svg">
<g id="waves">
<g id="waves-bg" opacity="0.7">
<g id="Ellipse 20" filter="url(#filter0_f_2636_1281)">
<circle cx="93.8472" cy="93.8472" r="93.8472" transform="matrix(-0.200745 -0.979644 -0.979644 0.200745 522.546 481.528)" fill="#9C63E4"/>
</g>
<g id="Ellipse 21" filter="url(#filter1_f_2636_1281)">
<circle cx="93.8472" cy="93.8472" r="93.8472" transform="matrix(-0.200745 -0.979644 -0.979644 0.200745 455.245 417.428)" fill="#F28F81"/>
</g>
</g>
<g id="waves_2">
<path id="Vector 90" d="M489.424 430.441C556.521 434.953 549.682 368.709 520.906 325.787C505.443 300.473 532.434 276.237 513.255 244.882C494.076 213.527 463.84 262.022 433.435 214.263C403.03 166.503 319.68 209.94 327.94 255.436C336.2 300.932 318.758 291.54 293.971 343.807C269.184 396.075 332.145 462.67 378.236 433.458C424.327 404.245 416.79 425.557 489.424 430.441Z" stroke="white" stroke-width="1.2494"/>
<path id="Vector 91" d="M420.028 343.102C426.491 343.884 434.308 332.414 428.583 325.651C423.34 319.459 424.457 311.83 421.795 307.487C414.789 296.052 413.351 301.081 406.903 296.648C399.058 291.255 381.464 291.519 384.629 306.966C387.232 319.671 380.283 317.134 379.498 327.207C378.714 337.28 385.578 347.115 397.831 344.605C402.432 343.662 409.263 341.798 420.028 343.102Z" stroke="white" stroke-width="1.2494"/>
<path id="Vector 90 - Vector 91 - 91" d="M483.425 422.439C545.009 426.612 539.503 365.347 512.822 325.712C498.288 302.136 522.927 279.41 505.25 250.511C487.177 220.967 459.559 265.511 431.332 221.69C402.978 177.781 325.606 217.294 333.403 260.058C341.148 302.572 324.661 293.804 302.056 342.235C279.451 390.667 337.312 452.103 380.326 425.317C422.646 398.674 416.416 417.88 483.425 422.439Z" stroke="white" stroke-width="1.2494"/>
<path id="Vector 90 - Vector 91 - 182" d="M477.424 414.437C533.496 418.271 529.322 361.985 504.737 325.638C491.132 303.801 513.418 282.584 497.243 256.14C480.277 228.407 455.277 269 429.228 229.118C402.925 189.061 331.53 224.648 338.864 264.681C346.095 304.214 330.562 296.069 310.139 340.664C289.716 385.26 342.477 441.536 382.415 417.178C420.963 393.105 416.039 410.204 477.424 414.437Z" stroke="white" stroke-width="1.2494"/>
<path id="Vector 90 - Vector 91 - 273" d="M471.424 406.435C521.984 409.93 519.142 358.624 496.653 325.564C483.977 305.465 503.911 285.758 489.237 261.77C473.378 235.848 450.996 272.489 427.125 236.545C402.873 200.34 337.456 232.003 344.326 269.304C351.044 305.856 336.464 298.334 318.223 339.094C299.982 379.854 347.643 430.969 384.506 409.039C419.281 387.536 415.664 402.528 471.424 406.435Z" stroke="white" stroke-width="1.2494"/>
<path id="Vector 90 - Vector 91 - 364" d="M465.423 398.433C510.471 401.588 508.962 355.262 488.568 325.489C476.821 307.128 494.403 288.931 481.231 267.399C466.478 243.287 446.714 275.977 425.021 243.972C402.82 211.618 343.381 239.357 349.788 273.925C355.991 307.497 342.365 300.598 326.306 337.522C310.247 374.446 352.809 420.401 386.595 400.898C417.599 381.966 415.287 394.851 465.423 398.433Z" stroke="white" stroke-width="1.2494"/>
<path id="Vector 90 - Vector 91 - 455" d="M459.21 390.475C498.746 393.292 498.569 351.945 480.271 325.459C469.453 308.837 484.683 292.149 473.012 273.072C459.366 250.772 442.22 279.51 422.705 251.444C402.554 222.942 349.093 246.755 355.037 278.593C360.726 309.183 348.054 302.907 334.177 335.995C320.3 369.084 357.762 409.879 388.472 392.804C415.704 376.441 414.699 387.219 459.21 390.475Z" stroke="white" stroke-width="1.2494"/>
<path id="Vector 90 - Vector 91 - 545" d="M452.746 382.567C486.77 385.045 487.925 348.677 471.723 325.479C461.835 310.594 474.712 295.417 464.543 278.796C452.003 258.306 437.475 283.093 420.138 258.966C402.038 234.315 354.555 254.204 360.036 283.309C365.211 310.918 353.492 305.266 341.797 334.518C330.103 363.771 362.465 399.406 390.099 384.758C413.559 370.965 413.86 379.636 452.746 382.567Z" stroke="white" stroke-width="1.2494"/>
<path id="Vector 90 - Vector 91 - 636" d="M446.269 374.663C474.781 376.801 477.269 345.413 463.161 325.502C454.202 312.356 464.728 298.688 456.06 284.522C444.627 265.844 432.717 286.679 417.558 266.491C401.509 245.692 360.003 261.655 365.021 288.029C369.682 312.657 358.917 307.628 349.404 333.045C339.891 358.461 367.155 388.936 391.712 376.716C411.4 365.493 413.007 372.057 446.269 374.663Z" stroke="white" stroke-width="1.2494"/>
<path id="Vector 90 - Vector 91 - 727" d="M439.771 366.761C462.771 368.561 466.591 342.152 454.579 325.528C446.549 314.12 454.722 301.962 447.556 290.252C437.23 273.384 427.938 290.268 414.957 274.019C400.959 257.071 365.431 269.11 369.986 292.752C374.132 314.399 364.321 309.993 356.99 331.574C349.659 353.155 371.823 378.47 393.304 368.677C409.221 360.024 412.133 364.481 439.771 366.761Z" stroke="white" stroke-width="1.2494"/>
<path id="Vector 90 - Vector 91 - 818" d="M433.244 358.867C450.731 360.327 455.883 338.898 445.967 325.561C438.867 315.892 444.688 305.244 439.023 295.989C429.803 280.932 423.129 293.864 412.326 281.554C400.379 268.458 370.829 276.572 374.92 297.482C378.552 316.149 369.695 312.365 364.547 330.11C359.398 347.855 376.462 368.01 394.867 360.645C407.011 354.562 411.231 356.912 433.244 358.867Z" stroke="white" stroke-width="1.2494"/>
<path id="Vector 90 - Vector 91 - 909" d="M426.672 350.978C438.647 352.1 445.131 335.65 437.311 325.6C431.139 317.669 434.608 308.531 430.445 301.732C422.332 288.486 418.276 297.467 409.651 289.095C399.755 279.85 376.182 284.04 379.811 302.218C382.928 317.904 375.025 314.744 372.058 328.653C369.092 342.562 381.056 357.557 396.385 352.619C404.758 349.106 410.283 349.349 426.672 350.978Z" stroke="white" stroke-width="1.2494"/>
</g>
</g>
<defs>
<filter id="filter0_f_2636_1281" x="67.9038" y="64.5654" width="687.732" height="687.731" filterUnits="userSpaceOnUse" color-interpolation-filters="sRGB">
<feFlood flood-opacity="0" result="BackgroundImageFix"/>
<feBlend mode="normal" in="SourceGraphic" in2="BackgroundImageFix" result="shape"/>
<feGaussianBlur stdDeviation="125" result="effect1_foregroundBlur_2636_1281"/>
</filter>
<filter id="filter1_f_2636_1281" x="0.602539" y="0.464844" width="687.732" height="687.731" filterUnits="userSpaceOnUse" color-interpolation-filters="sRGB">
<feFlood flood-opacity="0" result="BackgroundImageFix"/>
<feBlend mode="normal" in="SourceGraphic" in2="BackgroundImageFix" result="shape"/>
<feGaussianBlur stdDeviation="125" result="effect1_foregroundBlur_2636_1281"/>
</filter>
</defs>
</svg>
