<svg width="378" height="752" viewBox="0 0 378 752" fill="none" xmlns="http://www.w3.org/2000/svg">
<g opacity="0.7">
<g filter="url(#filter0_f_2506_12795)">
<circle cx="-33.6697" cy="408.061" r="93.8472" transform="rotate(-78.4195 -33.6697 408.061)" fill="#9C63E4"/>
</g>
<g filter="url(#filter1_f_2506_12795)">
<circle cx="33.6316" cy="343.961" r="93.8472" transform="rotate(-78.4195 33.6316 343.961)" fill="#F28F81"/>
</g>
</g>
<path d="M-111.324 430.071C-178.421 434.583 -171.582 368.339 -142.806 325.417C-127.343 300.103 -154.333 275.867 -135.155 244.512C-115.976 213.157 -85.7396 261.652 -55.3346 213.893C-24.9295 166.133 58.4204 209.57 50.1604 255.066C41.9004 300.562 59.3419 291.169 84.1289 343.437C108.916 395.705 45.9555 462.3 -0.135499 433.087C-46.2265 403.875 -38.6904 425.187 -111.324 430.071Z" stroke="white" stroke-width="1.2494"/>
<path d="M-41.9275 342.733C-48.3904 343.515 -56.2075 332.045 -50.4825 325.282C-45.2401 319.09 -46.3567 311.461 -43.6952 307.117C-36.6885 295.683 -35.2504 300.712 -28.8034 296.279C-20.9582 290.886 -3.36359 291.15 -6.5289 306.597C-9.13222 319.301 -2.18292 316.765 -1.39828 326.838C-0.613636 336.911 -7.47823 346.746 -19.7308 344.235C-24.332 343.293 -31.1633 341.429 -41.9275 342.733Z" stroke="white" stroke-width="1.2494"/>
<path d="M-105.325 422.07C-166.909 426.242 -161.403 364.977 -134.722 325.343C-120.188 301.767 -144.827 279.041 -127.15 250.142C-109.077 220.598 -81.459 265.141 -53.232 221.32C-24.8779 177.412 52.4943 216.925 44.6975 259.689C36.9517 302.203 53.4394 293.434 76.0444 341.866C98.6494 390.298 40.7885 451.734 -2.22626 424.948C-44.5454 398.305 -38.3155 417.511 -105.325 422.07Z" stroke="white" stroke-width="1.2494"/>
<path d="M-99.3234 414.068C-155.396 417.902 -151.222 361.616 -126.637 325.269C-113.032 303.431 -135.318 282.215 -119.143 255.771C-102.177 228.038 -77.1768 268.63 -51.1278 228.748C-24.8245 188.692 46.5699 224.279 39.2362 264.312C32.0047 303.845 47.5385 295.699 67.9615 340.295C88.3845 384.891 35.6233 441.167 -4.31529 416.809C-42.8627 392.736 -37.9389 409.835 -99.3234 414.068Z" stroke="white" stroke-width="1.2494"/>
<path d="M-93.3236 406.064C-143.884 409.559 -141.042 358.253 -118.553 325.193C-105.877 305.094 -125.811 285.387 -111.137 261.399C-95.2781 235.477 -72.8958 272.117 -49.0248 236.174C-24.7724 199.969 40.6442 231.632 33.7737 268.932C27.0564 305.485 41.6364 297.963 59.8774 338.723C78.1183 379.483 30.4567 430.598 -6.40562 408.668C-41.1812 387.165 -37.5635 402.157 -93.3236 406.064Z" stroke="white" stroke-width="1.2494"/>
<path d="M-87.3229 398.063C-132.371 401.218 -130.862 354.892 -110.468 325.119C-98.7214 306.758 -116.303 288.561 -103.131 267.028C-88.3782 242.917 -68.614 275.606 -46.9209 243.602C-24.7195 211.248 34.7194 238.986 28.312 273.555C22.109 307.127 35.7351 300.228 51.794 337.152C67.8529 374.076 25.291 420.031 -8.49513 400.528C-39.4989 381.596 -37.1873 394.48 -87.3229 398.063Z" stroke="white" stroke-width="1.2494"/>
<path d="M-81.1097 390.104C-120.646 392.921 -120.469 351.574 -102.17 325.088C-91.3531 308.466 -106.583 291.778 -94.9118 272.701C-81.2658 250.401 -64.1196 279.139 -44.6046 251.073C-24.454 222.571 29.0071 246.384 23.0629 278.221C17.3741 308.812 30.0464 302.536 43.9233 335.624C57.8001 368.713 20.3378 409.508 -10.3721 392.432C-37.6041 376.07 -36.5986 386.848 -81.1097 390.104Z" stroke="white" stroke-width="1.2494"/>
<path d="M-74.6463 382.197C-108.67 384.675 -109.825 348.307 -93.6227 325.109C-83.7345 310.224 -96.612 295.047 -86.4427 278.425C-73.9032 257.936 -59.375 282.722 -42.038 258.596C-23.9383 233.945 23.5451 253.833 18.064 282.939C12.8895 310.548 24.608 304.895 36.3028 334.148C47.9976 363.401 15.6349 399.036 -11.9988 384.388C-35.459 370.595 -35.7597 379.266 -74.6463 382.197Z" stroke="white" stroke-width="1.2494"/>
<path d="M-68.1692 374.293C-96.6809 376.431 -99.1685 345.043 -85.0614 325.132C-76.1023 311.986 -86.6276 298.318 -77.9599 284.152C-66.5269 265.474 -54.6168 286.309 -39.4577 266.121C-23.409 245.321 18.0967 261.285 13.0787 287.659C8.41844 312.287 19.1831 307.258 28.6959 332.674C38.2087 358.091 10.9456 388.566 -13.6119 376.346C-33.3003 365.123 -34.9071 371.687 -68.1692 374.293Z" stroke="white" stroke-width="1.2494"/>
<path d="M-61.671 366.39C-84.6705 368.19 -88.4905 341.781 -76.4789 325.157C-68.449 313.749 -76.6221 301.591 -69.4559 289.881C-59.1296 273.013 -49.8374 289.897 -36.8564 273.648C-22.8586 256.7 12.6693 268.739 8.11457 292.381C3.96852 314.028 13.7793 309.622 21.1101 331.203C28.4408 352.783 6.27736 378.099 -15.2038 368.305C-31.1204 359.653 -34.0334 364.11 -61.671 366.39Z" stroke="white" stroke-width="1.2494"/>
<path d="M-55.1436 358.497C-72.6309 359.957 -77.7832 338.528 -67.8672 325.191C-60.7665 315.522 -66.5874 304.874 -60.9228 295.619C-51.703 280.562 -45.0289 293.494 -34.2258 281.184C-22.2789 268.088 7.27125 276.202 3.17963 297.112C-0.452168 315.778 8.40481 311.995 13.5535 329.74C18.7022 347.485 1.63839 367.64 -16.7666 360.275C-28.9114 354.192 -33.1305 356.542 -55.1436 358.497Z" stroke="white" stroke-width="1.2494"/>
<path d="M-48.5715 350.607C-60.5466 351.729 -67.0313 335.279 -59.2108 325.229C-53.0392 317.298 -56.508 308.16 -52.345 301.361C-44.2317 288.115 -40.1756 297.096 -31.5506 288.724C-21.6545 279.479 1.91788 283.669 -1.71058 301.847C-4.82815 317.533 3.075 314.372 6.04167 328.282C9.00835 342.191 -2.95587 357.186 -18.2847 352.248C-26.6576 348.735 -32.1828 348.978 -48.5715 350.607Z" stroke="white" stroke-width="1.2494"/>
<defs>
<filter id="filter0_f_2506_12795" x="-377.536" y="64.1953" width="687.732" height="687.73" filterUnits="userSpaceOnUse" color-interpolation-filters="sRGB">
<feFlood flood-opacity="0" result="BackgroundImageFix"/>
<feBlend mode="normal" in="SourceGraphic" in2="BackgroundImageFix" result="shape"/>
<feGaussianBlur stdDeviation="125" result="effect1_foregroundBlur_2506_12795"/>
</filter>
<filter id="filter1_f_2506_12795" x="-310.234" y="0.0957031" width="687.732" height="687.73" filterUnits="userSpaceOnUse" color-interpolation-filters="sRGB">
<feFlood flood-opacity="0" result="BackgroundImageFix"/>
<feBlend mode="normal" in="SourceGraphic" in2="BackgroundImageFix" result="shape"/>
<feGaussianBlur stdDeviation="125" result="effect1_foregroundBlur_2506_12795"/>
</filter>
</defs>
</svg>
