<svg width="414" height="752" viewBox="0 0 414 752" fill="none" xmlns="http://www.w3.org/2000/svg">
<g opacity="0.7">
<g filter="url(#filter0_f_2506_12812)">
<circle cx="93.8472" cy="93.8472" r="93.8472" transform="matrix(-0.200745 -0.979644 -0.979644 0.200745 522.915 481.158)" fill="#9C63E4"/>
</g>
<g filter="url(#filter1_f_2506_12812)">
<circle cx="93.8472" cy="93.8472" r="93.8472" transform="matrix(-0.200745 -0.979644 -0.979644 0.200745 455.614 417.059)" fill="#F28F81"/>
</g>
</g>
<path d="M489.793 430.071C556.89 434.583 550.051 368.339 521.275 325.417C505.812 300.103 532.803 275.867 513.624 244.512C494.445 213.157 464.209 261.652 433.804 213.893C403.399 166.133 320.049 209.57 328.309 255.066C336.569 300.562 319.127 291.169 294.34 343.437C269.553 395.705 332.514 462.3 378.605 433.087C424.696 403.875 417.16 425.187 489.793 430.071Z" stroke="white" stroke-width="1.2494"/>
<path d="M420.397 342.733C426.86 343.515 434.677 332.045 428.952 325.282C423.709 319.09 424.826 311.461 422.164 307.117C415.158 295.683 413.72 300.712 407.273 296.279C399.427 290.886 381.833 291.15 384.998 306.597C387.601 319.301 380.652 316.765 379.868 326.838C379.083 336.911 385.947 346.746 398.2 344.235C402.801 343.293 409.633 341.429 420.397 342.733Z" stroke="white" stroke-width="1.2494"/>
<path d="M483.794 422.07C545.379 426.242 539.872 364.977 513.192 325.343C498.658 301.767 523.296 279.041 505.619 250.142C487.547 220.598 459.928 265.141 431.701 221.32C403.347 177.412 325.975 216.925 333.772 259.689C341.518 302.203 325.03 293.434 302.425 341.866C279.82 390.298 337.681 451.734 380.695 424.948C423.015 398.305 416.785 417.511 483.794 422.07Z" stroke="white" stroke-width="1.2494"/>
<path d="M477.793 414.068C533.865 417.902 529.691 361.616 505.106 325.269C491.501 303.431 513.788 282.215 497.612 255.771C480.646 228.038 455.646 268.63 429.597 228.748C403.294 188.692 331.899 224.279 339.233 264.312C346.465 303.845 330.931 295.699 310.508 340.295C290.085 384.891 342.846 441.167 382.785 416.809C421.332 392.736 416.408 409.835 477.793 414.068Z" stroke="white" stroke-width="1.2494"/>
<path d="M471.793 406.064C522.353 409.559 519.511 358.253 497.022 325.193C484.346 305.094 504.28 285.387 489.606 261.399C473.747 235.477 451.365 272.117 427.494 236.174C403.242 199.969 337.825 231.632 344.696 268.932C351.413 305.485 336.833 297.963 318.592 338.723C300.351 379.483 348.013 430.598 384.875 408.668C419.65 387.165 416.033 402.157 471.793 406.064Z" stroke="white" stroke-width="1.2494"/>
<path d="M465.792 398.063C510.84 401.218 509.331 354.892 488.937 325.119C477.191 306.758 494.772 288.561 481.6 267.028C466.847 242.917 447.083 275.606 425.39 243.602C403.189 211.248 343.75 238.986 350.157 273.555C356.36 307.127 342.734 300.228 326.675 337.152C310.616 374.076 353.178 420.031 386.964 400.528C417.968 381.596 415.657 394.48 465.792 398.063Z" stroke="white" stroke-width="1.2494"/>
<path d="M459.579 390.104C499.115 392.921 498.938 351.574 480.64 325.088C469.822 308.466 485.052 291.778 473.381 272.701C459.735 250.401 442.589 279.139 423.074 251.073C402.923 222.571 349.462 246.384 355.406 278.221C361.095 308.812 348.423 302.536 334.546 335.624C320.669 368.713 358.131 409.508 388.841 392.432C416.073 376.07 415.068 386.848 459.579 390.104Z" stroke="white" stroke-width="1.2494"/>
<path d="M453.116 382.197C487.139 384.675 488.295 348.307 472.092 325.109C462.204 310.224 475.081 295.047 464.912 278.425C452.372 257.936 437.844 282.722 420.507 258.596C402.408 233.945 354.924 253.833 360.405 282.939C365.58 310.548 353.861 304.895 342.166 334.148C330.472 363.401 362.834 399.036 390.468 384.388C413.928 370.595 414.229 379.266 453.116 382.197Z" stroke="white" stroke-width="1.2494"/>
<path d="M446.638 374.293C475.15 376.431 477.638 345.043 463.531 325.132C454.572 311.986 465.097 298.318 456.429 284.152C444.996 265.474 433.086 286.309 417.927 266.121C401.878 245.321 360.373 261.285 365.391 287.659C370.051 312.287 359.286 307.258 349.773 332.674C340.261 358.091 367.524 388.566 392.081 376.346C411.77 365.123 413.376 371.687 446.638 374.293Z" stroke="white" stroke-width="1.2494"/>
<path d="M440.14 366.39C463.14 368.19 466.96 341.781 454.948 325.157C446.918 313.749 455.091 301.591 447.925 289.881C437.599 273.013 428.307 289.897 415.326 273.648C401.328 256.7 365.8 268.739 370.355 292.381C374.501 314.028 364.69 309.622 357.359 331.203C350.028 352.783 372.192 378.099 393.673 368.305C409.59 359.653 412.503 364.11 440.14 366.39Z" stroke="white" stroke-width="1.2494"/>
<path d="M433.613 358.497C451.1 359.957 456.252 338.528 446.336 325.191C439.236 315.522 445.057 304.874 439.392 295.619C430.172 280.562 423.498 293.494 412.695 281.184C400.748 268.088 371.198 276.202 375.29 297.112C378.921 315.778 370.064 311.995 364.916 329.74C359.767 347.485 376.831 367.64 395.236 360.275C407.381 354.192 411.6 356.542 433.613 358.497Z" stroke="white" stroke-width="1.2494"/>
<path d="M427.041 350.607C439.016 351.729 445.501 335.279 437.68 325.229C431.508 317.298 434.977 308.16 430.814 301.361C422.701 288.115 418.645 297.096 410.02 288.724C400.124 279.479 376.551 283.669 380.18 301.847C383.297 317.533 375.394 314.372 372.428 328.282C369.461 342.191 381.425 357.186 396.754 352.248C405.127 348.735 410.652 348.978 427.041 350.607Z" stroke="white" stroke-width="1.2494"/>
<defs>
<filter id="filter0_f_2506_12812" x="68.2729" y="64.1953" width="687.732" height="687.73" filterUnits="userSpaceOnUse" color-interpolation-filters="sRGB">
<feFlood flood-opacity="0" result="BackgroundImageFix"/>
<feBlend mode="normal" in="SourceGraphic" in2="BackgroundImageFix" result="shape"/>
<feGaussianBlur stdDeviation="125" result="effect1_foregroundBlur_2506_12812"/>
</filter>
<filter id="filter1_f_2506_12812" x="0.97168" y="0.0957031" width="687.732" height="687.73" filterUnits="userSpaceOnUse" color-interpolation-filters="sRGB">
<feFlood flood-opacity="0" result="BackgroundImageFix"/>
<feBlend mode="normal" in="SourceGraphic" in2="BackgroundImageFix" result="shape"/>
<feGaussianBlur stdDeviation="125" result="effect1_foregroundBlur_2506_12812"/>
</filter>
</defs>
</svg>
