<svg width="765" height="742" viewBox="0 0 765 742" fill="none" xmlns="http://www.w3.org/2000/svg">
<g id="waves-right">
<g id="blur" opacity="0.7">
<g id="Ellipse 20" filter="url(#filter0_f_2698_2765)">
<circle cx="93.8472" cy="93.8472" r="93.8472" transform="matrix(-1 0 0 1 514.141 250.989)" fill="#9C63E4"/>
</g>
<g id="Ellipse 21" filter="url(#filter1_f_2698_2765)">
<circle cx="93.8472" cy="93.8472" r="93.8472" transform="matrix(-1 0 0 1 437.835 304.052)" fill="#F28F81"/>
</g>
</g>
<g id="Group 1000008813">
<path id="Vector 90" d="M457.445 273.181C475.334 208.356 409.065 201.757 361.241 221.331C333.338 231.398 315.013 200.091 280.447 212.585C245.88 225.079 287.318 264.435 234.427 284.634C181.536 304.832 207.357 395.206 253.584 396.247C299.812 397.288 287.11 412.489 333.338 447.264C379.565 482.039 457.444 433.729 438.079 382.712C418.713 331.694 438.079 343.356 457.445 273.181Z" stroke="white" stroke-width="1.2494"/>
<path id="Vector 91" d="M357.952 323.632C360.016 317.457 350.348 307.497 342.574 311.748C335.455 315.64 328.206 313.015 323.417 314.75C310.808 319.319 315.446 321.737 309.81 327.163C302.951 333.766 299.678 351.056 315.446 351.056C328.414 351.056 324.534 357.354 334.245 360.145C343.956 362.936 354.968 358.185 354.968 345.678C354.968 340.981 354.514 333.915 357.952 323.632Z" stroke="white" stroke-width="1.2494"/>
<path id="Vector 90 - Vector 91 - 91" d="M448.401 277.452C464.852 217.959 403.728 211.055 359.545 229.235C333.531 238.741 316.214 210.042 284.354 221.558C251.783 233.331 289.876 269.329 241.281 288.185C192.575 307.148 215.751 390.877 259.209 391.823C302.413 392.77 290.513 407.161 333.421 439.029C376.329 470.896 448.13 426.546 430.524 379.03C412.919 332.223 430.483 342.182 448.401 277.452Z" stroke="white" stroke-width="1.2494"/>
<path id="Vector 90 - Vector 91 - 182" d="M439.357 281.724C454.369 227.563 398.391 220.353 357.849 237.141C333.725 246.085 317.414 219.993 288.261 230.531C257.687 241.584 292.434 274.224 248.135 291.737C203.613 309.464 224.145 386.549 264.834 387.401C305.015 388.253 293.916 401.835 333.505 430.795C373.093 459.754 438.815 419.364 422.97 375.349C407.125 332.754 422.888 341.01 439.357 281.724Z" stroke="white" stroke-width="1.2494"/>
<path id="Vector 90 - Vector 91 - 273" d="M430.313 285.996C443.887 237.166 393.054 229.651 356.153 245.046C333.918 253.429 318.614 229.944 292.169 239.504C263.591 249.837 294.992 279.119 254.989 295.289C214.652 311.779 232.538 382.22 270.459 382.978C307.616 383.735 297.32 396.508 333.588 422.56C369.857 448.612 429.5 412.182 415.415 371.667C401.331 333.283 415.292 339.837 430.313 285.996Z" stroke="white" stroke-width="1.2494"/>
<path id="Vector 90 - Vector 91 - 364" d="M421.269 290.268C433.404 246.77 387.717 238.949 354.457 252.951C334.112 260.773 319.815 239.896 296.076 248.477C269.494 258.089 297.55 284.014 261.843 298.84C225.691 314.095 240.932 377.892 276.084 378.555C310.217 379.217 300.723 391.181 333.672 414.325C366.62 437.47 420.184 404.999 407.861 367.986C395.537 333.813 407.696 338.664 421.269 290.268Z" stroke="white" stroke-width="1.2494"/>
<path id="Vector 90 - Vector 91 - 455" d="M412.226 294.757C422.923 256.591 382.381 248.465 352.762 261.074C334.306 268.334 321.016 250.064 299.984 257.668C275.398 266.56 300.109 289.126 268.698 302.609C236.73 316.628 249.327 373.781 281.709 374.349C312.819 374.917 304.127 386.072 333.756 406.308C363.385 426.545 410.87 398.035 400.307 364.522C389.744 334.56 400.101 337.708 412.226 294.757Z" stroke="white" stroke-width="1.2494"/>
<path id="Vector 90 - Vector 91 - 545" d="M403.182 299.501C412.44 266.668 377.044 258.235 351.065 269.451C334.499 276.15 322.216 260.488 303.891 267.114C281.302 275.285 302.667 294.493 275.551 306.634C247.769 319.416 257.72 369.926 287.334 370.399C315.42 370.872 307.53 381.217 333.839 398.546C360.148 415.875 401.555 391.325 392.752 361.313C383.95 335.562 392.505 337.008 403.182 299.501Z" stroke="white" stroke-width="1.2494"/>
<path id="Vector 90 - Vector 91 - 636" d="M394.138 304.26C401.957 276.758 371.707 268.02 349.369 277.843C334.692 283.981 323.416 270.926 307.798 276.573C287.205 284.024 305.225 299.874 282.405 310.672C258.807 322.219 266.114 366.084 292.958 366.463C318.02 366.841 310.932 376.377 333.922 390.799C356.912 405.22 392.239 384.63 385.197 358.119C378.155 336.578 384.908 336.322 394.138 304.26Z" stroke="white" stroke-width="1.2494"/>
<path id="Vector 90 - Vector 91 - 727" d="M385.093 309.04C391.473 286.87 366.369 277.826 347.672 286.256C334.885 291.833 324.615 281.385 311.705 286.055C293.107 292.785 307.782 305.277 289.258 314.732C269.845 325.043 274.507 362.264 298.582 362.548C320.621 362.832 314.334 371.559 334.004 383.072C353.674 394.586 382.923 377.956 377.642 354.946C372.36 337.616 377.312 335.657 385.093 309.04Z" stroke="white" stroke-width="1.2494"/>
<path id="Vector 90 - Vector 91 - 818" d="M376.049 313.849C380.99 297.011 361.031 287.662 345.975 294.699C335.078 299.714 325.815 291.874 315.611 295.565C299.01 301.575 310.339 310.709 296.111 318.821C280.883 327.896 282.9 358.473 304.206 358.663C323.221 358.852 317.737 366.769 334.087 375.375C350.437 383.981 373.608 371.311 370.087 351.802C366.566 338.683 369.715 335.022 376.049 313.849Z" stroke="white" stroke-width="1.2494"/>
<path id="Vector 90 - Vector 91 - 909" d="M367.002 318.704C370.505 307.198 355.691 297.543 344.277 303.187C335.268 307.641 327.012 302.408 319.516 305.122C304.911 310.411 312.894 316.187 302.962 322.956C291.919 330.795 291.291 354.728 309.828 354.823C325.82 354.918 321.137 362.026 334.168 367.724C347.198 373.423 364.29 364.712 362.529 348.704C360.769 339.796 362.116 334.432 367.002 318.704Z" stroke="white" stroke-width="1.2494"/>
</g>
</g>
<defs>
<filter id="filter0_f_2698_2765" x="76.4463" y="0.98877" width="687.694" height="687.694" filterUnits="userSpaceOnUse" color-interpolation-filters="sRGB">
<feFlood flood-opacity="0" result="BackgroundImageFix"/>
<feBlend mode="normal" in="SourceGraphic" in2="BackgroundImageFix" result="shape"/>
<feGaussianBlur stdDeviation="125" result="effect1_foregroundBlur_2698_2765"/>
</filter>
<filter id="filter1_f_2698_2765" x="0.140625" y="54.0522" width="687.694" height="687.694" filterUnits="userSpaceOnUse" color-interpolation-filters="sRGB">
<feFlood flood-opacity="0" result="BackgroundImageFix"/>
<feBlend mode="normal" in="SourceGraphic" in2="BackgroundImageFix" result="shape"/>
<feGaussianBlur stdDeviation="125" result="effect1_foregroundBlur_2698_2765"/>
</filter>
</defs>
</svg>
