<svg width="756" height="752" viewBox="0 0 756 752" fill="none" xmlns="http://www.w3.org/2000/svg">
<g id="waves-left">
<g id="blur" opacity="0.7">
<g id="Ellipse 20" filter="url(#filter0_f_2697_2726)">
<circle cx="93.8472" cy="93.8472" r="93.8472" transform="matrix(-0.200745 -0.979644 -0.979644 0.200745 521.954 481.157)" fill="#9C63E4"/>
</g>
<g id="Ellipse 21" filter="url(#filter1_f_2697_2726)">
<circle cx="93.8472" cy="93.8472" r="93.8472" transform="matrix(-0.200745 -0.979644 -0.979644 0.200745 454.652 417.057)" fill="#F28F81"/>
</g>
</g>
<g id="waves">
<path id="Vector 90" d="M488.832 430.07C555.929 434.582 549.09 368.338 520.314 325.416C504.851 300.102 531.842 275.866 512.663 244.511C493.484 213.156 463.248 261.651 432.843 213.892C402.438 166.132 319.088 209.569 327.348 255.065C335.608 300.561 318.166 291.168 293.379 343.436C268.592 395.704 331.553 462.299 377.644 433.086C423.735 403.874 416.199 425.186 488.832 430.07Z" stroke="white" stroke-width="1.2494"/>
<path id="Vector 91" d="M419.436 342.731C425.899 343.513 433.716 332.043 427.991 325.28C422.749 319.088 423.865 311.459 421.204 307.116C414.197 295.681 412.759 300.71 406.312 296.277C398.467 290.884 380.872 291.148 384.038 306.595C386.641 319.299 379.692 316.763 378.907 326.836C378.122 336.909 384.987 346.744 397.24 344.233C401.841 343.291 408.672 341.427 419.436 342.731Z" stroke="white" stroke-width="1.2494"/>
<path id="Vector 90 - Vector 91 - 91" d="M482.833 422.068C544.418 426.24 538.911 364.975 512.231 325.341C497.697 301.765 522.335 279.039 504.658 250.14C486.586 220.596 458.967 265.139 430.74 221.319C402.386 177.41 325.014 216.923 332.811 259.687C340.557 302.201 324.069 293.432 301.464 341.864C278.859 390.296 336.72 451.732 379.735 424.946C422.054 398.303 415.824 417.509 482.833 422.068Z" stroke="white" stroke-width="1.2494"/>
<path id="Vector 90 - Vector 91 - 182" d="M476.832 414.066C532.905 417.9 528.731 361.614 504.146 325.267C490.541 303.43 512.827 282.213 496.652 255.769C479.686 228.036 454.686 268.628 428.637 228.746C402.333 188.69 330.939 224.277 338.273 264.31C345.504 303.843 329.97 295.698 309.547 340.293C289.124 384.889 341.886 441.165 381.824 416.807C420.371 392.734 415.448 409.833 476.832 414.066Z" stroke="white" stroke-width="1.2494"/>
<path id="Vector 90 - Vector 91 - 273" d="M470.832 406.064C521.393 409.559 518.551 358.253 496.062 325.193C483.386 305.094 503.32 285.387 488.646 261.399C472.787 235.477 450.405 272.117 426.534 236.174C402.281 199.969 336.865 231.632 343.735 268.932C350.452 305.485 335.872 297.963 317.631 338.723C299.39 379.483 347.052 430.598 383.914 408.668C418.69 387.165 415.072 402.157 470.832 406.064Z" stroke="white" stroke-width="1.2494"/>
<path id="Vector 90 - Vector 91 - 364" d="M464.831 398.062C509.879 401.217 508.37 354.891 487.976 325.118C476.23 306.757 493.812 288.56 480.639 267.027C465.887 242.916 446.122 275.606 424.429 243.601C402.228 211.247 342.789 238.985 349.196 273.554C355.399 307.126 341.773 300.227 325.714 337.151C309.655 374.075 352.217 420.03 386.003 400.527C417.007 381.595 414.696 394.479 464.831 398.062Z" stroke="white" stroke-width="1.2494"/>
<path id="Vector 90 - Vector 91 - 455" d="M458.618 390.104C498.154 392.921 497.977 351.574 479.679 325.088C468.861 308.466 484.091 291.778 472.42 272.701C458.774 250.401 441.628 279.139 422.113 251.073C401.962 222.571 348.501 246.384 354.445 278.221C360.134 308.812 347.462 302.536 333.585 335.624C319.708 368.713 357.171 409.508 387.88 392.432C415.112 376.07 414.107 386.848 458.618 390.104Z" stroke="white" stroke-width="1.2494"/>
<path id="Vector 90 - Vector 91 - 545" d="M452.155 382.196C486.179 384.674 487.334 348.306 471.131 325.108C461.243 310.223 474.121 295.046 463.951 278.425C451.412 257.935 436.884 282.721 419.547 258.595C401.447 233.944 353.964 253.832 359.445 282.938C364.619 310.547 352.901 304.894 341.206 334.147C329.511 363.4 361.874 399.035 389.508 384.387C412.968 370.594 413.268 379.265 452.155 382.196Z" stroke="white" stroke-width="1.2494"/>
<path id="Vector 90 - Vector 91 - 636" d="M445.677 374.292C474.189 376.43 476.676 345.042 462.569 325.131C453.61 311.985 464.135 298.317 455.468 284.151C444.035 265.473 432.125 286.308 416.966 266.12C400.917 245.32 359.411 261.284 364.429 287.658C369.089 312.286 358.325 307.257 348.812 332.673C339.299 358.09 366.562 388.565 391.12 376.345C410.808 365.122 412.415 371.686 445.677 374.292Z" stroke="white" stroke-width="1.2494"/>
<path id="Vector 90 - Vector 91 - 727" d="M439.179 366.39C462.178 368.19 465.998 341.781 453.987 325.157C445.957 313.749 454.13 301.591 446.964 289.881C436.637 273.013 427.345 289.897 414.364 273.648C400.366 256.7 364.838 268.739 369.393 292.381C373.539 314.028 363.728 309.622 356.398 331.203C349.067 352.783 371.23 378.099 392.712 368.305C408.628 359.653 411.541 364.11 439.179 366.39Z" stroke="white" stroke-width="1.2494"/>
<path id="Vector 90 - Vector 91 - 818" d="M432.652 358.496C450.139 359.956 455.292 338.527 445.376 325.19C438.275 315.521 444.096 304.873 438.431 295.618C429.211 280.561 422.537 293.493 411.734 281.183C399.787 268.087 370.237 276.201 374.329 297.111C377.96 315.777 369.103 311.994 363.955 329.739C358.806 347.484 375.87 367.639 394.275 360.274C406.42 354.191 410.639 356.541 432.652 358.496Z" stroke="white" stroke-width="1.2494"/>
<path id="Vector 90 - Vector 91 - 909" d="M426.08 350.607C438.055 351.729 444.54 335.279 436.719 325.229C430.548 317.298 434.016 308.16 429.853 301.361C421.74 288.115 417.684 297.096 409.059 288.724C399.163 279.479 375.59 283.669 379.219 301.847C382.336 317.533 374.433 314.372 371.467 328.282C368.5 342.191 380.464 357.186 395.793 352.248C404.166 348.735 409.691 348.978 426.08 350.607Z" stroke="white" stroke-width="1.2494"/>
</g>
</g>
<defs>
<filter id="filter0_f_2697_2726" x="67.3125" y="64.1938" width="687.731" height="687.732" filterUnits="userSpaceOnUse" color-interpolation-filters="sRGB">
<feFlood flood-opacity="0" result="BackgroundImageFix"/>
<feBlend mode="normal" in="SourceGraphic" in2="BackgroundImageFix" result="shape"/>
<feGaussianBlur stdDeviation="125" result="effect1_foregroundBlur_2697_2726"/>
</filter>
<filter id="filter1_f_2697_2726" x="0.0107422" y="0.0932617" width="687.731" height="687.732" filterUnits="userSpaceOnUse" color-interpolation-filters="sRGB">
<feFlood flood-opacity="0" result="BackgroundImageFix"/>
<feBlend mode="normal" in="SourceGraphic" in2="BackgroundImageFix" result="shape"/>
<feGaussianBlur stdDeviation="125" result="effect1_foregroundBlur_2697_2726"/>
</filter>
</defs>
</svg>
